<svg width="16" height="16" viewBox="0 0 16 16" fill="none" xmlns="http://www.w3.org/2000/svg">
<path d="M3.64198 2.95533C4.85169 1.9071 6.3993 1.33109 7.99998 1.33333C11.682 1.33333 14.6666 4.31799 14.6666 7.99999C14.6666 9.42399 14.22 10.744 13.46 11.8267L11.3333 7.99999H13.3333C13.3334 6.95441 13.0261 5.93186 12.4498 5.0595C11.8734 4.18713 11.0533 3.50343 10.0914 3.09341C9.1296 2.68339 8.06846 2.56513 7.03995 2.75334C6.01145 2.94155 5.06095 3.42793 4.30665 4.15199L3.64198 2.95533ZM12.358 13.0447C11.1483 14.0929 9.60066 14.6689 7.99998 14.6667C4.31798 14.6667 1.33331 11.682 1.33331 7.99999C1.33331 6.57599 1.77998 5.25599 2.53998 4.17333L4.66665 7.99999H2.66665C2.66656 9.04558 2.97381 10.0681 3.5502 10.9405C4.12659 11.8129 4.94669 12.4966 5.90853 12.9066C6.87036 13.3166 7.9315 13.4349 8.96001 13.2466C9.98851 13.0584 10.939 12.5721 11.6933 11.848L12.358 13.0447Z" fill="#747A9F"/>
</svg>
