<svg width="408" height="408" viewBox="0 0 408 408" fill="none" xmlns="http://www.w3.org/2000/svg">
<g filter="url(#filter0_d)">
<path fill-rule="evenodd" clip-rule="evenodd" d="M204 330.839C276.26 330.839 334.839 272.26 334.839 200C334.839 127.74 276.26 69.1613 204 69.1613C131.74 69.1613 73.1613 127.74 73.1613 200C73.1613 272.26 131.74 330.839 204 330.839ZM204 369C297.336 369 373 293.336 373 200C373 106.664 297.336 31 204 31C110.664 31 35 106.664 35 200C35 293.336 110.664 369 204 369Z" fill="url(#paint0_linear)"/>
</g>
<circle cx="204" cy="200" r="168.5" stroke="url(#paint1_linear)"/>
<circle cx="204" cy="200" r="128.92" stroke="url(#paint2_linear)" stroke-width="4"/>
<path d="M228.392 54.937L226.785 54.6525L227.882 48.4613L225.859 48.7165L226.09 47.4104L229.655 46.8034L229.827 46.8339L228.392 54.937Z" fill="#4B5D86"/>
<path d="M234.359 55.9936L232.753 55.7092L233.849 49.518L231.826 49.7731L232.058 48.467L235.622 47.8601L235.794 47.8906L234.359 55.9936Z" fill="#4B5D86"/>
<path d="M281.912 68.1995C281.713 68.5449 281.45 68.8014 281.123 68.9689C280.796 69.1364 280.434 69.2125 280.039 69.1972C280.289 69.5628 280.43 69.9505 280.462 70.3605C280.497 70.7671 280.4 71.1676 280.173 71.5619C279.808 72.1941 279.304 72.5701 278.661 72.69C278.02 72.8066 277.33 72.6514 276.59 72.2243C275.85 71.7972 275.37 71.2745 275.149 70.656C274.928 70.0376 274.999 69.4139 275.362 68.785C275.59 68.3907 275.89 68.1052 276.261 67.9286C276.632 67.752 277.036 67.681 277.472 67.7156C277.262 67.3809 277.147 67.0302 277.128 66.6632C277.113 66.2982 277.205 65.943 277.405 65.5976C277.755 64.9915 278.235 64.6258 278.847 64.5007C279.46 64.3723 280.113 64.5084 280.807 64.9091C281.498 65.308 281.942 65.8033 282.139 66.395C282.342 66.9854 282.266 67.5869 281.912 68.1995ZM278.814 70.6409C278.993 70.3313 279.046 70.0319 278.974 69.7427C278.902 69.4535 278.715 69.2214 278.412 69.0464C278.112 68.8733 277.819 68.8279 277.532 68.9102C277.248 68.9892 277.015 69.1851 276.834 69.4979C276.659 69.801 276.606 70.0962 276.675 70.3835C276.744 70.6708 276.935 70.9048 277.247 71.0854C277.554 71.2623 277.845 71.3109 278.121 71.2314C278.401 71.1538 278.632 70.9569 278.814 70.6409ZM280.46 67.4524C280.62 67.1754 280.674 66.9115 280.624 66.6606C280.575 66.4065 280.417 66.2023 280.15 66.048C279.886 65.8956 279.633 65.8586 279.393 65.9368C279.152 66.0151 278.949 66.1976 278.783 66.4844C278.619 66.7679 278.561 67.0383 278.608 67.2957C278.655 67.5531 278.812 67.7589 279.079 67.9132C279.346 68.0674 279.602 68.0996 279.845 68.0097C280.091 67.9216 280.296 67.7359 280.46 67.4524Z" fill="#4B5D86"/>
<path d="M313.286 102.349L312.222 101.112L316.99 97.0127L315.263 95.93L316.269 95.0652L319.412 96.851L319.527 96.9837L313.286 102.349Z" fill="#4B5D86"/>
<path d="M320.837 105.918C319.975 106.659 319.163 107.047 318.399 107.083C317.636 107.119 316.959 106.793 316.367 106.105C315.784 105.426 315.561 104.715 315.7 103.97C315.839 103.225 316.323 102.489 317.151 101.762L318.298 100.776C319.169 100.028 319.984 99.6394 320.744 99.6113C321.506 99.586 322.18 99.9129 322.763 100.592C323.347 101.271 323.57 101.983 323.431 102.727C323.295 103.47 322.813 104.204 321.984 104.932L320.837 105.918ZM321.032 103.599C321.548 103.155 321.862 102.761 321.973 102.418C322.09 102.074 322.02 101.753 321.762 101.453C321.512 101.162 321.214 101.044 320.868 101.098C320.528 101.152 320.116 101.38 319.632 101.781L318.116 103.083C317.608 103.52 317.289 103.914 317.159 104.264C317.034 104.615 317.102 104.943 317.365 105.248C317.625 105.55 317.931 105.667 318.283 105.597C318.635 105.528 319.058 105.286 319.551 104.872L321.032 103.599Z" fill="#4B5D86"/>
<path d="M340.456 146.305L338.224 141.133L339.25 140.69L342.906 142.008C343.417 142.185 343.843 142.295 344.184 142.336C344.527 142.38 344.822 142.35 345.067 142.244C345.402 142.099 345.628 141.901 345.745 141.65C345.866 141.397 345.858 141.114 345.722 140.799C345.576 140.461 345.343 140.244 345.023 140.148C344.708 140.055 344.361 140.09 343.981 140.254L343.332 138.751C343.791 138.553 344.258 138.48 344.732 138.534C345.208 138.591 345.639 138.774 346.026 139.082C346.417 139.389 346.722 139.796 346.941 140.304C347.277 141.081 347.35 141.765 347.162 142.354C346.975 142.947 346.541 143.39 345.861 143.684C345.488 143.845 345.066 143.912 344.595 143.886C344.125 143.859 343.531 143.722 342.813 143.475L340.264 142.54L341.664 145.784L340.456 146.305Z" fill="#4B5D86"/>
<path d="M345.378 149.902L345.747 150.757L344.54 151.278L344.171 150.423L342.538 151.127L341.892 149.63L343.524 148.925L342.189 145.832L343.103 145.357L349.431 146.358L350.084 147.871L345.378 149.902ZM344.012 146.736L344.732 148.404L347.396 147.255L347.182 147.23L344.012 146.736Z" fill="#4B5D86"/>
<path d="M355.518 191.339L355.518 192.209C355.518 192.623 355.621 192.929 355.828 193.129C356.035 193.328 356.31 193.428 356.653 193.428C356.984 193.428 357.242 193.328 357.426 193.129C357.61 192.933 357.703 192.662 357.703 192.316C357.703 192.004 357.616 191.742 357.443 191.531C357.274 191.321 357.051 191.215 356.777 191.215L356.777 189.584C357.206 189.584 357.59 189.699 357.928 189.928C358.271 190.162 358.538 190.485 358.73 190.899C358.922 191.317 359.018 191.776 359.018 192.276C359.018 193.146 358.809 193.827 358.391 194.32C357.977 194.812 357.405 195.059 356.675 195.059C356.299 195.059 355.953 194.944 355.636 194.715C355.32 194.485 355.078 194.184 354.908 193.812C354.743 194.274 354.494 194.619 354.163 194.844C353.832 195.074 353.441 195.189 352.989 195.189C352.259 195.189 351.674 194.922 351.233 194.387C350.793 193.857 350.573 193.153 350.573 192.276C350.573 191.456 350.789 190.784 351.222 190.261C351.655 189.742 352.227 189.483 352.938 189.483L352.938 191.114C352.63 191.114 352.377 191.228 352.182 191.458C351.986 191.691 351.888 191.977 351.888 192.316C351.888 192.703 351.99 193.006 352.193 193.225C352.4 193.447 352.673 193.558 353.012 193.558C353.832 193.558 354.242 193.106 354.242 192.203L354.242 191.339L355.518 191.339Z" fill="#4B5D86"/>
<path d="M355.518 197.399L355.518 198.268C355.518 198.682 355.621 198.989 355.828 199.188C356.035 199.388 356.31 199.487 356.653 199.487C356.984 199.487 357.242 199.388 357.426 199.188C357.61 198.992 357.703 198.722 357.703 198.375C357.703 198.063 357.616 197.802 357.443 197.591C357.274 197.38 357.051 197.275 356.777 197.275L356.777 195.644C357.206 195.644 357.59 195.758 357.928 195.988C358.271 196.221 358.538 196.545 358.73 196.959C358.922 197.376 359.018 197.835 359.018 198.336C359.018 199.205 358.809 199.886 358.391 200.379C357.977 200.872 357.405 201.118 356.675 201.118C356.299 201.118 355.953 201.004 355.636 200.774C355.32 200.545 355.078 200.244 354.908 199.871C354.743 200.334 354.494 200.678 354.163 200.904C353.832 201.133 353.441 201.248 352.989 201.248C352.259 201.248 351.674 200.981 351.233 200.447C350.793 199.916 350.573 199.213 350.573 198.336C350.573 197.516 350.789 196.844 351.222 196.321C351.655 195.802 352.227 195.542 352.938 195.542L352.938 197.173C352.63 197.173 352.377 197.288 352.182 197.517C351.986 197.751 351.888 198.037 351.888 198.375C351.888 198.763 351.99 199.066 352.193 199.284C352.4 199.506 352.673 199.617 353.012 199.617C353.832 199.617 354.242 199.166 354.242 198.263L354.242 197.399L355.518 197.399Z" fill="#4B5D86"/>
<path d="M343.544 244.184L345.274 238.824L346.338 239.167L348.218 242.567C348.485 243.037 348.734 243.4 348.964 243.656C349.192 243.916 349.434 244.087 349.688 244.169C350.036 244.281 350.336 244.281 350.59 244.169C350.847 244.058 351.028 243.84 351.133 243.514C351.247 243.163 351.214 242.846 351.037 242.564C350.862 242.286 350.577 242.083 350.183 241.956L350.686 240.398C351.162 240.552 351.561 240.805 351.882 241.158C352.202 241.514 352.406 241.936 352.494 242.423C352.585 242.911 352.546 243.418 352.376 243.945C352.116 244.75 351.721 245.313 351.191 245.632C350.66 245.955 350.041 246.002 349.336 245.775C348.949 245.65 348.587 245.423 348.251 245.093C347.915 244.763 347.558 244.268 347.182 243.609L345.881 241.226L344.795 244.588L343.544 244.184Z" fill="#4B5D86"/>
<path d="M344.948 250.898C343.866 250.549 343.111 250.058 342.682 249.426C342.254 248.793 342.179 248.045 342.457 247.182C342.732 246.33 343.224 245.769 343.932 245.499C344.64 245.23 345.52 245.259 346.573 245.587L348.013 246.051C349.105 246.404 349.861 246.897 350.282 247.531C350.701 248.168 350.773 248.913 350.498 249.765C350.222 250.617 349.731 251.178 349.023 251.448C348.319 251.719 347.44 251.69 346.387 251.363L344.948 250.898ZM347.028 249.855C347.676 250.065 348.176 250.127 348.528 250.043C348.881 249.963 349.119 249.735 349.24 249.359C349.358 248.994 349.304 248.678 349.078 248.411C348.854 248.149 348.445 247.917 347.85 247.713L345.948 247.099C345.311 246.893 344.809 246.826 344.442 246.898C344.077 246.974 343.833 247.203 343.709 247.586C343.587 247.966 343.647 248.288 343.89 248.552C344.133 248.816 344.559 249.051 345.169 249.256L347.028 249.855Z" fill="#4B5D86"/>
<path d="M327.465 288.421L326.937 289.112C326.686 289.44 326.582 289.747 326.625 290.031C326.668 290.315 326.826 290.561 327.098 290.769C327.361 290.97 327.627 291.048 327.894 291.001C328.16 290.958 328.397 290.798 328.608 290.523C328.797 290.275 328.888 290.015 328.878 289.743C328.871 289.472 328.759 289.254 328.541 289.087L329.532 287.791C329.873 288.052 330.108 288.376 330.237 288.764C330.368 289.157 330.383 289.577 330.284 290.022C330.183 290.47 329.981 290.893 329.677 291.291C329.149 291.981 328.569 292.396 327.938 292.533C327.309 292.674 326.705 292.522 326.125 292.079C325.826 291.85 325.621 291.549 325.509 291.174C325.398 290.8 325.388 290.413 325.479 290.015C325.067 290.282 324.66 290.404 324.26 290.383C323.857 290.364 323.477 290.217 323.118 289.943C322.538 289.5 322.235 288.932 322.21 288.24C322.183 287.551 322.435 286.859 322.968 286.162C323.466 285.511 324.046 285.109 324.708 284.956C325.367 284.806 325.979 284.947 326.544 285.379L325.553 286.675C325.308 286.488 325.038 286.426 324.743 286.489C324.446 286.556 324.194 286.723 323.989 286.992C323.753 287.3 323.65 287.603 323.679 287.899C323.708 288.202 323.858 288.455 324.127 288.661C324.779 289.159 325.379 289.05 325.927 288.332L326.452 287.646L327.465 288.421Z" fill="#4B5D86"/>
<path d="M318.547 292.13L319.538 290.834L324.533 294.653L325.236 292.739L326.29 293.545L325.191 296.989L325.085 297.128L318.547 292.13Z" fill="#4B5D86"/>
<path d="M285.343 322.154L290.103 319.14L290.701 320.084L289.971 323.9C289.876 324.432 289.835 324.87 289.848 325.214C289.857 325.56 289.934 325.846 290.077 326.071C290.272 326.38 290.503 326.572 290.769 326.648C291.038 326.727 291.317 326.676 291.606 326.492C291.918 326.295 292.096 326.031 292.14 325.7C292.183 325.374 292.094 325.037 291.872 324.687L293.255 323.811C293.523 324.234 293.668 324.684 293.689 325.16C293.707 325.639 293.594 326.093 293.35 326.524C293.108 326.958 292.753 327.323 292.286 327.618C291.571 328.071 290.907 328.251 290.295 328.157C289.68 328.066 289.175 327.707 288.778 327.08C288.561 326.737 288.428 326.331 288.381 325.862C288.333 325.394 288.376 324.785 288.508 324.038L289.033 321.374L286.047 323.265L285.343 322.154Z" fill="#4B5D86"/>
<path d="M280.223 325.396L284.983 322.382L285.581 323.326L284.851 327.142C284.756 327.674 284.715 328.112 284.728 328.456C284.737 328.802 284.813 329.088 284.956 329.313C285.152 329.622 285.383 329.814 285.649 329.89C285.918 329.969 286.197 329.918 286.486 329.734C286.798 329.537 286.975 329.273 287.02 328.942C287.063 328.616 286.974 328.279 286.752 327.929L288.135 327.053C288.403 327.476 288.548 327.926 288.569 328.402C288.587 328.881 288.474 329.335 288.23 329.766C287.988 330.2 287.633 330.565 287.166 330.86C286.45 331.313 285.787 331.493 285.175 331.399C284.56 331.308 284.055 330.949 283.658 330.322C283.44 329.979 283.308 329.573 283.261 329.104C283.213 328.636 283.256 328.027 283.388 327.28L283.912 324.616L280.927 326.507L280.223 325.396Z" fill="#4B5D86"/>
<path d="M240.576 342.736L246.018 341.278L246.307 342.357L244.472 345.782C244.223 346.262 244.053 346.668 243.963 347C243.869 347.333 243.857 347.628 243.926 347.886C244.02 348.239 244.183 348.491 244.415 348.643C244.648 348.799 244.93 348.833 245.26 348.744C245.617 348.649 245.865 348.45 246.006 348.147C246.144 347.849 246.16 347.5 246.053 347.1L247.634 346.677C247.764 347.16 247.768 347.632 247.646 348.093C247.52 348.555 247.277 348.956 246.915 349.294C246.555 349.636 246.108 349.879 245.573 350.022C244.756 350.241 244.069 350.214 243.513 349.943C242.953 349.672 242.577 349.179 242.386 348.463C242.28 348.07 242.275 347.643 242.369 347.181C242.464 346.72 242.686 346.152 243.035 345.478L244.33 343.092L240.917 344.006L240.576 342.736Z" fill="#4B5D86"/>
<path d="M237.328 347.007C237.631 346.493 238.057 346.163 238.606 346.016C239.307 345.828 239.933 345.917 240.483 346.284C241.035 346.655 241.42 347.249 241.639 348.067C241.778 348.586 241.793 349.093 241.684 349.585C241.571 350.083 241.344 350.506 241.001 350.855C240.659 351.208 240.234 351.452 239.725 351.589C239.202 351.729 238.701 351.723 238.224 351.57C237.747 351.417 237.33 351.126 236.973 350.696C236.616 350.265 236.351 349.734 236.178 349.103L236.021 348.52C235.667 347.197 235.717 346.069 236.173 345.137C236.628 344.205 237.452 343.551 238.645 343.177L239.031 343.068L239.383 344.382L239.036 344.481C237.682 344.91 237.113 345.752 237.328 347.007ZM238.541 347.325C238.287 347.393 238.086 347.517 237.94 347.696C237.789 347.877 237.692 348.072 237.647 348.283L237.821 348.932C237.964 349.466 238.177 349.853 238.459 350.093C238.742 350.333 239.054 350.407 239.395 350.315C239.712 350.231 239.933 350.016 240.058 349.67C240.185 349.329 240.19 348.94 240.073 348.504C239.957 348.071 239.763 347.741 239.492 347.514C239.218 347.291 238.901 347.228 238.541 347.325Z" fill="#4B5D86"/>
<path d="M191.067 346.335L196.696 346.583L196.646 347.7L193.865 350.413C193.483 350.796 193.199 351.131 193.013 351.421C192.823 351.71 192.722 351.988 192.71 352.255C192.694 352.619 192.774 352.909 192.949 353.124C193.124 353.343 193.382 353.46 193.725 353.475C194.093 353.491 194.39 353.376 194.616 353.13C194.837 352.887 194.957 352.559 194.975 352.146L196.611 352.218C196.589 352.718 196.45 353.169 196.195 353.572C195.936 353.975 195.584 354.284 195.137 354.497C194.691 354.715 194.191 354.812 193.638 354.787C192.793 354.75 192.145 354.518 191.697 354.091C191.245 353.665 191.035 353.081 191.068 352.341C191.086 351.935 191.209 351.526 191.439 351.114C191.668 350.702 192.05 350.228 192.586 349.69L194.54 347.805L191.009 347.649L191.067 346.335Z" fill="#4B5D86"/>
<path d="M185.023 352.108C185.041 351.71 185.156 351.361 185.369 351.061C185.582 350.762 185.867 350.528 186.225 350.359C185.835 350.149 185.531 349.871 185.313 349.522C185.094 349.177 184.995 348.777 185.015 348.322C185.047 347.593 185.321 347.027 185.836 346.624C186.351 346.225 187.035 346.044 187.888 346.082C188.742 346.12 189.409 346.362 189.89 346.809C190.372 347.255 190.596 347.842 190.564 348.567C190.544 349.022 190.41 349.413 190.162 349.741C189.914 350.069 189.589 350.319 189.186 350.489C189.527 350.689 189.791 350.947 189.976 351.264C190.158 351.581 190.24 351.939 190.223 352.337C190.192 353.036 189.934 353.582 189.45 353.975C188.965 354.372 188.323 354.553 187.522 354.518C186.725 354.482 186.102 354.248 185.654 353.814C185.202 353.383 184.992 352.815 185.023 352.108ZM186.645 348.513C186.63 348.87 186.72 349.16 186.918 349.384C187.115 349.607 187.389 349.726 187.738 349.742C188.084 349.757 188.365 349.662 188.581 349.457C188.797 349.256 188.913 348.974 188.929 348.614C188.945 348.264 188.856 347.978 188.662 347.754C188.469 347.531 188.191 347.412 187.83 347.396C187.477 347.38 187.196 347.471 186.988 347.669C186.776 347.867 186.661 348.148 186.645 348.513ZM186.657 352.101C186.642 352.42 186.716 352.68 186.877 352.879C187.037 353.082 187.272 353.19 187.58 353.204C187.884 353.217 188.125 353.134 188.303 352.953C188.48 352.773 188.576 352.517 188.591 352.186C188.605 351.859 188.532 351.592 188.372 351.386C188.212 351.179 187.977 351.069 187.669 351.055C187.361 351.042 187.119 351.131 186.945 351.323C186.767 351.514 186.671 351.774 186.657 352.101Z" fill="#4B5D86"/>
<path d="M145.09 339.582L144.295 339.229C143.917 339.061 143.595 339.032 143.328 339.14C143.062 339.248 142.859 339.459 142.72 339.772C142.586 340.074 142.573 340.35 142.68 340.6C142.784 340.848 142.994 341.042 143.311 341.182C143.596 341.309 143.871 341.336 144.133 341.263C144.395 341.194 144.581 341.034 144.693 340.783L146.184 341.444C146.01 341.837 145.749 342.141 145.402 342.357C145.05 342.575 144.645 342.688 144.189 342.696C143.729 342.702 143.271 342.603 142.813 342.4C142.019 342.048 141.481 341.58 141.2 340.999C140.917 340.42 140.924 339.798 141.22 339.131C141.373 338.787 141.618 338.517 141.956 338.321C142.294 338.125 142.668 338.026 143.077 338.022C142.721 337.683 142.507 337.316 142.435 336.922C142.36 336.526 142.414 336.122 142.597 335.709C142.893 335.042 143.375 334.616 144.042 334.43C144.705 334.243 145.438 334.327 146.239 334.683C146.989 335.016 147.515 335.486 147.818 336.093C148.117 336.7 148.122 337.328 147.834 337.978L146.343 337.316C146.468 337.034 146.465 336.757 146.335 336.485C146.201 336.212 145.979 336.006 145.67 335.869C145.315 335.711 144.997 335.681 144.715 335.779C144.428 335.878 144.216 336.082 144.079 336.392C143.746 337.141 143.992 337.699 144.818 338.066L145.607 338.416L145.09 339.582Z" fill="#4B5D86"/>
<path d="M141.166 336.976L139.038 340.601L134.828 338.733L135.38 337.49L138.367 338.815L139.27 337.283C138.831 337.315 138.413 337.242 138.014 337.065C137.298 336.748 136.836 336.277 136.627 335.653C136.418 335.03 136.491 334.319 136.845 333.521C137.06 333.036 137.357 332.647 137.734 332.353C138.106 332.061 138.531 331.894 139.007 331.85C139.482 331.81 139.979 331.905 140.499 332.135C140.953 332.337 141.334 332.615 141.642 332.97C141.948 333.328 142.14 333.724 142.219 334.158C142.295 334.591 142.245 335.024 142.069 335.457L140.594 334.802C140.702 334.475 140.702 334.183 140.594 333.925C140.481 333.669 140.273 333.474 139.97 333.339C139.633 333.19 139.32 333.195 139.031 333.355C138.74 333.518 138.496 333.822 138.3 334.265C138.11 334.692 138.07 335.065 138.179 335.385C138.288 335.705 138.535 335.951 138.921 336.122C139.275 336.279 139.603 336.314 139.906 336.225L140.11 336.155L141.166 336.976Z" fill="#4B5D86"/>
<path d="M102.33 306.124L106.314 310.107L105.523 310.897L101.639 311.021C101.099 311.045 100.663 311.101 100.33 311.188C99.9949 311.274 99.7327 311.411 99.5438 311.6C99.2857 311.858 99.1486 312.125 99.1327 312.402C99.114 312.681 99.2258 312.942 99.468 313.184C99.7288 313.445 100.025 313.56 100.358 313.531C100.685 313.502 100.995 313.341 101.288 313.048L102.446 314.206C102.092 314.559 101.685 314.799 101.224 314.924C100.761 315.046 100.293 315.036 99.8192 314.892C99.3429 314.751 98.9091 314.485 98.518 314.094C97.9192 313.495 97.5986 312.887 97.556 312.27C97.5107 311.65 97.7502 311.078 98.2745 310.554C98.5619 310.267 98.9291 310.048 99.3762 309.899C99.8232 309.75 100.426 309.659 101.184 309.624L103.899 309.552L101.4 307.054L102.33 306.124Z" fill="#4B5D86"/>
<path d="M93.0271 308.564L93.9771 307.614L94.0889 307.726C94.6184 308.239 95.1746 308.524 95.7574 308.58C96.3375 308.633 96.8936 308.458 97.4259 308.053C96.8032 308.058 96.2563 307.826 95.7853 307.355C95.2797 306.849 95.0588 306.266 95.1227 305.607C95.1866 304.947 95.5139 304.322 96.1046 303.731C96.4825 303.353 96.907 303.094 97.378 302.953C97.8463 302.809 98.316 302.802 98.787 302.933C99.2553 303.06 99.6785 303.313 100.056 303.691C100.668 304.303 100.95 305.011 100.903 305.814C100.852 306.615 100.471 307.371 99.761 308.081L99.3458 308.496C98.7152 309.127 98.0406 309.564 97.3221 309.809C96.5983 310.054 95.8824 310.086 95.1746 309.905C94.4614 309.724 93.8095 309.341 93.2187 308.756L93.0271 308.564ZM97.0626 306.78C97.2489 306.966 97.4671 307.086 97.7172 307.139C97.9647 307.195 98.2042 307.179 98.4357 307.091L98.787 306.74C99.1729 306.354 99.399 305.976 99.4656 305.607C99.5294 305.239 99.4243 304.919 99.1502 304.645C98.9028 304.397 98.606 304.295 98.2601 304.338C97.9088 304.38 97.5775 304.557 97.2662 304.868C96.9495 305.185 96.7712 305.518 96.7313 305.866C96.6914 306.215 96.8018 306.519 97.0626 306.78Z" fill="#4B5D86"/>
<path d="M64.3517 245.707L64.7957 247.276L58.7445 248.987L59.8557 250.697L58.5792 251.058L56.4795 248.114L56.4319 247.946L64.3517 245.707Z" fill="#4B5D86"/>
<path d="M59.8255 244.555L55.6768 245.235L54.4233 240.803L55.7324 240.433L56.6218 243.578L58.3773 243.292C58.0727 242.976 57.861 242.607 57.7422 242.187C57.5291 241.434 57.5958 240.778 57.9421 240.219C58.2884 239.659 58.8816 239.261 59.7217 239.023C60.2323 238.879 60.7211 238.858 61.1882 238.961C61.6506 239.061 62.0509 239.28 62.3891 239.618C62.7236 239.958 62.9682 240.401 63.1229 240.948C63.2581 241.425 63.2876 241.896 63.2114 242.36C63.1316 242.824 62.9498 243.225 62.6661 243.564C62.3814 243.898 62.0166 244.136 61.5717 244.278L61.1323 242.725C61.4526 242.599 61.6775 242.412 61.8069 242.164C61.9316 241.914 61.9489 241.629 61.8588 241.311C61.7584 240.956 61.5544 240.718 61.2466 240.598C60.9352 240.479 60.5459 240.485 60.0788 240.618C59.6297 240.745 59.3169 240.952 59.1404 241.241C58.9639 241.529 58.933 241.876 59.0477 242.282C59.1532 242.655 59.3365 242.929 59.5975 243.106L59.7818 243.218L59.8255 244.555Z" fill="#4B5D86"/>
<path d="M54.4332 191.943L54.4949 191.014L55.8073 191.101L55.7456 192.03L57.5198 192.148L57.4117 193.776L55.6374 193.658L55.4141 197.02L54.3841 197.025L49.2095 193.248L49.3188 191.604L54.4332 191.943ZM54.2046 195.384L54.325 193.571L51.4299 193.378L51.6087 193.498L54.2046 195.384Z" fill="#4B5D86"/>
<path d="M68.648 143.247L66.5516 148.475L65.5142 148.059L63.8733 144.537C63.6389 144.05 63.4159 143.671 63.2044 143.399C62.9942 143.125 62.7652 142.938 62.5172 142.838C62.1783 142.702 61.8785 142.682 61.6178 142.776C61.3536 142.868 61.1577 143.074 61.0303 143.391C60.8931 143.734 60.9033 144.052 61.061 144.346C61.2166 144.636 61.4865 144.857 61.8708 145.011L61.2616 146.531C60.797 146.344 60.4167 146.064 60.1207 145.69C59.8261 145.313 59.6517 144.878 59.5976 144.386C59.54 143.893 59.6141 143.389 59.82 142.876C60.1351 142.09 60.5681 141.556 61.119 141.274C61.6713 140.989 62.2915 140.984 62.9796 141.26C63.3569 141.411 63.7019 141.663 64.0147 142.016C64.3275 142.368 64.6489 142.886 64.9789 143.57L66.1122 146.037L67.4272 142.757L68.648 143.247Z" fill="#4B5D86"/>
<path d="M92.1708 105.184L91.1087 106.422L86.3353 102.329L85.5259 104.2L84.5189 103.337L85.8093 99.9599L85.9233 99.8271L92.1708 105.184Z" fill="#4B5D86"/>
<path d="M91.6297 94.5961L95.1055 101.763L93.9847 103.069L90.8211 96.1631L88.1604 99.265L87.1578 98.4052L90.9355 94.0009L91.6297 94.5961Z" fill="#4B5D86"/>
<path d="M128.964 63.9722L129.531 65.19L129.388 65.2567C128.724 65.5782 128.266 66.0031 128.014 66.5314C127.765 67.0581 127.74 67.6407 127.937 68.2792C128.146 67.6924 128.552 67.2585 129.156 66.9774C129.804 66.6756 130.427 66.6678 131.025 66.9538C131.623 67.2399 132.099 67.7615 132.451 68.5188C132.677 69.0032 132.775 69.4908 132.746 69.9815C132.721 70.4707 132.566 70.9141 132.283 71.3119C132.002 71.7081 131.62 72.0189 131.135 72.2445C130.35 72.6097 129.589 72.6322 128.85 72.312C128.115 71.9901 127.535 71.3738 127.111 70.463L126.863 69.9309C126.487 69.1225 126.307 68.3389 126.323 67.5801C126.341 66.8163 126.556 66.133 126.969 65.5301C127.383 64.9221 127.966 64.441 128.719 64.0866L128.964 63.9722ZM129.258 68.3741C129.019 68.4853 128.832 68.6492 128.696 68.866C128.559 69.0793 128.492 69.3097 128.495 69.5573L128.705 70.0076C128.935 70.5022 129.213 70.8441 129.538 71.0333C129.861 71.219 130.198 71.2301 130.549 71.0666C130.867 70.9189 131.064 70.6752 131.143 70.3357C131.223 69.9912 131.171 69.6193 130.985 69.2202C130.796 68.8143 130.544 68.5329 130.23 68.376C129.917 68.2191 129.593 68.2185 129.258 68.3741Z" fill="#4B5D86"/>
<path d="M176.104 55.3759L174.489 55.6066L173.6 49.3822L171.757 50.2555L171.569 48.9425L174.767 47.2542L174.94 47.2295L176.104 55.3759Z" fill="#4B5D86"/>
<path d="M179.14 50.0618L180.001 49.9388C180.41 49.8803 180.699 49.7345 180.868 49.5014C181.036 49.2684 181.096 48.9823 181.047 48.6434C181 48.3156 180.865 48.0745 180.642 47.9202C180.422 47.7654 180.141 47.7124 179.798 47.7614C179.489 47.8055 179.242 47.9282 179.058 48.1293C178.873 48.3268 178.8 48.5614 178.839 48.8334L177.224 49.064C177.163 48.6394 177.223 48.2432 177.402 47.8755C177.585 47.5036 177.867 47.1933 178.25 46.9448C178.636 46.6958 179.077 46.5359 179.573 46.4651C180.433 46.3422 181.137 46.4526 181.684 46.7963C182.231 47.1364 182.556 47.6677 182.659 48.3903C182.712 48.7628 182.648 49.1217 182.465 49.4671C182.283 49.8124 182.019 50.0953 181.674 50.3156C182.156 50.414 182.532 50.6112 182.802 50.907C183.076 51.2024 183.245 51.5735 183.309 52.0205C183.412 52.7431 183.23 53.3602 182.764 53.8715C182.301 54.3824 181.635 54.6998 180.767 54.8238C179.955 54.9398 179.259 54.8206 178.68 54.4662C178.105 54.1113 177.767 53.5818 177.666 52.8778L179.281 52.6471C179.325 52.9526 179.474 53.1859 179.729 53.3471C179.988 53.5078 180.285 53.5642 180.62 53.5164C181.004 53.4615 181.289 53.3181 181.477 53.0861C181.667 52.8499 181.739 52.5641 181.691 52.2289C181.575 51.4168 181.07 51.0747 180.175 51.2024L179.32 51.3245L179.14 50.0618Z" fill="#4B5D86"/>
<path d="M252.908 55.5542L253.716 55.8771C254.1 56.0308 254.423 56.0486 254.685 55.9306C254.947 55.8125 255.142 55.5945 255.269 55.2766C255.392 54.9691 255.395 54.6928 255.279 54.4475C255.165 54.2037 254.948 54.0175 254.627 53.8889C254.337 53.7729 254.062 53.7561 253.802 53.8386C253.543 53.9175 253.363 54.0845 253.261 54.3395L251.746 53.7337C251.905 53.3354 252.154 53.0217 252.493 52.7925C252.837 52.5613 253.237 52.4334 253.693 52.409C254.152 52.3859 254.614 52.4673 255.078 52.6532C255.886 52.976 256.44 53.4229 256.743 53.9937C257.047 54.5611 257.063 55.1837 256.792 55.8614C256.652 56.2108 256.417 56.4896 256.087 56.6978C255.756 56.906 255.386 57.0195 254.978 57.0384C255.346 57.364 255.573 57.7224 255.66 58.1137C255.75 58.5064 255.711 58.9124 255.544 59.3316C255.272 60.0094 254.807 60.4534 254.147 60.6637C253.491 60.8754 252.756 60.8184 251.942 60.4928C251.18 60.1881 250.637 59.7378 250.312 59.1418C249.99 58.5471 249.962 57.9197 250.226 57.2594L251.741 57.8652C251.626 58.1517 251.639 58.4284 251.779 58.6953C251.923 58.9636 252.153 59.1607 252.467 59.2865C252.827 59.4304 253.146 59.4486 253.424 59.341C253.707 59.2313 253.912 59.0192 254.037 58.7048C254.342 57.9432 254.075 57.3947 253.237 57.0593L252.435 56.7386L252.908 55.5542Z" fill="#FF114A"/>
<path d="M261.598 60.5739C261.176 61.629 260.635 62.3487 259.975 62.733C259.314 63.1172 258.563 63.141 257.721 62.8042C256.889 62.4716 256.363 61.943 256.142 61.2184C255.921 60.4938 256.01 59.6176 256.41 58.5898L256.971 57.1854C257.398 56.1198 257.941 55.3991 258.603 55.0232C259.267 54.6487 260.015 54.6278 260.847 54.9604C261.678 55.293 262.205 55.8216 262.425 56.5462C262.648 57.2673 262.559 58.1417 262.16 59.1695L261.598 60.5739ZM260.7 58.4274C260.953 57.7951 261.049 57.3008 260.989 56.9444C260.934 56.586 260.723 56.3334 260.356 56.1866C260 56.0441 259.681 56.0766 259.399 56.2841C259.122 56.4895 258.862 56.8818 258.618 57.4611L257.876 59.3161C257.627 59.938 257.526 60.4344 257.572 60.8055C257.623 61.1744 257.835 61.4336 258.209 61.5832C258.58 61.7313 258.905 61.6932 259.185 61.4689C259.465 61.2447 259.729 60.8352 259.975 60.2406L260.7 58.4274Z" fill="#FF114A"/>
<path d="M297.22 86.0969L292.982 82.3857L293.718 81.545L297.585 81.1651C298.123 81.1055 298.555 81.0209 298.881 80.9113C299.21 80.8042 299.462 80.6502 299.638 80.4492C299.879 80.1747 299.998 79.8988 299.995 79.6216C299.996 79.3417 299.867 79.0889 299.609 78.8633C299.332 78.6203 299.028 78.5244 298.698 78.5756C298.373 78.6264 298.075 78.8075 297.802 79.1189L296.57 78.0405C296.9 77.664 297.291 77.3982 297.742 77.243C298.196 77.0903 298.664 77.07 299.146 77.1821C299.63 77.2913 300.081 77.5281 300.497 77.8926C301.134 78.4504 301.494 79.0358 301.577 79.6489C301.663 80.2645 301.462 80.8511 300.974 81.4088C300.706 81.7145 300.354 81.9564 299.918 82.1346C299.482 82.3128 298.886 82.4442 298.132 82.5288L295.428 82.7797L298.086 85.1076L297.22 86.0969Z" fill="#FF114A"/>
<path d="M301.973 83.8368L302.627 84.4095C302.938 84.6822 303.237 84.8064 303.524 84.7821C303.81 84.7579 304.066 84.6169 304.292 84.3593C304.51 84.1102 304.605 83.8507 304.576 83.5806C304.551 83.313 304.408 83.0651 304.147 82.837C303.912 82.6313 303.658 82.5241 303.386 82.5154C303.116 82.504 302.89 82.6016 302.709 82.8082L301.482 81.7335C301.764 81.4108 302.104 81.1977 302.5 81.0942C302.901 80.9903 303.32 81.0026 303.758 81.1309C304.199 81.2617 304.607 81.492 304.984 81.8217C305.638 82.3944 306.013 83.0002 306.108 83.6392C306.206 84.2753 306.015 84.8679 305.534 85.417C305.286 85.7001 304.972 85.8849 304.591 85.9714C304.21 86.058 303.823 86.0422 303.431 85.9242C303.67 86.3537 303.766 86.7673 303.718 87.1651C303.672 87.5655 303.501 87.9355 303.203 88.2751C302.722 88.8243 302.135 89.0884 301.443 89.0675C300.754 89.0492 300.08 88.7512 299.42 88.1735C298.803 87.6331 298.44 87.0278 298.332 86.3577C298.226 85.6901 298.408 85.0888 298.876 84.5538L300.103 85.6285C299.9 85.8606 299.82 86.1258 299.864 86.4243C299.911 86.7251 300.061 86.9872 300.316 87.2103C300.608 87.4656 300.903 87.5888 301.201 87.5797C301.504 87.5703 301.767 87.4382 301.991 87.1835C302.531 86.5664 302.462 85.9604 301.782 85.3654L301.132 84.7964L301.973 83.8368Z" fill="#FF114A"/>
<path d="M332.005 119.673L335.65 117.58L338.38 121.289L337.285 122.095L335.347 119.463L333.804 120.346C334.2 120.536 334.528 120.807 334.787 121.158C335.251 121.788 335.419 122.426 335.291 123.072C335.163 123.717 334.747 124.298 334.044 124.816C333.617 125.13 333.166 125.321 332.693 125.389C332.225 125.458 331.773 125.393 331.338 125.195C330.905 124.995 330.521 124.666 330.184 124.208C329.889 123.808 329.697 123.378 329.605 122.917C329.517 122.454 329.546 122.014 329.693 121.598C329.842 121.185 330.1 120.834 330.467 120.545L331.424 121.845C331.168 122.076 331.023 122.329 330.989 122.607C330.96 122.885 331.044 123.157 331.24 123.424C331.459 123.721 331.733 123.872 332.063 123.876C332.397 123.879 332.759 123.736 333.15 123.448C333.526 123.172 333.746 122.867 333.81 122.535C333.874 122.203 333.781 121.868 333.531 121.528C333.301 121.216 333.033 121.023 332.727 120.95L332.515 120.909L332.005 119.673Z" fill="#FF114A"/>
<path d="M346.964 167.536L346.665 165.932L352.846 164.777L351.895 162.974L353.199 162.73L355.023 165.852L355.055 166.024L346.964 167.536Z" fill="#FF114A"/>
<path d="M356.325 172.422L355.005 172.668L354.976 172.513C354.829 171.79 354.531 171.241 354.082 170.866C353.634 170.494 353.075 170.325 352.408 170.358C352.924 170.705 353.244 171.206 353.366 171.861C353.498 172.563 353.351 173.169 352.925 173.677C352.499 174.186 351.876 174.516 351.055 174.67C350.529 174.768 350.033 174.742 349.564 174.592C349.097 174.446 348.706 174.186 348.391 173.813C348.076 173.443 347.87 172.995 347.772 172.47C347.613 171.619 347.78 170.876 348.274 170.24C348.768 169.608 349.509 169.2 350.497 169.015L351.074 168.907C351.951 168.743 352.755 168.763 353.486 168.967C354.221 169.174 354.83 169.553 355.312 170.102C355.798 170.654 356.119 171.339 356.276 172.155L356.325 172.422ZM351.988 171.613C351.939 171.354 351.827 171.132 351.651 170.947C351.478 170.761 351.272 170.639 351.031 170.58L350.543 170.672C350.006 170.772 349.606 170.956 349.342 171.223C349.082 171.49 348.987 171.814 349.059 172.195C349.123 172.539 349.31 172.791 349.619 172.951C349.933 173.115 350.307 173.156 350.739 173.075C351.18 172.993 351.515 172.819 351.745 172.554C351.975 172.289 352.056 171.976 351.988 171.613Z" fill="#FF114A"/>
<path d="M349.275 220.005L349.512 218.391L355.734 219.307L355.42 217.292L356.732 217.486L357.443 221.03L357.417 221.203L349.275 220.005Z" fill="#FF114A"/>
<path d="M335.691 264.676L336.452 263.233L342.014 266.166L342.388 264.162L343.562 264.781L343.052 268.36L342.971 268.515L335.691 264.676Z" fill="#FF114A"/>
<path d="M335.197 272.243L334.762 273.066L333.599 272.453L334.034 271.629L332.461 270.8L333.222 269.357L334.795 270.186L336.367 267.206L337.31 267.62L340.5 273.175L339.731 274.633L335.197 272.243ZM336.806 269.192L335.958 270.8L338.524 272.153L338.41 271.971L336.806 269.192Z" fill="#FF114A"/>
<path d="M306.301 309.315C306.341 308.72 306.573 308.234 306.997 307.856C307.54 307.373 308.139 307.172 308.795 307.253C309.454 307.336 310.065 307.694 310.628 308.326C310.986 308.728 311.227 309.174 311.351 309.663C311.474 310.158 311.461 310.639 311.311 311.104C311.164 311.573 310.894 311.982 310.5 312.333C310.096 312.693 309.646 312.912 309.151 312.99C308.656 313.068 308.152 312.995 307.64 312.771C307.128 312.546 306.653 312.191 306.214 311.705L305.813 311.253C304.902 310.231 304.44 309.2 304.429 308.163C304.417 307.126 304.86 306.172 305.758 305.302L306.053 305.031L306.958 306.047L306.692 306.291C305.675 307.282 305.545 308.29 306.301 309.315ZM307.528 309.054C307.331 309.229 307.207 309.43 307.157 309.656C307.104 309.885 307.104 310.104 307.159 310.312L307.606 310.814C307.973 311.227 308.337 311.477 308.698 311.564C309.058 311.652 309.37 311.578 309.634 311.343C309.878 311.125 309.979 310.834 309.937 310.469C309.896 310.107 309.726 309.757 309.426 309.42C309.128 309.086 308.807 308.878 308.462 308.796C308.117 308.721 307.806 308.806 307.528 309.054Z" fill="#FF114A"/>
<path d="M266.154 333.268L267.639 332.592L270.245 338.314L271.767 336.958L272.317 338.165L269.724 340.685L269.565 340.757L266.154 333.268Z" fill="#FF114A"/>
<path d="M261.871 341.849C261.705 341.486 261.649 341.122 261.703 340.759C261.757 340.395 261.905 340.057 262.147 339.745C261.704 339.735 261.306 339.625 260.954 339.413C260.602 339.205 260.333 338.894 260.144 338.48C259.841 337.815 259.828 337.187 260.104 336.594C260.381 336.005 260.908 335.533 261.686 335.179C262.463 334.825 263.168 334.738 263.8 334.917C264.431 335.097 264.898 335.517 265.199 336.178C265.388 336.592 265.446 337.002 265.374 337.407C265.302 337.811 265.125 338.181 264.844 338.516C265.239 338.539 265.591 338.65 265.9 338.848C266.206 339.047 266.442 339.329 266.607 339.692C266.897 340.329 266.916 340.932 266.663 341.502C266.411 342.076 265.921 342.529 265.191 342.861C264.465 343.191 263.804 343.265 263.208 343.082C262.61 342.903 262.164 342.492 261.871 341.849ZM261.683 337.909C261.831 338.234 262.044 338.452 262.321 338.561C262.598 338.671 262.896 338.653 263.215 338.508C263.53 338.364 263.737 338.152 263.836 337.871C263.937 337.594 263.913 337.29 263.763 336.962C263.618 336.643 263.409 336.429 263.135 336.318C262.861 336.207 262.56 336.226 262.231 336.376C261.909 336.522 261.7 336.731 261.605 337.002C261.505 337.275 261.531 337.577 261.683 337.909ZM263.323 341.101C263.455 341.392 263.638 341.589 263.872 341.694C264.107 341.802 264.365 341.792 264.646 341.664C264.923 341.538 265.1 341.354 265.176 341.112C265.252 340.871 265.222 340.6 265.085 340.298C264.949 340 264.763 339.796 264.526 339.684C264.289 339.573 264.03 339.581 263.749 339.709C263.469 339.837 263.294 340.026 263.226 340.276C263.155 340.528 263.187 340.803 263.323 341.101Z" fill="#FF114A"/>
<path d="M213.885 354.287L216.418 346.736L218.134 346.586L215.56 353.733L219.631 353.379L219.746 354.695L213.965 355.198L213.885 354.287Z" fill="#FF114A"/>
<path d="M168.386 342.553L169.965 342.965L168.374 349.048L170.411 348.957L170.075 350.24L166.473 350.558L166.304 350.514L168.386 342.553Z" fill="#FF114A"/>
<path d="M160.906 340.597L166.357 342.022L166.074 343.103L162.785 345.172C162.331 345.465 161.982 345.734 161.74 345.978C161.493 346.221 161.336 346.471 161.269 346.73C161.176 347.083 161.193 347.383 161.319 347.63C161.444 347.88 161.673 348.049 162.004 348.135C162.361 348.229 162.675 348.179 162.947 347.985C163.215 347.795 163.401 347.499 163.506 347.099L165.09 347.513C164.963 347.997 164.733 348.409 164.399 348.75C164.061 349.089 163.651 349.317 163.17 349.432C162.688 349.551 162.179 349.54 161.644 349.401C160.825 349.186 160.241 348.824 159.892 348.312C159.54 347.8 159.457 347.186 159.645 346.468C159.748 346.075 159.954 345.702 160.265 345.347C160.575 344.993 161.049 344.609 161.686 344.196L163.992 342.763L160.574 341.869L160.906 340.597Z" fill="#FF114A"/>
<path d="M119.41 326.032L118.723 325.5C118.396 325.246 118.09 325.14 117.806 325.181C117.521 325.223 117.274 325.379 117.064 325.649C116.862 325.911 116.782 326.176 116.827 326.444C116.869 326.709 117.026 326.948 117.3 327.16C117.547 327.351 117.807 327.443 118.079 327.436C118.35 327.431 118.569 327.32 118.737 327.103L120.027 328.102C119.764 328.441 119.438 328.674 119.049 328.801C118.655 328.929 118.235 328.942 117.79 328.84C117.343 328.736 116.921 328.53 116.525 328.224C115.838 327.691 115.428 327.109 115.294 326.477C115.158 325.848 115.314 325.245 115.761 324.668C115.992 324.37 116.295 324.167 116.67 324.058C117.045 323.949 117.432 323.941 117.83 324.036C117.565 323.621 117.445 323.214 117.47 322.814C117.491 322.412 117.64 322.032 117.917 321.675C118.364 321.098 118.934 320.8 119.626 320.779C120.315 320.756 121.006 321.013 121.699 321.55C122.348 322.053 122.746 322.636 122.894 323.298C123.04 323.958 122.894 324.569 122.459 325.131L121.169 324.132C121.358 323.888 121.422 323.618 121.361 323.323C121.296 323.026 121.13 322.773 120.862 322.566C120.556 322.328 120.254 322.223 119.957 322.25C119.655 322.277 119.4 322.425 119.193 322.693C118.69 323.341 118.796 323.942 119.509 324.495L120.192 325.024L119.41 326.032Z" fill="#FF114A"/>
<path d="M70.5571 272.08L70.1408 271.317C69.9425 270.953 69.7048 270.734 69.4276 270.658C69.1503 270.582 68.8614 270.626 68.5608 270.79C68.27 270.948 68.0915 271.159 68.0252 271.423C67.957 271.683 68.0058 271.965 68.1716 272.269C68.3212 272.543 68.5225 272.731 68.7754 272.833C69.025 272.937 69.2703 272.923 69.5115 272.792L70.2928 274.223C69.9162 274.429 69.5243 274.512 69.117 274.473C68.7046 274.432 68.315 274.276 67.9483 274.004C67.5798 273.73 67.2756 273.372 67.0359 272.933C66.6196 272.17 66.4767 271.472 66.6073 270.839C66.7346 270.209 67.1187 269.718 67.7596 269.369C68.09 269.188 68.4489 269.123 68.8364 269.174C69.2238 269.224 69.5811 269.372 69.9082 269.618C69.8319 269.132 69.885 268.711 70.0676 268.354C70.2484 267.994 70.537 267.706 70.9334 267.49C71.5743 267.14 72.216 267.094 72.8585 267.353C73.4991 267.607 74.0294 268.12 74.4494 268.889C74.8423 269.609 74.974 270.303 74.8446 270.969C74.7134 271.632 74.3356 272.134 73.7112 272.475L72.9299 271.043C73.2008 270.895 73.3672 270.673 73.4291 270.378C73.4891 270.08 73.438 269.782 73.2758 269.485C73.0902 269.144 72.8559 268.927 72.573 268.833C72.2849 268.737 71.9922 268.77 71.6949 268.932C70.9747 269.325 70.8309 269.918 71.2634 270.711L71.6771 271.469L70.5571 272.08Z" fill="#FF114A"/>
<path d="M69.9933 260.958L72.6914 265.903L71.7102 266.438L67.9492 265.462C67.4242 265.332 66.9897 265.263 66.6458 265.253C66.3001 265.24 66.01 265.298 65.7754 265.426C65.455 265.601 65.2481 265.818 65.1547 266.079C65.058 266.342 65.0916 266.624 65.2557 266.924C65.4323 267.248 65.6843 267.443 66.0117 267.509C66.3339 267.573 66.6768 267.506 67.0402 267.308L67.8242 268.745C67.3848 268.984 66.9266 269.099 66.4497 269.089C65.9709 269.076 65.5246 268.934 65.1107 268.662C64.6935 268.393 64.3524 268.015 64.0875 267.53C63.682 266.786 63.5459 266.113 63.6792 265.508C63.8107 264.901 64.2019 264.42 64.8527 264.065C65.2095 263.87 65.6233 263.764 66.0943 263.747C66.5652 263.731 67.1694 263.812 67.9067 263.993L70.5311 264.69L68.8387 261.588L69.9933 260.958Z" fill="#FF114A"/>
<path d="M58.3919 220.884L58.5416 222.508L52.2797 223.085L53.0599 224.969L51.7389 225.091L50.2123 221.814L50.1962 221.639L58.3919 220.884Z" fill="#FF114A"/>
<path d="M54.5776 215.298C55.0326 215.683 55.2861 216.158 55.3383 216.724C55.405 217.447 55.211 218.049 54.7564 218.529C54.2981 219.01 53.6473 219.289 52.8041 219.366C52.2683 219.416 51.7666 219.345 51.2993 219.154C50.8278 218.959 50.4491 218.663 50.1631 218.267C49.8733 217.87 49.7042 217.409 49.6559 216.885C49.6061 216.345 49.6968 215.853 49.9279 215.409C50.1591 214.964 50.5169 214.603 51.0014 214.324C51.4858 214.045 52.0539 213.873 52.7057 213.809L53.3071 213.754C54.6712 213.628 55.7742 213.869 56.6162 214.475C57.4582 215.081 57.9628 216.004 58.1299 217.243L58.1723 217.642L56.8176 217.767L56.7789 217.407C56.5849 216.001 55.8511 215.297 54.5776 215.298ZM54.0592 216.439C54.035 216.177 53.9469 215.959 53.7947 215.784C53.6422 215.605 53.4658 215.476 53.2657 215.396L52.5968 215.458C52.046 215.508 51.6284 215.653 51.3442 215.89C51.06 216.128 50.9342 216.423 50.9666 216.775C50.9967 217.101 51.1713 217.356 51.4904 217.538C51.8058 217.72 52.1884 217.791 52.6381 217.749C53.084 217.708 53.4419 217.573 53.7118 217.344C53.9776 217.112 54.0934 216.81 54.0592 216.439Z" fill="#FF114A"/>
<path d="M60.5079 168.902L59.1301 174.363L58.0464 174.09L55.9489 170.82C55.6514 170.368 55.3796 170.022 55.1337 169.782C54.8887 169.537 54.6366 169.383 54.3775 169.317C54.0236 169.228 53.7237 169.248 53.4779 169.376C53.2285 169.503 53.0619 169.733 52.9781 170.065C52.8879 170.422 52.9407 170.736 53.1363 171.007C53.3293 171.273 53.6264 171.456 54.0278 171.557L53.6275 173.145C53.1422 173.022 52.7278 172.795 52.3844 172.464C52.0419 172.13 51.8109 171.722 51.6914 171.242C51.5683 170.761 51.5744 170.252 51.7097 169.716C51.9168 168.895 52.2744 168.308 52.7826 167.955C53.2918 167.598 53.9058 167.51 54.6247 167.692C55.0187 167.791 55.3944 167.994 55.7515 168.302C56.1087 168.609 56.4965 169.079 56.9151 169.713L58.3684 172.006L59.2326 168.58L60.5079 168.902Z" fill="#FF114A"/>
<path d="M61.5815 164.646L61.1825 166.228L55.0849 164.69L55.1943 166.726L53.908 166.401L53.5582 162.803L53.601 162.634L61.5815 164.646Z" fill="#FF114A"/>
<path d="M78.6959 124.013L75.9545 128.934L74.978 128.39L73.7962 124.689C73.6253 124.176 73.4521 123.772 73.2766 123.476C73.103 123.177 72.8994 122.962 72.666 122.832C72.3471 122.655 72.0524 122.596 71.7818 122.656C71.508 122.715 71.2877 122.894 71.1211 123.193C70.9416 123.515 70.9115 123.832 71.0307 124.144C71.1484 124.451 71.3881 124.705 71.7497 124.906L70.9531 126.336C70.5159 126.093 70.1741 125.767 69.9278 125.358C69.6834 124.946 69.5654 124.493 69.574 123.998C69.5793 123.502 69.7166 123.012 69.9858 122.528C70.3978 121.789 70.8949 121.314 71.477 121.104C72.061 120.891 72.6768 120.965 73.3245 121.325C73.6796 121.523 73.99 121.817 74.2556 122.206C74.5213 122.595 74.7746 123.149 75.0154 123.869L75.8273 126.46L77.5468 123.373L78.6959 124.013Z" fill="#FF114A"/>
<path d="M75.4907 121.462L72.072 119.015L74.3135 114.992L75.502 115.654L73.9116 118.509L75.3563 119.546C75.3641 119.107 75.4742 118.696 75.6866 118.315C76.0675 117.631 76.578 117.213 77.2183 117.062C77.8585 116.91 78.5599 117.047 79.3227 117.471C79.7863 117.73 80.1472 118.06 80.4056 118.462C80.6625 118.859 80.7912 119.297 80.7918 119.776C80.789 120.252 80.6494 120.739 80.3729 121.235C80.1312 121.669 79.8197 122.023 79.4385 122.297C79.0541 122.57 78.6419 122.726 78.2022 122.765C77.7642 122.801 77.3378 122.712 76.9228 122.499L77.7084 121.088C78.024 121.225 78.3151 121.252 78.5817 121.168C78.8468 121.078 79.0599 120.889 79.2211 120.6C79.4006 120.278 79.4237 119.965 79.2907 119.663C79.1543 119.359 78.874 119.089 78.4499 118.852C78.0423 118.625 77.6741 118.552 77.3454 118.631C77.0167 118.711 76.7498 118.935 76.5447 119.303C76.3561 119.642 76.2919 119.966 76.3522 120.275L76.4036 120.484L75.4907 121.462Z" fill="#FF114A"/>
<path d="M104.91 85.0725L105.578 84.5163C105.896 84.2513 106.065 83.9756 106.086 83.6889C106.107 83.4023 106.007 83.1274 105.788 82.8643C105.576 82.6099 105.335 82.4757 105.063 82.4616C104.795 82.4452 104.528 82.5477 104.262 82.7693C104.022 82.9692 103.876 83.203 103.825 83.4709C103.772 83.7359 103.833 83.9739 104.009 84.1849L102.755 85.2289C102.48 84.8993 102.323 84.5309 102.283 84.1238C102.243 83.7114 102.32 83.299 102.516 82.8867C102.714 82.4719 103.005 82.1044 103.39 81.7841C104.058 81.2278 104.715 80.9524 105.361 80.9579C106.005 80.9604 106.56 81.2421 107.027 81.803C107.268 82.0921 107.402 82.4316 107.428 82.8213C107.453 83.2111 107.378 83.5902 107.2 83.9587C107.661 83.7897 108.085 83.7602 108.47 83.8701C108.859 83.9777 109.197 84.2049 109.486 84.5518C109.954 85.1127 110.123 85.7333 109.994 86.4135C109.868 87.0913 109.468 87.7108 108.795 88.2719C108.164 88.7969 107.51 89.0605 106.831 89.0627C106.155 89.0626 105.589 88.7893 105.134 88.2429L106.387 87.1989C106.585 87.436 106.834 87.5563 107.136 87.5597C107.44 87.5607 107.723 87.4529 107.983 87.2361C108.281 86.9881 108.449 86.7162 108.486 86.4204C108.524 86.1193 108.435 85.8386 108.218 85.5784C107.693 84.9482 107.084 84.922 106.39 85.5L105.726 86.0526L104.91 85.0725Z" fill="#FF114A"/>
<path d="M113.112 80.5036L113.828 79.9076L114.67 80.9181L113.954 81.5141L115.092 82.8802L113.839 83.9241L112.701 82.558L110.111 84.7146L109.397 83.9722L108.565 77.6207L109.832 76.5659L113.112 80.5036ZM110.462 82.7107L111.859 81.5476L110.002 79.3185L110.039 79.5302L110.462 82.7107Z" fill="#FF114A"/>
<path d="M153.969 61.199L148.794 63.4248L148.353 62.3983L149.675 58.745C149.853 58.2344 149.962 57.8084 150.004 57.4669C150.049 57.124 150.019 56.8298 149.913 56.5844C149.769 56.2491 149.571 56.0228 149.32 55.9056C149.067 55.7849 148.784 55.7922 148.469 55.9275C148.13 56.0732 147.913 56.306 147.817 56.6258C147.723 56.9406 147.758 57.2881 147.921 57.6684L146.418 58.3152C146.22 57.8554 146.148 57.3886 146.202 56.9148C146.26 56.4394 146.443 56.0083 146.752 55.6215C147.059 55.2313 147.467 54.9269 147.975 54.7083C148.753 54.3738 149.437 54.3009 150.026 54.4899C150.619 54.6773 151.061 55.1115 151.354 55.7924C151.515 56.1657 151.582 56.5876 151.555 57.058C151.528 57.5283 151.39 58.1222 151.141 58.8394L150.203 61.3871L153.45 59.9909L153.969 61.199Z" fill="#FF114A"/>
<path d="M156.609 52.1133L156.576 60.078L154.994 60.7582L155.193 53.1646L151.438 54.7794L150.916 53.5661L156.247 51.2733L156.609 52.1133Z" fill="#FF114A"/>
<path d="M198.836 48.3016H199.705C200.119 48.3016 200.426 48.1982 200.625 47.9912C200.825 47.7843 200.924 47.5096 200.924 47.1672C200.924 46.8361 200.825 46.5783 200.625 46.3939C200.429 46.2096 200.159 46.1174 199.812 46.1174C199.5 46.1174 199.238 46.2039 199.028 46.377C198.817 46.5463 198.712 46.7683 198.712 47.043H197.08C197.08 46.6141 197.195 46.2303 197.424 45.8916C197.658 45.5492 197.981 45.2821 198.395 45.0902C198.813 44.8983 199.272 44.8023 199.773 44.8023C200.642 44.8023 201.323 45.0111 201.816 45.4288C202.309 45.8427 202.556 46.4146 202.556 47.1446C202.556 47.5209 202.441 47.8671 202.211 48.1831C201.982 48.4992 201.681 48.7419 201.308 48.9112C201.771 49.0768 202.115 49.3251 202.341 49.6562C202.571 49.9874 202.686 50.3787 202.686 50.8302C202.686 51.5602 202.418 52.1453 201.884 52.5855C201.353 53.0258 200.65 53.2459 199.773 53.2459C198.952 53.2459 198.281 53.0295 197.758 52.5968C197.238 52.1641 196.979 51.5922 196.979 50.881H198.61C198.61 51.1895 198.725 51.4416 198.954 51.6373C199.188 51.833 199.474 51.9308 199.812 51.9308C200.2 51.9308 200.503 51.8292 200.721 51.626C200.943 51.4191 201.054 51.1463 201.054 50.8076C201.054 49.9874 200.603 49.5772 199.699 49.5772H198.836V48.3016Z" fill="#FF114A"/>
<path d="M207.662 44.8305V46.1738H207.504C206.767 46.1851 206.172 46.377 205.72 46.7495C205.273 47.122 205.003 47.6394 204.913 48.3016C205.35 47.8576 205.901 47.6356 206.567 47.6356C207.282 47.6356 207.85 47.8915 208.272 48.4032C208.693 48.915 208.904 49.5885 208.904 50.4238C208.904 50.9581 208.787 51.4416 208.554 51.8744C208.325 52.3071 207.997 52.6438 207.572 52.8847C207.15 53.1255 206.672 53.2459 206.138 53.2459C205.273 53.2459 204.573 52.9449 204.038 52.3428C203.508 51.7408 203.242 50.9374 203.242 49.9328V49.3458C203.242 48.454 203.41 47.6676 203.745 46.9866C204.083 46.3018 204.567 45.7731 205.195 45.4006C205.828 45.0243 206.56 44.8343 207.391 44.8305H207.662ZM206.07 48.9451C205.807 48.9451 205.568 49.0147 205.353 49.1539C205.139 49.2894 204.981 49.47 204.879 49.6957V50.1924C204.879 50.738 204.986 51.1651 205.201 51.4736C205.416 51.7784 205.717 51.9308 206.104 51.9308C206.454 51.9308 206.736 51.7935 206.951 51.5188C207.169 51.2403 207.278 50.881 207.278 50.4408C207.278 49.993 207.169 49.6318 206.951 49.3571C206.733 49.0824 206.439 48.9451 206.07 48.9451Z" fill="#FF114A"/>
<path d="M81.0823 286.32C82.0112 285.665 82.8572 285.356 83.6204 285.394C84.3836 285.431 85.0265 285.821 85.5491 286.562C86.0652 287.294 86.2185 288.024 86.0088 288.751C85.7992 289.479 85.247 290.165 84.3523 290.81L83.1159 291.682C82.1778 292.343 81.3291 292.651 80.5699 292.606C79.8086 292.558 79.1698 292.168 78.6537 291.436C78.1376 290.705 77.9844 289.975 78.194 289.247C78.4006 288.521 78.9512 287.836 79.8459 287.191L81.0823 286.32ZM80.666 288.609C80.1093 289.002 79.7591 289.364 79.6153 289.695C79.4663 290.026 79.5056 290.352 79.7333 290.675C79.9545 290.989 80.2397 291.136 80.5889 291.115C80.9329 291.093 81.365 290.906 81.8852 290.553L83.5184 289.402C84.0658 289.016 84.4213 288.655 84.5848 288.319C84.7431 287.982 84.7062 287.649 84.4741 287.32C84.2443 286.994 83.9507 286.848 83.5935 286.884C83.2363 286.919 82.7926 287.119 82.2623 287.484L80.666 288.609Z" fill="#419E3F"/>
<path d="M245.23 49.0952L242.552 59.0237L241.87 58.8293L244.548 48.9008L245.23 49.0952Z" fill="#323649"/>
<path d="M270.025 58.1429L265.718 67.4487L265.086 67.1768L269.392 57.871L270.025 58.1429Z" fill="#323649"/>
<path d="M292.947 71.3351L287.118 79.7813L286.539 79.391L292.368 70.9448L292.947 71.3351Z" fill="#323649"/>
<path d="M313.302 88.1871L306.14 95.5454L305.651 95.0817L312.813 87.7235L313.302 88.1871Z" fill="#323649"/>
<path d="M330.523 108.186L322.217 114.228L321.818 113.691L330.124 107.649L330.523 108.186Z" fill="#323649"/>
<path d="M344.167 130.832L334.978 135.419L334.633 134.764L343.822 130.176L344.167 130.832Z" fill="#323649"/>
<path d="M353.769 155.415L343.924 158.364L343.742 157.725L353.588 154.776L353.769 155.415Z" fill="#323649"/>
<path d="M359.104 181.334L348.901 182.552L348.805 181.881L359.008 180.663L359.104 181.334Z" fill="#323649"/>
<path d="M359.969 207.741L349.698 207.217L349.729 206.518L360 207.042L359.969 207.741Z" fill="#323649"/>
<path d="M356.4 233.897L346.383 231.706L346.537 231.02L356.553 233.211L356.4 233.897Z" fill="#323649"/>
<path d="M348.508 259.111L338.996 255.237L339.268 254.604L348.78 258.478L348.508 259.111Z" fill="#323649"/>
<path d="M336.416 282.61L327.686 277.164L328.035 276.581L336.765 282.027L336.416 282.61Z" fill="#323649"/>
<path d="M320.563 303.739L312.884 296.913L313.352 296.383L321.03 303.208L320.563 303.739Z" fill="#323649"/>
<path d="M301.338 321.915L294.939 313.9L295.48 313.46L301.879 321.475L301.338 321.915Z" fill="#323649"/>
<path d="M279.379 336.587L274.401 327.603L275.015 327.253L279.993 336.237L279.379 336.587Z" fill="#323649"/>
<path d="M255.261 347.358L251.843 337.668L252.486 337.445L255.904 347.135L255.261 347.358Z" fill="#323649"/>
<path d="M229.642 353.884L227.922 343.749L228.592 343.653L230.312 353.788L229.642 353.884Z" fill="#323649"/>
<path d="M203.321 356L203.351 345.715L204.054 345.705L204.024 355.99L203.321 356Z" fill="#323649"/>
<path d="M177.011 353.613L178.758 343.506L179.448 343.618L177.702 353.726L177.011 353.613Z" fill="#323649"/>
<path d="M151.476 346.927L154.913 337.242L155.55 337.473L152.113 347.158L151.476 346.927Z" fill="#323649"/>
<path d="M127.46 335.935L132.472 326.992L133.056 327.341L128.043 336.285L127.46 335.935Z" fill="#323649"/>
<path d="M105.618 321.078L112.063 313.068L112.597 313.495L106.152 321.505L105.618 321.078Z" fill="#323649"/>
<path d="M86.5724 302.75L94.2965 295.946L94.7404 296.446L87.0163 303.25L86.5724 302.75Z" fill="#323649"/>
<path d="M70.9292 281.468L79.6624 276.09L80.0161 276.664L71.2788 282.082L70.9292 281.468Z" fill="#323649"/>
<path d="M59.034 257.887L68.5592 254.037L68.8228 254.684L59.2976 258.534L59.034 257.887Z" fill="#323649"/>
<path d="M51.3225 232.59L61.3776 230.407L61.5144 231.082L51.4592 233.265L51.3225 232.59Z" fill="#323649"/>
<path d="M48 206.384L58.2456 205.955L58.2555 206.658L48.0099 207.087L48 206.384Z" fill="#323649"/>
<path d="M49.1177 179.974L59.3128 181.234L59.241 181.929L49.0459 180.669L49.1177 179.974Z" fill="#323649"/>
<path d="M54.6362 154.144L64.4904 157.103L64.3002 157.744L54.446 154.785L54.6362 154.144Z" fill="#323649"/>
<path d="M64.4792 129.627L73.6699 134.211L73.3572 134.84L64.1707 130.215L64.4792 129.627Z" fill="#323649"/>
<path d="M78.2892 107.09L86.5797 113.193L86.1936 113.731L77.9032 107.629L78.2892 107.09Z" fill="#323649"/>
<path d="M95.7448 87.2433L102.87 94.6311L102.366 95.1161L95.2403 87.7283L95.7448 87.2433Z" fill="#323649"/>
<path d="M116.256 70.6043L122.069 79.096L121.491 79.4908L115.678 70.9991L116.256 70.6043Z" fill="#323649"/>
<path d="M139.281 57.6128L143.563 66.938L142.952 67.2468L138.63 57.9174L139.281 57.6128Z" fill="#323649"/>
<path d="M164.115 48.6919L166.764 58.6333L166.085 58.8111L163.436 48.8696L164.115 48.6919Z" fill="#323649"/>
<path d="M190.15 44.1501L191.077 54.3682L190.41 54.4233L189.483 44.2052L190.15 44.1501Z" fill="#323649"/>
<path d="M216.59 44.0717L215.78 54.317L215.085 54.2453L215.896 44L216.59 44.0717Z" fill="#323649"/>
<g opacity="0.4">
<mask id="mask0" mask-type="alpha" maskUnits="userSpaceOnUse" x="71" y="67" width="266" height="266">
<path d="M333.605 200.044C333.605 271.611 275.579 329.628 204 329.628C132.421 329.628 74.3953 271.611 74.3953 200.044C74.3953 128.477 132.421 70.4599 204 70.4599C275.579 70.4599 333.605 128.477 333.605 200.044Z" stroke="white" stroke-width="5"/>
</mask>
<g mask="url(#mask0)">
<path fill-rule="evenodd" clip-rule="evenodd" d="M113.458 121.482C110.579 124.649 105.677 124.882 102.509 122.003L96.9281 116.93C93.7608 114.051 93.5274 109.15 96.4068 105.983C99.2862 102.817 104.188 102.583 107.355 105.462L112.937 110.535C116.104 113.414 116.337 118.315 113.458 121.482Z" fill="#4B5D86"/>
<path fill-rule="evenodd" clip-rule="evenodd" d="M101.594 137.852C99.4228 141.54 94.6721 142.77 90.9832 140.599L84.4829 136.773C80.7941 134.602 79.564 129.852 81.7354 126.164C83.9069 122.476 88.6576 121.246 92.3464 123.417L98.8468 127.243C102.536 129.414 103.766 134.164 101.594 137.852Z" fill="#FF114A"/>
<path fill-rule="evenodd" clip-rule="evenodd" d="M92.4634 155.648C90.9565 159.654 86.487 161.68 82.4805 160.173L75.4204 157.518C71.4138 156.011 69.3875 151.543 70.8944 147.537C72.4013 143.531 76.8708 141.505 80.8773 143.011L87.9374 145.666C91.9439 147.173 93.9702 151.642 92.4634 155.648Z" fill="#4B5D86"/>
<path fill-rule="evenodd" clip-rule="evenodd" d="M86.5188 174.941C85.6727 179.136 81.5853 181.851 77.3892 181.005L69.9951 179.515C65.799 178.669 63.0832 174.582 63.9293 170.387C64.7753 166.191 68.8627 163.476 73.0588 164.322L80.453 165.812C84.649 166.658 87.3648 170.745 86.5188 174.941Z" fill="#FF114A"/>
<path fill-rule="evenodd" clip-rule="evenodd" d="M84.1133 195.14C83.9798 199.418 80.4032 202.778 76.1248 202.644L68.5855 202.409C64.3071 202.275 60.9469 198.699 61.0804 194.422C61.2139 190.144 64.7904 186.784 69.0689 186.918L76.6082 187.153C80.8866 187.286 84.2467 190.862 84.1133 195.14Z" fill="#4B5D86"/>
<path fill-rule="evenodd" clip-rule="evenodd" d="M84.727 215.311C85.3025 219.552 82.3305 223.456 78.0889 224.031L70.6144 225.045C66.3728 225.621 62.4677 222.649 61.8922 218.408C61.3167 214.167 64.2887 210.263 68.5303 209.687L76.0048 208.673C80.2465 208.098 84.1515 211.07 84.727 215.311Z" fill="#FF114A"/>
<path fill-rule="evenodd" clip-rule="evenodd" d="M89.2935 235.518C90.6362 239.582 88.4299 243.964 84.3655 245.307L77.2032 247.673C73.1388 249.015 68.7554 246.809 67.4126 242.746C66.0698 238.682 68.2761 234.299 72.3406 232.956L79.5028 230.591C83.5672 229.248 87.9507 231.454 89.2935 235.518Z" fill="#4B5D86"/>
<path fill-rule="evenodd" clip-rule="evenodd" d="M96.7374 254.168C98.6999 257.972 97.2069 262.646 93.4027 264.608L86.6992 268.065C82.895 270.028 78.2203 268.535 76.2578 264.731C74.2954 260.928 75.7884 256.254 79.5925 254.292L86.296 250.834C90.1002 248.872 94.775 250.365 96.7374 254.168Z" fill="#FF114A"/>
<path fill-rule="evenodd" clip-rule="evenodd" d="M107.024 270.838C109.546 274.296 108.787 279.143 105.328 281.665L99.2335 286.108C95.7748 288.63 90.9265 287.871 88.4045 284.413C85.8825 280.955 86.6418 276.107 90.1004 273.586L96.1951 269.142C99.6538 266.62 104.502 267.38 107.024 270.838Z" fill="#419E3F"/>
<path fill-rule="evenodd" clip-rule="evenodd" d="M120.664 286.647C123.765 289.598 123.886 294.503 120.934 297.603L115.734 303.065C112.782 306.165 107.877 306.286 104.776 303.335C101.676 300.384 101.555 295.479 104.506 292.379L109.707 286.917C112.658 283.817 117.564 283.696 120.664 286.647Z" fill="#4B5D86"/>
<path fill-rule="evenodd" clip-rule="evenodd" d="M136.431 299.36C139.965 301.775 140.872 306.597 138.457 310.13L134.201 316.357C131.785 319.89 126.963 320.797 123.429 318.382C119.894 315.967 118.988 311.145 121.403 307.612L125.659 301.385C128.074 297.852 132.897 296.945 136.431 299.36Z" fill="#FF114A"/>
<path fill-rule="evenodd" clip-rule="evenodd" d="M154.15 309.101C158.087 310.782 159.915 315.336 158.234 319.272L155.271 326.207C153.589 330.143 149.035 331.971 145.099 330.29C141.162 328.609 139.334 324.055 141.015 320.119L143.978 313.184C145.66 309.248 150.214 307.42 154.15 309.101Z" fill="#4B5D86"/>
<path fill-rule="evenodd" clip-rule="evenodd" d="M173.157 316.206C177.298 317.287 179.779 321.521 178.697 325.662L176.791 332.959C175.709 337.1 171.475 339.58 167.333 338.499C163.192 337.417 160.711 333.183 161.793 329.042L163.699 321.746C164.781 317.605 169.015 315.124 173.157 316.206Z" fill="#FF114A"/>
<path fill-rule="evenodd" clip-rule="evenodd" d="M193.247 319.676C197.517 319.971 200.74 323.671 200.445 327.941L199.925 335.465C199.631 339.734 195.93 342.956 191.659 342.662C187.389 342.367 184.166 338.667 184.461 334.397L184.981 326.873C185.275 322.604 188.976 319.381 193.247 319.676Z" fill="#4B5D86"/>
<path fill-rule="evenodd" clip-rule="evenodd" d="M213.925 320.049C218.192 319.707 221.928 322.888 222.27 327.154L222.873 334.672C223.215 338.938 220.033 342.674 215.767 343.016C211.5 343.358 207.764 340.176 207.422 335.91L206.819 328.393C206.477 324.126 209.658 320.391 213.925 320.049Z" fill="#FF114A"/>
<path fill-rule="evenodd" clip-rule="evenodd" d="M233.802 316.798C237.943 315.715 242.179 318.193 243.263 322.333L245.173 329.629C246.257 333.769 243.778 338.004 239.637 339.088C235.496 340.172 231.261 337.694 230.177 333.553L228.267 326.257C227.183 322.117 229.661 317.882 233.802 316.798Z" fill="#4B5D86"/>
<path fill-rule="evenodd" clip-rule="evenodd" d="M253.288 309.686C257.194 307.936 261.78 309.683 263.53 313.588L266.615 320.471C268.366 324.376 266.618 328.961 262.712 330.712C258.806 332.462 254.22 330.715 252.47 326.809L249.385 319.927C247.634 316.021 249.382 311.436 253.288 309.686Z" fill="#FF114A"/>
<path fill-rule="evenodd" clip-rule="evenodd" d="M270.267 300.085C273.821 297.699 278.636 298.644 281.023 302.197L285.229 308.458C287.615 312.011 286.669 316.825 283.116 319.212C279.563 321.598 274.747 320.652 272.361 317.099L268.155 310.839C265.768 307.286 266.714 302.471 270.267 300.085Z" fill="#4B5D86"/>
<path fill-rule="evenodd" clip-rule="evenodd" d="M286.358 286.911C289.449 283.951 294.355 284.057 297.316 287.148L302.533 292.595C305.494 295.686 305.388 300.591 302.297 303.551C299.205 306.512 294.299 306.406 291.338 303.315L286.121 297.868C283.16 294.777 283.266 289.871 286.358 286.911Z" fill="#FF114A"/>
<path fill-rule="evenodd" clip-rule="evenodd" d="M300.116 272.081C302.684 268.657 307.542 267.962 310.967 270.53L317.002 275.053C320.427 277.621 321.122 282.478 318.554 285.902C315.986 289.327 311.128 290.021 307.703 287.454L301.668 282.93C298.243 280.363 297.548 275.506 300.116 272.081Z" fill="#4B5D86"/>
<path fill-rule="evenodd" clip-rule="evenodd" d="M310.752 254.538C312.688 250.72 317.352 249.195 321.17 251.131L327.897 254.542C331.715 256.478 333.241 261.141 331.305 264.958C329.369 268.775 324.704 270.3 320.887 268.365L314.159 264.954C310.342 263.018 308.816 258.355 310.752 254.538Z" fill="#FF114A"/>
<path fill-rule="evenodd" clip-rule="evenodd" d="M317.999 236.174C319.323 232.103 323.695 229.876 327.766 231.199L334.94 233.531C339.01 234.854 341.238 239.226 339.914 243.296C338.591 247.367 334.218 249.594 330.147 248.27L322.974 245.939C318.903 244.616 316.676 240.244 317.999 236.174Z" fill="#4B5D86"/>
<path fill-rule="evenodd" clip-rule="evenodd" d="M322.932 215.884C323.53 211.647 327.451 208.696 331.69 209.295L339.159 210.349C343.397 210.947 346.348 214.868 345.75 219.106C345.151 223.343 341.23 226.294 336.991 225.695L329.523 224.641C325.284 224.043 322.333 220.122 322.932 215.884Z" fill="#FF114A"/>
<path fill-rule="evenodd" clip-rule="evenodd" d="M323.854 196.151C323.806 191.872 327.237 188.363 331.517 188.315L339.059 188.23C343.34 188.182 346.849 191.612 346.897 195.891C346.945 200.171 343.514 203.679 339.234 203.728L331.692 203.813C327.412 203.861 323.903 200.431 323.854 196.151Z" fill="#4B5D86"/>
<path fill-rule="evenodd" clip-rule="evenodd" d="M321.136 175.353C320.226 171.171 322.879 167.043 327.062 166.133L334.432 164.53C338.615 163.62 342.743 166.273 343.653 170.455C344.563 174.637 341.91 178.765 337.728 179.674L330.357 181.278C326.174 182.187 322.046 179.535 321.136 175.353Z" fill="#FF114A"/>
<path fill-rule="evenodd" clip-rule="evenodd" d="M315.584 156.265C313.992 152.292 315.922 147.781 319.895 146.189L326.897 143.384C330.871 141.792 335.382 143.722 336.974 147.695C338.567 151.668 336.636 156.179 332.663 157.771L325.661 160.576C321.687 162.167 317.176 160.237 315.584 156.265Z" fill="#4B5D86"/>
<path fill-rule="evenodd" clip-rule="evenodd" d="M307.054 138.119C304.8 134.481 305.922 129.704 309.56 127.45L315.972 123.478C319.611 121.224 324.388 122.346 326.643 125.984C328.897 129.622 327.775 134.399 324.137 136.653L317.725 140.625C314.086 142.879 309.309 141.757 307.054 138.119Z" fill="#FF114A"/>
<path fill-rule="evenodd" clip-rule="evenodd" d="M294.609 121.333C291.869 118.045 292.312 113.159 295.6 110.419L301.395 105.59C304.683 102.85 309.57 103.293 312.311 106.581C315.051 109.868 314.607 114.755 311.319 117.495L305.525 122.324C302.237 125.064 297.35 124.621 294.609 121.333Z" fill="#4B5D86"/>
<path fill-rule="evenodd" clip-rule="evenodd" d="M280.241 107.238C276.948 104.504 276.496 99.6182 279.231 96.3256L284.05 90.5237C286.784 87.2312 291.671 86.7787 294.964 89.513C298.257 92.2473 298.709 97.133 295.975 100.425L291.156 106.227C288.421 109.52 283.534 109.972 280.241 107.238Z" fill="#FF114A"/>
<path fill-rule="evenodd" clip-rule="evenodd" d="M263.069 95.6272C259.362 93.4871 258.093 88.7476 260.233 85.0412L264.005 78.5101C266.145 74.8038 270.886 73.5341 274.593 75.6743C278.3 77.8144 279.569 82.5539 277.429 86.2603L273.657 92.7914C271.517 96.4977 266.776 97.7673 263.069 95.6272Z" fill="#4B5D86"/>
<path fill-rule="evenodd" clip-rule="evenodd" d="M245.607 87.332C241.6 85.8284 239.57 81.3612 241.074 77.3542L243.724 70.2931C245.227 66.2861 249.695 64.2566 253.703 65.7601C257.711 67.2637 259.741 71.7309 258.237 75.7379L255.587 82.799C254.083 86.806 249.615 88.8355 245.607 87.332Z" fill="#FF114A"/>
<path fill-rule="evenodd" clip-rule="evenodd" d="M225.111 81.8771C220.892 81.1502 218.062 77.1418 218.789 72.9241L220.07 65.492C220.797 61.2743 224.806 58.4445 229.024 59.1714C233.243 59.8983 236.073 63.9067 235.346 68.1243L234.065 75.5565C233.338 79.7742 229.329 82.604 225.111 81.8771Z" fill="#4B5D86"/>
<path fill-rule="evenodd" clip-rule="evenodd" d="M203.165 79.9991C198.885 80.0494 195.375 76.6209 195.324 72.3414L195.236 64.8002C195.185 60.5206 198.614 57.0106 202.894 56.9602C207.175 56.9099 210.685 60.3384 210.736 64.6179L210.824 72.1592C210.875 76.4387 207.446 79.9488 203.165 79.9991Z" fill="#FF114A"/>
<path fill-rule="evenodd" clip-rule="evenodd" d="M182.959 81.5883C178.749 82.3635 174.708 79.5798 173.933 75.3707L172.567 67.9537C171.792 63.7446 174.576 59.7041 178.785 58.929C182.995 58.1538 187.036 60.9375 187.812 65.1466L189.178 72.5636C189.953 76.7727 187.169 80.8132 182.959 81.5883Z" fill="#4B5D86"/>
<path fill-rule="evenodd" clip-rule="evenodd" d="M162.915 86.5538C158.889 88.0074 154.447 85.9225 152.993 81.8971L150.431 74.8037C148.977 70.7783 151.062 66.3366 155.088 64.883C159.114 63.4294 163.557 65.5143 165.01 69.5397L167.572 76.6331C169.026 80.6586 166.941 85.1002 162.915 86.5538Z" fill="#FF114A"/>
<path fill-rule="evenodd" clip-rule="evenodd" d="M144.574 95.4137C140.859 97.54 136.123 96.2526 133.997 92.5384L130.249 85.9932C128.123 82.2789 129.41 77.5442 133.125 75.4179C136.84 73.2916 141.575 74.5789 143.702 78.2932L147.449 84.8384C149.576 88.5526 148.289 93.2874 144.574 95.4137Z" fill="#4B5D86"/>
<path fill-rule="evenodd" clip-rule="evenodd" d="M128.244 106.838C124.984 109.613 120.093 109.22 117.318 105.961L112.428 100.219C109.653 96.96 110.046 92.0691 113.305 89.2947C116.564 86.5203 121.456 86.913 124.231 90.1717L129.121 95.9142C131.896 99.173 131.503 104.064 128.244 106.838Z" fill="#FF114A"/>
</g>
</g>
<mask id="mask1" mask-type="alpha" maskUnits="userSpaceOnUse" x="67" y="63" width="274" height="274">
<path d="M337.575 200.002C337.575 273.761 277.772 333.555 204 333.555C130.228 333.555 70.4252 273.761 70.4252 200.002C70.4252 126.243 130.228 66.4484 204 66.4484C277.772 66.4484 337.575 126.243 337.575 200.002Z" stroke="white" stroke-width="5"/>
</mask>
<g mask="url(#mask1)">
<path fill-rule="evenodd" clip-rule="evenodd" d="M113.444 121.469C110.564 124.637 105.661 124.87 102.494 121.991L96.9113 116.917C93.7435 114.038 93.51 109.136 96.3899 105.968C99.2697 102.801 104.172 102.568 107.34 105.447L112.922 110.521C116.09 113.4 116.324 118.302 113.444 121.469Z" fill="#4B5D86"/>
<path fill-rule="evenodd" clip-rule="evenodd" d="M101.578 137.842C99.4064 141.53 94.6549 142.76 90.9655 140.589L84.4641 136.763C80.7746 134.591 79.5444 129.84 81.7162 126.152C83.888 122.463 88.6394 121.233 92.3289 123.404L98.8302 127.231C102.52 129.402 103.75 134.153 101.578 137.842Z" fill="#FF114A"/>
<path fill-rule="evenodd" clip-rule="evenodd" d="M92.4573 155.645C90.951 159.65 86.4801 161.674 82.4711 160.166L75.4067 157.509C71.3978 156.001 69.3689 151.533 70.8752 147.528C72.3814 143.523 76.8524 141.499 80.8613 143.007L87.9257 145.664C91.9347 147.172 93.9635 151.64 92.4573 155.645Z" fill="#4B5D86"/>
<path fill-rule="evenodd" clip-rule="evenodd" d="M86.4996 174.936C85.6535 179.133 81.5654 181.848 77.3687 181.002L69.9733 179.511C65.7766 178.665 63.0604 174.578 63.9066 170.382C64.7527 166.186 68.8408 163.47 73.0375 164.316L80.4329 165.807C84.6296 166.653 87.3458 170.74 86.4996 174.936Z" fill="#FF114A"/>
<path fill-rule="evenodd" clip-rule="evenodd" d="M84.0942 195.138C83.9607 199.417 80.3836 202.777 76.1045 202.644L68.564 202.408C64.2849 202.275 60.9242 198.698 61.0577 194.42C61.1912 190.141 64.7683 186.781 69.0475 186.915L76.5879 187.15C80.8671 187.283 84.2277 190.86 84.0942 195.138Z" fill="#4B5D86"/>
<path fill-rule="evenodd" clip-rule="evenodd" d="M84.7087 215.313C85.2843 219.555 82.3119 223.46 78.0695 224.036L70.5939 225.05C66.3515 225.625 62.4458 222.653 61.8702 218.412C61.2946 214.17 64.2671 210.265 68.5094 209.689L75.9851 208.675C80.2274 208.1 84.1331 211.072 84.7087 215.313Z" fill="#FF114A"/>
<path fill-rule="evenodd" clip-rule="evenodd" d="M89.2752 235.524C90.6182 239.589 88.4115 243.972 84.3464 245.315L77.1831 247.681C73.118 249.024 68.7339 246.818 67.3909 242.753C66.0479 238.689 68.2546 234.305 72.3197 232.962L79.483 230.596C83.5481 229.253 87.9322 231.46 89.2752 235.524Z" fill="#4B5D86"/>
<path fill-rule="evenodd" clip-rule="evenodd" d="M96.7203 254.176C98.683 257.98 97.1898 262.655 93.3851 264.617L86.6805 268.076C82.8757 270.038 78.2002 268.545 76.2374 264.741C74.2747 260.937 75.7679 256.262 79.5727 254.299L86.2773 250.841C90.082 248.879 94.7575 250.372 96.7203 254.176Z" fill="#FF114A"/>
<path fill-rule="evenodd" clip-rule="evenodd" d="M107.01 270.849C109.532 274.308 108.773 279.156 105.314 281.678L99.2179 286.122C95.7587 288.644 90.9097 287.885 88.3873 284.426C85.8648 280.968 86.6243 276.119 90.0835 273.597L96.1791 269.153C99.6383 266.631 104.487 267.39 107.01 270.849Z" fill="#419E3F"/>
<path fill-rule="evenodd" clip-rule="evenodd" d="M120.651 286.661C123.752 289.613 123.873 294.519 120.921 297.619L115.719 303.082C112.768 306.183 107.861 306.304 104.76 303.352C101.659 300.401 101.538 295.495 104.49 292.395L109.692 286.931C112.643 283.831 117.55 283.71 120.651 286.661Z" fill="#4B5D86"/>
<path fill-rule="evenodd" clip-rule="evenodd" d="M136.421 299.375C139.956 301.79 140.863 306.613 138.447 310.147L134.19 316.374C131.775 319.908 126.951 320.815 123.416 318.4C119.882 315.985 118.975 311.162 121.39 307.628L125.647 301.4C128.063 297.866 132.886 296.959 136.421 299.375Z" fill="#FF114A"/>
<path fill-rule="evenodd" clip-rule="evenodd" d="M154.142 309.119C158.08 310.8 159.908 315.355 158.226 319.291L155.263 326.228C153.581 330.164 149.026 331.992 145.089 330.311C141.152 328.63 139.324 324.075 141.005 320.139L143.969 313.202C145.65 309.266 150.205 307.438 154.142 309.119Z" fill="#4B5D86"/>
<path fill-rule="evenodd" clip-rule="evenodd" d="M173.152 316.224C177.294 317.306 179.775 321.54 178.693 325.682L176.787 332.98C175.705 337.122 171.47 339.602 167.327 338.521C163.185 337.439 160.704 333.205 161.786 329.063L163.692 321.765C164.774 317.623 169.009 315.143 173.152 316.224Z" fill="#FF114A"/>
<path fill-rule="evenodd" clip-rule="evenodd" d="M193.245 319.694C197.516 319.989 200.739 323.69 200.445 327.96L199.925 335.485C199.63 339.756 195.929 342.979 191.658 342.684C187.387 342.389 184.163 338.688 184.458 334.418L184.978 326.893C185.273 322.622 188.974 319.4 193.245 319.694Z" fill="#4B5D86"/>
<path fill-rule="evenodd" clip-rule="evenodd" d="M213.927 320.068C218.194 319.726 221.931 322.907 222.273 327.174L222.876 334.693C223.218 338.96 220.036 342.696 215.768 343.038C211.501 343.38 207.764 340.199 207.422 335.932L206.819 328.413C206.477 324.146 209.659 320.41 213.927 320.068Z" fill="#FF114A"/>
<path fill-rule="evenodd" clip-rule="evenodd" d="M233.807 316.816C237.949 315.732 242.185 318.211 243.269 322.352L245.179 329.649C246.264 333.79 243.785 338.025 239.643 339.109C235.501 340.193 231.265 337.715 230.181 333.574L228.271 326.277C227.187 322.136 229.666 317.9 233.807 316.816Z" fill="#4B5D86"/>
<path fill-rule="evenodd" clip-rule="evenodd" d="M253.295 309.703C257.202 307.953 261.788 309.7 263.539 313.606L266.625 320.49C268.375 324.396 266.628 328.982 262.721 330.732C258.814 332.483 254.228 330.735 252.477 326.829L249.391 319.946C247.641 316.04 249.388 311.454 253.295 309.703Z" fill="#FF114A"/>
<path fill-rule="evenodd" clip-rule="evenodd" d="M270.278 300.101C273.832 297.714 278.649 298.66 281.036 302.213L285.242 308.475C287.629 312.028 286.683 316.844 283.129 319.23C279.575 321.617 274.759 320.671 272.372 317.118L268.166 310.856C265.779 307.303 266.725 302.487 270.278 300.101Z" fill="#4B5D86"/>
<path fill-rule="evenodd" clip-rule="evenodd" d="M286.371 286.925C289.463 283.964 294.37 284.07 297.331 287.162L302.549 292.61C305.51 295.701 305.404 300.607 302.312 303.568C299.22 306.529 294.313 306.423 291.352 303.331L286.134 297.884C283.173 294.792 283.279 289.886 286.371 286.925Z" fill="#FF114A"/>
<path fill-rule="evenodd" clip-rule="evenodd" d="M300.132 272.093C302.7 268.668 307.558 267.973 310.984 270.54L317.02 275.065C320.445 277.633 321.14 282.491 318.572 285.916C316.004 289.341 311.146 290.035 307.72 287.468L301.684 282.943C298.258 280.375 297.563 275.517 300.132 272.093Z" fill="#4B5D86"/>
<path fill-rule="evenodd" clip-rule="evenodd" d="M310.769 254.547C312.706 250.729 317.371 249.204 321.189 251.14L327.918 254.551C331.736 256.487 333.262 261.152 331.325 264.969C329.389 268.787 324.724 270.312 320.906 268.376L314.177 264.965C310.359 263.029 308.833 258.365 310.769 254.547Z" fill="#FF114A"/>
<path fill-rule="evenodd" clip-rule="evenodd" d="M318.018 236.179C319.341 232.108 323.715 229.881 327.786 231.204L334.961 233.536C339.033 234.86 341.26 239.232 339.937 243.303C338.613 247.374 334.24 249.601 330.168 248.278L322.994 245.946C318.922 244.623 316.694 240.25 318.018 236.179Z" fill="#4B5D86"/>
<path fill-rule="evenodd" clip-rule="evenodd" d="M322.95 215.887C323.549 211.648 327.471 208.698 331.71 209.296L339.18 210.351C343.419 210.949 346.37 214.87 345.772 219.109C345.173 223.347 341.251 226.298 337.012 225.7L329.542 224.645C325.303 224.047 322.352 220.125 322.95 215.887Z" fill="#FF114A"/>
<path fill-rule="evenodd" clip-rule="evenodd" d="M323.874 196.151C323.825 191.87 327.257 188.361 331.538 188.313L339.081 188.228C343.362 188.18 346.872 191.61 346.92 195.891C346.968 200.171 343.537 203.68 339.256 203.728L331.713 203.813C327.432 203.862 323.922 200.431 323.874 196.151Z" fill="#4B5D86"/>
<path fill-rule="evenodd" clip-rule="evenodd" d="M321.155 175.349C320.245 171.167 322.899 167.038 327.082 166.128L334.454 164.525C338.637 163.615 342.766 166.268 343.676 170.451C344.586 174.633 341.933 178.762 337.749 179.672L330.378 181.275C326.194 182.185 322.065 179.532 321.155 175.349Z" fill="#FF114A"/>
<path fill-rule="evenodd" clip-rule="evenodd" d="M315.601 156.257C314.009 152.284 315.94 147.772 319.914 146.18L326.917 143.374C330.891 141.782 335.403 143.713 336.996 147.686C338.588 151.66 336.657 156.171 332.683 157.763L325.68 160.569C321.706 162.161 317.194 160.231 315.601 156.257Z" fill="#4B5D86"/>
<path fill-rule="evenodd" clip-rule="evenodd" d="M307.071 138.108C304.816 134.47 305.938 129.692 309.577 127.438L315.99 123.465C319.63 121.211 324.408 122.333 326.663 125.971C328.917 129.61 327.795 134.387 324.156 136.642L317.743 140.615C314.104 142.869 309.325 141.747 307.071 138.108Z" fill="#FF114A"/>
<path fill-rule="evenodd" clip-rule="evenodd" d="M294.623 121.32C291.882 118.032 292.326 113.145 295.614 110.404L301.409 105.575C304.698 102.834 309.586 103.278 312.327 106.566C315.068 109.854 314.624 114.741 311.336 117.482L305.541 122.312C302.252 125.052 297.364 124.609 294.623 121.32Z" fill="#4B5D86"/>
<path fill-rule="evenodd" clip-rule="evenodd" d="M280.254 107.223C276.96 104.489 276.508 99.6021 279.243 96.3091L284.062 90.5062C286.798 87.2132 291.685 86.7606 294.978 89.4953C298.272 92.23 298.725 97.1165 295.99 100.41L291.17 106.212C288.435 109.505 283.547 109.958 280.254 107.223Z" fill="#FF114A"/>
<path fill-rule="evenodd" clip-rule="evenodd" d="M263.079 95.61C259.371 93.4695 258.101 88.7292 260.242 85.0223L264.014 78.4901C266.155 74.7832 270.896 73.5134 274.604 75.6539C278.311 77.7944 279.581 82.5346 277.44 86.2415L273.668 92.7737C271.527 96.4806 266.786 97.7504 263.079 95.61Z" fill="#4B5D86"/>
<path fill-rule="evenodd" clip-rule="evenodd" d="M245.614 87.3145C241.605 85.8107 239.575 81.3428 241.079 77.3351L243.73 70.2729C245.234 66.2652 249.702 64.2354 253.711 65.7392C257.719 67.243 259.749 71.7109 258.245 75.7186L255.595 82.7808C254.091 86.7885 249.622 88.8183 245.614 87.3145Z" fill="#FF114A"/>
<path fill-rule="evenodd" clip-rule="evenodd" d="M225.115 81.8586C220.896 81.1316 218.065 77.1226 218.792 72.9043L220.073 65.4709C220.8 61.2526 224.81 58.4223 229.029 59.1493C233.248 59.8764 236.079 63.8854 235.352 68.1037L234.07 75.5371C233.343 79.7554 229.334 82.5857 225.115 81.8586Z" fill="#4B5D86"/>
<path fill-rule="evenodd" clip-rule="evenodd" d="M203.166 79.9802C198.885 80.0305 195.374 76.6015 195.324 72.3213L195.235 64.7788C195.185 60.4986 198.614 56.988 202.895 56.9377C207.176 56.8873 210.687 60.3163 210.737 64.5966L210.826 72.139C210.876 76.4192 207.447 79.9298 203.166 79.9802Z" fill="#FF114A"/>
<path fill-rule="evenodd" clip-rule="evenodd" d="M182.956 81.5697C178.746 82.345 174.704 79.5608 173.928 75.3511L172.562 67.9329C171.787 63.7231 174.571 59.682 178.782 58.9067C182.992 58.1314 187.034 60.9156 187.809 65.1253L189.176 72.5435C189.951 76.7533 187.166 80.7944 182.956 81.5697Z" fill="#4B5D86"/>
<path fill-rule="evenodd" clip-rule="evenodd" d="M162.909 86.5353C158.882 87.9891 154.439 85.9039 152.985 81.8779L150.423 74.7833C148.969 70.7572 151.054 66.3149 155.081 64.8611C159.108 63.4072 163.551 65.4924 165.005 69.5185L167.567 76.6131C169.021 80.6391 166.936 85.0815 162.909 86.5353Z" fill="#FF114A"/>
<path fill-rule="evenodd" clip-rule="evenodd" d="M144.564 95.3976C140.849 97.5242 136.113 96.2367 133.986 92.5218L130.238 85.9756C128.111 82.2607 129.398 77.5252 133.114 75.3986C136.829 73.272 141.566 74.5595 143.693 78.2744L147.441 84.8206C149.568 88.5354 148.28 93.2709 144.564 95.3976Z" fill="#4B5D86"/>
<path fill-rule="evenodd" clip-rule="evenodd" d="M128.232 106.823C124.972 109.598 120.08 109.205 117.304 105.946L112.414 100.202C109.638 96.9428 110.031 92.0512 113.291 89.2763C116.551 86.5014 121.443 86.8942 124.219 90.1535L129.109 95.8969C131.884 99.1562 131.492 104.048 128.232 106.823Z" fill="#FF114A"/>
</g>
<defs>
<filter id="filter0_d" x="0" y="0" width="408" height="408" filterUnits="userSpaceOnUse" color-interpolation-filters="sRGB">
<feFlood flood-opacity="0" result="BackgroundImageFix"/>
<feColorMatrix in="SourceAlpha" type="matrix" values="0 0 0 0 0 0 0 0 0 0 0 0 0 0 0 0 0 0 127 0"/>
<feOffset dy="4"/>
<feGaussianBlur stdDeviation="17.5"/>
<feColorMatrix type="matrix" values="0 0 0 0 0 0 0 0 0 0 0 0 0 0 0 0 0 0 0.25 0"/>
<feBlend mode="normal" in2="BackgroundImageFix" result="effect1_dropShadow"/>
<feBlend mode="normal" in="SourceGraphic" in2="effect1_dropShadow" result="shape"/>
</filter>
<linearGradient id="paint0_linear" x1="204" y1="31" x2="204" y2="369" gradientUnits="userSpaceOnUse">
<stop stop-color="#262E43"/>
<stop offset="1" stop-color="#17181F"/>
</linearGradient>
<linearGradient id="paint1_linear" x1="204" y1="31" x2="204" y2="369" gradientUnits="userSpaceOnUse">
<stop stop-color="#323649"/>
<stop offset="1" stop-color="#242632" stop-opacity="0"/>
</linearGradient>
<linearGradient id="paint2_linear" x1="204" y1="69.0804" x2="204" y2="330.92" gradientUnits="userSpaceOnUse">
<stop stop-color="#1B1C21"/>
<stop offset="1" stop-color="#242632" stop-opacity="0"/>
</linearGradient>
</defs>
</svg>
