<svg width="312" height="312" viewBox="0 0 312 312" fill="none" xmlns="http://www.w3.org/2000/svg">
<circle cx="156" cy="156" r="128.92" stroke="url(#paint0_linear)" stroke-width="4"/>
<path d="M180.392 10.937L178.785 10.6525L179.882 4.46133L177.859 4.71645L178.09 3.41041L181.655 2.80343L181.827 2.83394L180.392 10.937Z" fill="#4B5D86"/>
<path d="M186.359 11.9936L184.753 11.7092L185.849 5.51797L183.826 5.77309L184.058 4.46705L187.622 3.86007L187.794 3.89058L186.359 11.9936Z" fill="#4B5D86"/>
<path d="M233.912 24.1995C233.713 24.5449 233.45 24.8014 233.123 24.9689C232.796 25.1364 232.434 25.2125 232.039 25.1972C232.289 25.5628 232.43 25.9505 232.462 26.3605C232.497 26.7671 232.4 27.1676 232.173 27.5619C231.808 28.1941 231.304 28.5701 230.661 28.69C230.02 28.8066 229.33 28.6514 228.59 28.2243C227.85 27.7972 227.37 27.2745 227.149 26.656C226.928 26.0376 226.999 25.4139 227.362 24.785C227.59 24.3907 227.89 24.1052 228.261 23.9286C228.632 23.752 229.036 23.681 229.472 23.7156C229.262 23.3809 229.147 23.0302 229.128 22.6632C229.113 22.2982 229.205 21.943 229.405 21.5976C229.755 20.9915 230.235 20.6258 230.847 20.5007C231.46 20.3723 232.113 20.5084 232.807 20.9091C233.498 21.308 233.942 21.8033 234.139 22.395C234.342 22.9854 234.266 23.5869 233.912 24.1995ZM230.814 26.6409C230.993 26.3313 231.046 26.0319 230.974 25.7427C230.902 25.4535 230.715 25.2214 230.412 25.0464C230.112 24.8733 229.819 24.8279 229.532 24.9102C229.248 24.9892 229.015 25.1851 228.834 25.4979C228.659 25.801 228.606 26.0962 228.675 26.3835C228.744 26.6708 228.935 26.9048 229.247 27.0854C229.554 27.2623 229.845 27.3109 230.121 27.2314C230.401 27.1538 230.632 26.9569 230.814 26.6409ZM232.46 23.4524C232.62 23.1754 232.674 22.9115 232.624 22.6606C232.575 22.4065 232.417 22.2023 232.15 22.048C231.886 21.8956 231.633 21.8586 231.393 21.9368C231.152 22.0151 230.949 22.1976 230.783 22.4844C230.619 22.7679 230.561 23.0383 230.608 23.2957C230.655 23.5531 230.812 23.7589 231.079 23.9132C231.346 24.0674 231.602 24.0996 231.845 24.0097C232.091 23.9216 232.296 23.7359 232.46 23.4524Z" fill="#4B5D86"/>
<path d="M265.286 58.3487L264.222 57.1119L268.99 53.0127L267.263 51.93L268.269 51.0652L271.412 52.851L271.527 52.9837L265.286 58.3487Z" fill="#4B5D86"/>
<path d="M272.837 61.9179C271.975 62.6588 271.163 63.0471 270.399 63.083C269.636 63.1189 268.959 62.793 268.367 62.1054C267.784 61.4264 267.561 60.7145 267.7 59.9699C267.839 59.2253 268.323 58.4893 269.151 57.7619L270.298 56.7758C271.169 56.0276 271.984 55.6394 272.744 55.6113C273.506 55.586 274.18 55.9129 274.763 56.592C275.347 57.271 275.57 57.9829 275.431 58.7275C275.295 59.4697 274.813 60.2044 273.984 60.9318L272.837 61.9179ZM273.032 59.5993C273.548 59.1552 273.862 58.7613 273.973 58.4175C274.09 58.0741 274.02 57.7526 273.762 57.453C273.512 57.162 273.214 57.0435 272.868 57.0975C272.528 57.1519 272.116 57.3797 271.632 57.7808L270.116 59.0834C269.608 59.5201 269.289 59.9136 269.159 60.264C269.034 60.6147 269.102 60.9428 269.365 61.248C269.625 61.5505 269.931 61.6669 270.283 61.5974C270.635 61.5279 271.058 61.2862 271.551 60.8725L273.032 59.5993Z" fill="#4B5D86"/>
<path d="M292.456 102.305L290.224 97.1331L291.25 96.6903L294.906 98.0084C295.417 98.1855 295.843 98.2946 296.184 98.3357C296.527 98.3803 296.822 98.3497 297.067 98.2438C297.402 98.0992 297.628 97.9013 297.745 97.65C297.866 97.3972 297.858 97.1136 297.722 96.7992C297.576 96.4607 297.343 96.2436 297.023 96.1481C296.708 96.0545 296.361 96.0897 295.981 96.2537L295.332 94.7509C295.791 94.5526 296.258 94.4803 296.732 94.5339C297.208 94.591 297.639 94.7738 298.026 95.0821C298.417 95.3889 298.722 95.7962 298.941 96.3041C299.277 97.0814 299.35 97.7648 299.162 98.3542C298.975 98.947 298.541 99.3903 297.861 99.684C297.488 99.845 297.066 99.9123 296.595 99.8858C296.125 99.8593 295.531 99.7223 294.813 99.4746L292.264 98.5398L293.664 101.784L292.456 102.305Z" fill="#4B5D86"/>
<path d="M297.378 105.902L297.747 106.757L296.54 107.278L296.171 106.423L294.538 107.127L293.892 105.63L295.524 104.925L294.189 101.832L295.103 101.357L301.431 102.358L302.084 103.871L297.378 105.902ZM296.012 102.736L296.732 104.404L299.396 103.255L299.182 103.23L296.012 102.736Z" fill="#4B5D86"/>
<path d="M307.518 147.339L307.518 148.209C307.518 148.623 307.621 148.929 307.828 149.129C308.035 149.328 308.31 149.428 308.653 149.428C308.984 149.428 309.242 149.328 309.426 149.129C309.61 148.933 309.703 148.662 309.703 148.316C309.703 148.004 309.616 147.742 309.443 147.531C309.274 147.321 309.051 147.215 308.777 147.215L308.777 145.584C309.206 145.584 309.59 145.699 309.928 145.928C310.271 146.162 310.538 146.485 310.73 146.899C310.922 147.317 311.018 147.776 311.018 148.276C311.018 149.146 310.809 149.827 310.391 150.32C309.977 150.812 309.405 151.059 308.675 151.059C308.299 151.059 307.953 150.944 307.636 150.715C307.32 150.485 307.078 150.184 306.908 149.812C306.743 150.274 306.494 150.619 306.163 150.844C305.832 151.074 305.441 151.189 304.989 151.189C304.259 151.189 303.674 150.922 303.233 150.387C302.793 149.857 302.573 149.153 302.573 148.276C302.573 147.456 302.789 146.784 303.222 146.261C303.655 145.742 304.227 145.483 304.938 145.483L304.938 147.114C304.63 147.114 304.377 147.228 304.182 147.458C303.986 147.691 303.888 147.977 303.888 148.316C303.888 148.703 303.99 149.006 304.193 149.225C304.4 149.447 304.673 149.558 305.012 149.558C305.832 149.558 306.242 149.106 306.242 148.203L306.242 147.339L307.518 147.339Z" fill="#4B5D86"/>
<path d="M307.518 153.399L307.518 154.268C307.518 154.682 307.621 154.989 307.828 155.188C308.035 155.388 308.31 155.487 308.653 155.487C308.984 155.487 309.242 155.388 309.426 155.188C309.61 154.992 309.703 154.722 309.703 154.375C309.703 154.063 309.616 153.802 309.443 153.591C309.274 153.38 309.051 153.275 308.777 153.275L308.777 151.644C309.206 151.644 309.59 151.758 309.928 151.988C310.271 152.221 310.538 152.545 310.73 152.959C310.922 153.376 311.018 153.835 311.018 154.336C311.018 155.205 310.809 155.886 310.391 156.379C309.977 156.872 309.405 157.118 308.675 157.118C308.299 157.118 307.953 157.004 307.636 156.774C307.32 156.545 307.078 156.244 306.908 155.871C306.743 156.334 306.494 156.678 306.163 156.904C305.832 157.133 305.441 157.248 304.989 157.248C304.259 157.248 303.674 156.981 303.233 156.447C302.793 155.916 302.573 155.213 302.573 154.336C302.573 153.516 302.789 152.844 303.222 152.321C303.655 151.802 304.227 151.542 304.938 151.542L304.938 153.173C304.63 153.173 304.377 153.288 304.182 153.517C303.986 153.751 303.888 154.037 303.888 154.375C303.888 154.763 303.99 155.066 304.193 155.284C304.4 155.506 304.673 155.617 305.012 155.617C305.832 155.617 306.242 155.166 306.242 154.263L306.242 153.399L307.518 153.399Z" fill="#4B5D86"/>
<path d="M295.544 200.184L297.274 194.824L298.338 195.167L300.218 198.567C300.485 199.037 300.734 199.4 300.964 199.656C301.192 199.916 301.434 200.087 301.688 200.169C302.036 200.281 302.336 200.281 302.59 200.169C302.847 200.058 303.028 199.84 303.133 199.514C303.247 199.163 303.214 198.846 303.037 198.564C302.862 198.286 302.577 198.083 302.183 197.956L302.686 196.398C303.162 196.552 303.561 196.805 303.882 197.158C304.202 197.514 304.406 197.936 304.494 198.423C304.585 198.911 304.546 199.418 304.376 199.945C304.116 200.75 303.721 201.313 303.191 201.632C302.66 201.955 302.041 202.002 301.336 201.775C300.949 201.65 300.587 201.423 300.251 201.093C299.915 200.763 299.558 200.268 299.182 199.609L297.881 197.226L296.795 200.588L295.544 200.184Z" fill="#4B5D86"/>
<path d="M296.948 206.898C295.866 206.549 295.111 206.058 294.682 205.426C294.254 204.793 294.179 204.045 294.457 203.182C294.732 202.33 295.224 201.769 295.932 201.499C296.64 201.23 297.52 201.259 298.573 201.587L300.013 202.051C301.105 202.404 301.861 202.897 302.282 203.531C302.701 204.168 302.773 204.913 302.498 205.765C302.222 206.617 301.731 207.178 301.023 207.448C300.319 207.719 299.44 207.69 298.387 207.363L296.948 206.898ZM299.028 205.855C299.676 206.065 300.176 206.127 300.528 206.043C300.881 205.963 301.119 205.735 301.24 205.359C301.358 204.994 301.304 204.678 301.078 204.411C300.854 204.149 300.445 203.917 299.85 203.713L297.948 203.099C297.311 202.893 296.809 202.826 296.442 202.898C296.077 202.974 295.833 203.203 295.709 203.586C295.587 203.966 295.647 204.288 295.89 204.552C296.133 204.816 296.559 205.051 297.169 205.256L299.028 205.855Z" fill="#4B5D86"/>
<path d="M279.465 244.421L278.937 245.112C278.686 245.44 278.582 245.747 278.625 246.031C278.668 246.315 278.826 246.561 279.098 246.769C279.361 246.97 279.627 247.048 279.894 247.001C280.16 246.958 280.397 246.798 280.608 246.523C280.797 246.275 280.888 246.015 280.878 245.743C280.871 245.472 280.759 245.254 280.541 245.087L281.532 243.791C281.873 244.052 282.108 244.376 282.237 244.764C282.368 245.157 282.383 245.577 282.284 246.022C282.183 246.47 281.981 246.893 281.677 247.291C281.149 247.981 280.569 248.396 279.938 248.533C279.309 248.674 278.705 248.522 278.125 248.079C277.826 247.85 277.621 247.549 277.509 247.174C277.398 246.8 277.388 246.413 277.479 246.015C277.067 246.282 276.66 246.404 276.26 246.383C275.857 246.364 275.477 246.217 275.118 245.943C274.538 245.5 274.235 244.932 274.21 244.24C274.183 243.551 274.435 242.859 274.968 242.162C275.466 241.511 276.046 241.109 276.708 240.956C277.367 240.806 277.979 240.947 278.544 241.379L277.553 242.675C277.308 242.488 277.038 242.426 276.743 242.489C276.446 242.556 276.194 242.723 275.989 242.992C275.753 243.3 275.65 243.603 275.679 243.899C275.708 244.202 275.858 244.455 276.127 244.661C276.779 245.159 277.379 245.05 277.927 244.332L278.452 243.646L279.465 244.421Z" fill="#4B5D86"/>
<path d="M270.547 248.13L271.538 246.834L276.533 250.653L277.236 248.739L278.29 249.545L277.191 252.989L277.085 253.128L270.547 248.13Z" fill="#4B5D86"/>
<path d="M237.343 278.154L242.103 275.14L242.701 276.084L241.971 279.9C241.876 280.432 241.835 280.87 241.848 281.214C241.857 281.56 241.934 281.846 242.077 282.071C242.272 282.38 242.503 282.572 242.769 282.648C243.038 282.727 243.317 282.676 243.606 282.492C243.918 282.295 244.096 282.031 244.14 281.7C244.183 281.374 244.094 281.037 243.872 280.687L245.255 279.811C245.523 280.234 245.668 280.684 245.689 281.16C245.707 281.639 245.594 282.093 245.35 282.524C245.108 282.958 244.753 283.323 244.286 283.618C243.571 284.071 242.907 284.251 242.295 284.157C241.68 284.066 241.175 283.707 240.778 283.08C240.561 282.737 240.428 282.331 240.381 281.862C240.333 281.394 240.376 280.785 240.508 280.038L241.033 277.374L238.047 279.265L237.343 278.154Z" fill="#4B5D86"/>
<path d="M232.223 281.396L236.983 278.382L237.581 279.326L236.851 283.142C236.756 283.674 236.715 284.112 236.728 284.456C236.737 284.802 236.813 285.088 236.956 285.313C237.152 285.622 237.383 285.814 237.649 285.89C237.918 285.969 238.197 285.918 238.486 285.734C238.798 285.537 238.975 285.273 239.02 284.942C239.063 284.616 238.974 284.279 238.752 283.929L240.135 283.053C240.403 283.476 240.548 283.926 240.569 284.402C240.587 284.881 240.474 285.335 240.23 285.766C239.988 286.2 239.633 286.565 239.166 286.86C238.45 287.313 237.787 287.493 237.175 287.399C236.56 287.308 236.055 286.949 235.658 286.322C235.44 285.979 235.308 285.573 235.261 285.104C235.213 284.636 235.256 284.027 235.388 283.28L235.912 280.616L232.927 282.507L232.223 281.396Z" fill="#4B5D86"/>
<path d="M192.576 298.736L198.018 297.278L198.307 298.357L196.472 301.782C196.223 302.262 196.053 302.668 195.963 303C195.869 303.333 195.857 303.628 195.926 303.886C196.02 304.239 196.183 304.491 196.415 304.643C196.648 304.799 196.93 304.833 197.26 304.744C197.617 304.649 197.865 304.45 198.006 304.147C198.144 303.849 198.16 303.5 198.053 303.1L199.634 302.677C199.764 303.16 199.768 303.632 199.646 304.093C199.52 304.555 199.277 304.956 198.915 305.294C198.555 305.636 198.108 305.879 197.573 306.022C196.756 306.241 196.069 306.214 195.513 305.943C194.953 305.672 194.577 305.179 194.386 304.463C194.28 304.07 194.275 303.643 194.369 303.181C194.464 302.72 194.686 302.152 195.035 301.478L196.33 299.092L192.917 300.006L192.576 298.736Z" fill="#4B5D86"/>
<path d="M189.328 303.007C189.631 302.493 190.057 302.163 190.606 302.016C191.307 301.828 191.933 301.917 192.483 302.284C193.035 302.655 193.42 303.249 193.639 304.067C193.778 304.586 193.793 305.093 193.684 305.585C193.571 306.083 193.344 306.506 193.001 306.855C192.659 307.208 192.234 307.452 191.725 307.589C191.202 307.729 190.701 307.723 190.224 307.57C189.747 307.417 189.33 307.126 188.973 306.696C188.616 306.265 188.351 305.734 188.178 305.103L188.021 304.52C187.667 303.197 187.717 302.069 188.173 301.137C188.628 300.205 189.452 299.551 190.645 299.177L191.031 299.068L191.383 300.382L191.036 300.481C189.682 300.91 189.113 301.752 189.328 303.007ZM190.541 303.325C190.287 303.393 190.086 303.517 189.94 303.696C189.789 303.877 189.692 304.072 189.647 304.283L189.821 304.932C189.964 305.466 190.177 305.853 190.459 306.093C190.742 306.333 191.054 306.407 191.395 306.315C191.712 306.231 191.933 306.016 192.058 305.67C192.185 305.329 192.19 304.94 192.073 304.504C191.957 304.071 191.763 303.741 191.492 303.514C191.218 303.291 190.901 303.228 190.541 303.325Z" fill="#4B5D86"/>
<path d="M143.067 302.335L148.696 302.583L148.646 303.7L145.865 306.413C145.483 306.796 145.199 307.131 145.013 307.421C144.823 307.71 144.722 307.988 144.71 308.255C144.694 308.619 144.774 308.909 144.949 309.124C145.124 309.343 145.382 309.46 145.725 309.475C146.093 309.491 146.39 309.376 146.616 309.13C146.837 308.887 146.957 308.559 146.975 308.146L148.611 308.218C148.589 308.718 148.45 309.169 148.195 309.572C147.936 309.975 147.584 310.284 147.137 310.497C146.691 310.715 146.191 310.812 145.638 310.787C144.793 310.75 144.145 310.518 143.697 310.091C143.245 309.665 143.035 309.081 143.068 308.341C143.086 307.935 143.209 307.526 143.439 307.114C143.668 306.702 144.05 306.228 144.586 305.69L146.54 303.805L143.009 303.649L143.067 302.335Z" fill="#4B5D86"/>
<path d="M137.023 308.108C137.041 307.71 137.156 307.361 137.369 307.061C137.582 306.762 137.867 306.528 138.225 306.359C137.835 306.149 137.531 305.871 137.313 305.522C137.094 305.177 136.995 304.777 137.015 304.322C137.047 303.593 137.321 303.027 137.836 302.624C138.351 302.225 139.035 302.044 139.888 302.082C140.742 302.12 141.409 302.362 141.89 302.809C142.372 303.255 142.596 303.842 142.564 304.567C142.544 305.022 142.41 305.413 142.162 305.741C141.914 306.069 141.589 306.319 141.186 306.489C141.527 306.689 141.791 306.947 141.976 307.264C142.158 307.581 142.24 307.939 142.223 308.337C142.192 309.036 141.934 309.582 141.45 309.975C140.965 310.372 140.323 310.553 139.522 310.518C138.725 310.482 138.102 310.248 137.654 309.814C137.202 309.383 136.992 308.815 137.023 308.108ZM138.645 304.513C138.63 304.87 138.72 305.16 138.918 305.384C139.115 305.607 139.389 305.726 139.738 305.742C140.084 305.757 140.365 305.662 140.581 305.457C140.797 305.256 140.913 304.974 140.929 304.614C140.945 304.264 140.856 303.978 140.662 303.754C140.469 303.531 140.191 303.412 139.83 303.396C139.477 303.38 139.196 303.471 138.988 303.669C138.776 303.867 138.661 304.148 138.645 304.513ZM138.657 308.101C138.642 308.42 138.716 308.68 138.877 308.879C139.037 309.082 139.272 309.19 139.58 309.204C139.884 309.217 140.125 309.134 140.303 308.953C140.48 308.773 140.576 308.517 140.591 308.186C140.605 307.859 140.532 307.592 140.372 307.386C140.212 307.179 139.977 307.069 139.669 307.055C139.361 307.042 139.119 307.131 138.945 307.323C138.767 307.514 138.671 307.774 138.657 308.101Z" fill="#4B5D86"/>
<path d="M97.0898 295.582L96.2952 295.229C95.9168 295.061 95.5945 295.032 95.3282 295.14C95.062 295.248 94.8594 295.459 94.7204 295.772C94.5861 296.074 94.5726 296.35 94.6801 296.6C94.7842 296.848 94.9945 297.042 95.3109 297.182C95.5964 297.309 95.8706 297.336 96.1334 297.263C96.3948 297.194 96.5812 297.034 96.6926 296.783L98.1837 297.444C98.0097 297.837 97.749 298.141 97.4018 298.357C97.0496 298.575 96.6454 298.688 96.1892 298.696C95.7295 298.702 95.2709 298.603 94.8134 298.4C94.0189 298.048 93.481 297.58 93.1999 296.999C92.9172 296.42 92.924 295.798 93.2201 295.131C93.3728 294.787 93.6182 294.517 93.9563 294.321C94.2943 294.125 94.668 294.026 95.0772 294.022C94.7213 293.683 94.5073 293.316 94.4353 292.922C94.3598 292.526 94.4137 292.122 94.5969 291.709C94.8931 291.042 95.3747 290.616 96.0418 290.43C96.7054 290.243 97.438 290.327 98.2394 290.683C98.9893 291.016 99.5155 291.486 99.818 292.093C100.117 292.7 100.122 293.328 99.8339 293.978L98.3427 293.316C98.4679 293.034 98.4653 292.757 98.3349 292.485C98.201 292.212 97.9793 292.006 97.6697 291.869C97.3154 291.711 96.9973 291.681 96.7154 291.779C96.4284 291.878 96.2163 292.082 96.0789 292.392C95.746 293.141 95.9924 293.699 96.8179 294.066L97.6073 294.416L97.0898 295.582Z" fill="#4B5D86"/>
<path d="M93.1661 292.976L91.038 296.601L86.8278 294.733L87.3797 293.49L90.3671 294.815L91.2697 293.283C90.8314 293.315 90.4128 293.242 90.0138 293.065C89.2983 292.748 88.8361 292.277 88.6272 291.653C88.4182 291.03 88.4909 290.319 88.8451 289.521C89.0603 289.036 89.3567 288.647 89.734 288.353C90.1064 288.061 90.5309 287.894 91.0074 287.85C91.4823 287.81 91.9795 287.905 92.4989 288.135C92.9529 288.337 93.3338 288.615 93.6416 288.97C93.9478 289.328 94.1404 289.724 94.2193 290.158C94.2948 290.591 94.2448 291.024 94.0692 291.457L92.5936 290.802C92.7016 290.475 92.7016 290.183 92.5937 289.925C92.4809 289.669 92.2731 289.474 91.9704 289.339C91.6333 289.19 91.3202 289.195 91.031 289.355C90.7403 289.518 90.4965 289.822 90.2995 290.265C90.1102 290.692 90.0701 291.065 90.1792 291.385C90.2882 291.705 90.5354 291.951 90.9206 292.122C91.2749 292.279 91.6034 292.314 91.9059 292.225L92.11 292.155L93.1661 292.976Z" fill="#4B5D86"/>
<path d="M54.33 262.124L58.3136 266.107L57.5232 266.897L53.6394 267.021C53.0992 267.045 52.6628 267.101 52.3302 267.188C51.9949 267.274 51.7327 267.411 51.5438 267.6C51.2857 267.858 51.1486 268.125 51.1327 268.402C51.114 268.681 51.2258 268.942 51.468 269.184C51.7288 269.445 52.0255 269.56 52.3581 269.531C52.6854 269.502 52.9954 269.341 53.2881 269.048L54.4457 270.206C54.0918 270.559 53.6846 270.799 53.2243 270.924C52.7613 271.046 52.2929 271.036 51.8192 270.892C51.3429 270.751 50.9091 270.485 50.518 270.094C49.9192 269.495 49.5986 268.887 49.556 268.27C49.5107 267.65 49.7502 267.078 50.2745 266.554C50.5619 266.267 50.9291 266.048 51.3762 265.899C51.8232 265.75 52.426 265.659 53.1844 265.624L55.8987 265.552L53.3999 263.054L54.33 262.124Z" fill="#4B5D86"/>
<path d="M45.0271 264.564L45.9771 263.614L46.0889 263.726C46.6184 264.239 47.1746 264.524 47.7574 264.58C48.3375 264.633 48.8936 264.458 49.4259 264.053C48.8032 264.058 48.2563 263.826 47.7853 263.355C47.2797 262.849 47.0588 262.266 47.1227 261.607C47.1866 260.947 47.5139 260.322 48.1046 259.731C48.4825 259.353 48.907 259.094 49.378 258.953C49.8463 258.809 50.316 258.802 50.787 258.933C51.2553 259.06 51.6785 259.313 52.0563 259.691C52.6684 260.303 52.9505 261.011 52.9026 261.814C52.852 262.615 52.4715 263.371 51.761 264.081L51.3458 264.496C50.7152 265.127 50.0406 265.564 49.3221 265.809C48.5983 266.054 47.8824 266.086 47.1746 265.905C46.4614 265.724 45.8095 265.341 45.2187 264.756L45.0271 264.564ZM49.0626 262.78C49.2489 262.966 49.4671 263.086 49.7172 263.139C49.9647 263.195 50.2042 263.179 50.4357 263.091L50.787 262.74C51.1729 262.354 51.399 261.976 51.4656 261.607C51.5294 261.239 51.4243 260.919 51.1502 260.645C50.9028 260.397 50.606 260.295 50.2601 260.338C49.9088 260.38 49.5775 260.557 49.2662 260.868C48.9495 261.185 48.7712 261.518 48.7313 261.866C48.6914 262.215 48.8018 262.519 49.0626 262.78Z" fill="#4B5D86"/>
<path d="M16.3517 201.707L16.7957 203.276L10.7445 204.987L11.8557 206.697L10.5792 207.058L8.47954 204.114L8.43192 203.946L16.3517 201.707Z" fill="#4B5D86"/>
<path d="M11.8255 200.555L7.67683 201.235L6.42327 196.803L7.73237 196.433L8.62184 199.578L10.3773 199.292C10.0727 198.976 9.86095 198.607 9.74215 198.187C9.52913 197.434 9.59577 196.778 9.94206 196.219C10.2884 195.659 10.8816 195.261 11.7217 195.023C12.2323 194.879 12.7211 194.858 13.1882 194.961C13.6506 195.061 14.0509 195.28 14.3891 195.618C14.7236 195.958 14.9682 196.401 15.1229 196.948C15.2581 197.425 15.2876 197.896 15.2114 198.36C15.1316 198.824 14.9498 199.225 14.6661 199.564C14.3814 199.898 14.0166 200.136 13.5717 200.278L13.1323 198.725C13.4526 198.599 13.6775 198.412 13.8069 198.164C13.9316 197.914 13.9489 197.629 13.8588 197.311C13.7584 196.956 13.5544 196.718 13.2466 196.598C12.9352 196.479 12.5459 196.485 12.0788 196.618C11.6297 196.745 11.3169 196.952 11.1404 197.241C10.9639 197.529 10.933 197.876 11.0477 198.282C11.1532 198.655 11.3365 198.929 11.5975 199.106L11.7818 199.218L11.8255 200.555Z" fill="#4B5D86"/>
<path d="M6.43319 147.943L6.49493 147.014L7.80732 147.101L7.74558 148.03L9.51984 148.148L9.4117 149.776L7.63744 149.658L7.41405 153.02L6.38406 153.025L1.20955 149.248L1.31881 147.604L6.43319 147.943ZM6.20456 151.384L6.32505 149.571L3.42991 149.378L3.60867 149.498L6.20456 151.384Z" fill="#4B5D86"/>
<path d="M20.648 99.2465L18.5516 104.475L17.5142 104.059L15.8733 100.537C15.6389 100.05 15.4159 99.6708 15.2044 99.3995C14.9942 99.1247 14.7652 98.9376 14.5172 98.8382C14.1783 98.7024 13.8785 98.6816 13.6178 98.7757C13.3536 98.8684 13.1577 99.0737 13.0303 99.3915C12.8931 99.7338 12.9033 100.052 13.061 100.346C13.2166 100.636 13.4865 100.857 13.8708 101.011L13.2616 102.531C12.797 102.344 12.4167 102.064 12.1207 101.69C11.8261 101.313 11.6517 100.878 11.5976 100.386C11.54 99.8927 11.6141 99.3893 11.82 98.8759C12.1351 98.0901 12.5681 97.5563 13.119 97.2744C13.6713 96.9891 14.2915 96.9843 14.9796 97.2602C15.3569 97.4114 15.7019 97.6632 16.0147 98.0156C16.3275 98.368 16.6489 98.886 16.9789 99.5696L18.1122 102.037L19.4272 98.7572L20.648 99.2465Z" fill="#4B5D86"/>
<path d="M44.1708 61.1842L43.1087 62.4224L38.3353 58.3292L37.5259 60.2004L36.5189 59.337L37.8093 55.9599L37.9233 55.8271L44.1708 61.1842Z" fill="#4B5D86"/>
<path d="M43.6297 50.5961L47.1055 57.7627L45.9847 59.0694L42.8211 52.1631L40.1604 55.265L39.1578 54.4052L42.9355 50.0009L43.6297 50.5961Z" fill="#4B5D86"/>
<path d="M80.9644 19.9722L81.5315 21.19L81.3882 21.2567C80.7243 21.5782 80.2662 22.0031 80.0141 22.5314C79.7653 23.0581 79.7398 23.6407 79.9375 24.2792C80.1458 23.6924 80.5519 23.2585 81.1558 22.9774C81.804 22.6756 82.4272 22.6678 83.0253 22.9538C83.6234 23.2399 84.0988 23.7615 84.4514 24.5188C84.677 25.0032 84.7753 25.4908 84.7465 25.9815C84.721 26.4707 84.5664 26.9141 84.2825 27.3119C84.0021 27.7081 83.6196 28.0189 83.1352 28.2445C82.3505 28.6097 81.5888 28.6322 80.8502 28.312C80.115 27.9901 79.5354 27.3738 79.1113 26.463L78.8635 25.9309C78.487 25.1225 78.3069 24.3389 78.323 23.5801C78.341 22.8163 78.5562 22.133 78.9687 21.5301C79.383 20.9221 79.9664 20.441 80.7188 20.0866L80.9644 19.9722ZM81.2582 24.3741C81.0194 24.4853 80.8321 24.6492 80.6964 24.866C80.5591 25.0793 80.4921 25.3097 80.4953 25.5573L80.705 26.0076C80.9353 26.5022 81.2128 26.8441 81.5375 27.0333C81.8606 27.219 82.1979 27.2301 82.5493 27.0666C82.8666 26.9189 83.0645 26.6752 83.143 26.3357C83.2233 25.9912 83.1706 25.6193 82.9847 25.2202C82.7957 24.8143 82.5443 24.5329 82.2305 24.376C81.9166 24.2191 81.5925 24.2185 81.2582 24.3741Z" fill="#4B5D86"/>
<path d="M128.104 11.3759L126.489 11.6066L125.6 5.38224L123.757 6.25548L123.569 4.94245L126.767 3.25424L126.94 3.22949L128.104 11.3759Z" fill="#4B5D86"/>
<path d="M131.14 6.06177L132.001 5.93884C132.41 5.88031 132.699 5.7345 132.868 5.50143C133.036 5.26835 133.096 4.98233 133.047 4.64336C133 4.31557 132.865 4.07452 132.642 3.9202C132.422 3.76535 132.141 3.71241 131.798 3.76137C131.489 3.80554 131.242 3.9282 131.058 4.12934C130.873 4.32676 130.8 4.56143 130.839 4.83335L129.224 5.06405C129.163 4.63941 129.223 4.24324 129.402 3.87553C129.585 3.50357 129.867 3.19334 130.25 2.94483C130.636 2.69579 131.077 2.53588 131.573 2.4651C132.433 2.34217 133.137 2.45258 133.684 2.79633C134.231 3.13636 134.556 3.66769 134.659 4.39032C134.712 4.76281 134.648 5.12173 134.465 5.46709C134.283 5.81244 134.019 6.09527 133.674 6.31558C134.156 6.41402 134.532 6.61117 134.802 6.90703C135.076 7.20236 135.245 7.57352 135.309 8.02051C135.412 8.74314 135.23 9.36015 134.764 9.87153C134.301 10.3824 133.635 10.6998 132.767 10.8238C131.955 10.9398 131.259 10.8206 130.68 10.4662C130.105 10.1113 129.767 9.58183 129.666 8.87782L131.281 8.64713C131.325 8.95257 131.474 9.18591 131.729 9.34715C131.988 9.50785 132.285 9.56425 132.62 9.51635C133.004 9.46154 133.289 9.31813 133.477 9.08612C133.667 8.84985 133.739 8.5641 133.691 8.22885C133.575 7.41682 133.07 7.07467 132.175 7.20239L131.32 7.32452L131.14 6.06177Z" fill="#4B5D86"/>
<path d="M204.908 11.5542L205.716 11.8771C206.1 12.0308 206.423 12.0486 206.685 11.9306C206.947 11.8125 207.142 11.5945 207.269 11.2766C207.392 10.9691 207.395 10.6928 207.279 10.4475C207.165 10.2037 206.948 10.0175 206.627 9.88889C206.337 9.77289 206.062 9.75611 205.802 9.83856C205.543 9.91751 205.363 10.0845 205.261 10.3395L203.746 9.7337C203.905 9.33543 204.154 9.02171 204.493 8.79254C204.837 8.56127 205.237 8.43341 205.693 8.40897C206.152 8.38592 206.614 8.46733 207.078 8.65321C207.886 8.97604 208.44 9.42288 208.743 9.99375C209.047 10.5611 209.063 11.1837 208.792 11.8614C208.652 12.2108 208.417 12.4896 208.087 12.6978C207.756 12.906 207.386 13.0195 206.978 13.0384C207.346 13.364 207.573 13.7224 207.66 14.1137C207.75 14.5064 207.711 14.9124 207.544 15.3316C207.272 16.0094 206.807 16.4534 206.147 16.6637C205.491 16.8754 204.756 16.8184 203.942 16.4928C203.18 16.1881 202.637 15.7378 202.312 15.1418C201.99 14.5471 201.962 13.9197 202.226 13.2594L203.741 13.8652C203.626 14.1517 203.639 14.4284 203.779 14.6953C203.923 14.9636 204.153 15.1607 204.467 15.2865C204.827 15.4304 205.146 15.4486 205.424 15.341C205.707 15.2313 205.912 15.0192 206.037 14.7048C206.342 13.9432 206.075 13.3947 205.237 13.0593L204.435 12.7386L204.908 11.5542Z" fill="#FF114A"/>
<path d="M213.598 16.5739C213.176 17.629 212.635 18.3487 211.975 18.733C211.314 19.1172 210.563 19.141 209.721 18.8042C208.889 18.4716 208.363 17.943 208.142 17.2184C207.921 16.4938 208.01 15.6176 208.41 14.5898L208.971 13.1854C209.398 12.1198 209.941 11.3991 210.603 11.0232C211.267 10.6487 212.015 10.6278 212.847 10.9604C213.678 11.293 214.205 11.8216 214.425 12.5462C214.648 13.2673 214.559 14.1417 214.16 15.1695L213.598 16.5739ZM212.7 14.4274C212.953 13.7951 213.049 13.3008 212.989 12.9444C212.934 12.586 212.723 12.3334 212.356 12.1866C212 12.0441 211.681 12.0766 211.399 12.2841C211.122 12.4895 210.862 12.8818 210.618 13.4611L209.876 15.3161C209.627 15.938 209.526 16.4344 209.572 16.8055C209.623 17.1744 209.835 17.4336 210.209 17.5832C210.58 17.7313 210.905 17.6932 211.185 17.4689C211.465 17.2447 211.729 16.8352 211.975 16.2406L212.7 14.4274Z" fill="#FF114A"/>
<path d="M249.22 42.0969L244.982 38.3857L245.718 37.545L249.585 37.1651C250.123 37.1055 250.555 37.0209 250.881 36.9113C251.21 36.8042 251.462 36.6502 251.638 36.4492C251.879 36.1747 251.998 35.8988 251.995 35.6216C251.996 35.3417 251.867 35.0889 251.609 34.8633C251.332 34.6203 251.028 34.5244 250.698 34.5756C250.373 34.6264 250.075 34.8075 249.802 35.1189L248.57 34.0405C248.9 33.664 249.291 33.3982 249.742 33.243C250.196 33.0903 250.664 33.07 251.146 33.1821C251.63 33.2913 252.081 33.5281 252.497 33.8926C253.134 34.4504 253.494 35.0358 253.577 35.6489C253.663 36.2645 253.462 36.8511 252.974 37.4088C252.706 37.7145 252.354 37.9564 251.918 38.1346C251.482 38.3128 250.886 38.4442 250.132 38.5288L247.428 38.7797L250.086 41.1076L249.22 42.0969Z" fill="#FF114A"/>
<path d="M253.973 39.8368L254.627 40.4095C254.938 40.6822 255.237 40.8064 255.524 40.7821C255.81 40.7579 256.066 40.6169 256.292 40.3593C256.51 40.1102 256.605 39.8507 256.576 39.5806C256.551 39.313 256.408 39.0651 256.147 38.837C255.912 38.6313 255.658 38.5241 255.386 38.5154C255.116 38.504 254.89 38.6016 254.709 38.8082L253.482 37.7335C253.764 37.4108 254.104 37.1977 254.5 37.0942C254.901 36.9903 255.32 37.0026 255.758 37.1309C256.199 37.2617 256.607 37.492 256.984 37.8217C257.638 38.3944 258.013 39.0002 258.108 39.6392C258.206 40.2753 258.015 40.8679 257.534 41.417C257.286 41.7001 256.972 41.8849 256.591 41.9714C256.21 42.058 255.823 42.0422 255.431 41.9242C255.67 42.3537 255.766 42.7673 255.718 43.1651C255.672 43.5655 255.501 43.9355 255.203 44.2751C254.722 44.8243 254.135 45.0884 253.443 45.0675C252.754 45.0492 252.08 44.7512 251.42 44.1735C250.803 43.6331 250.44 43.0278 250.332 42.3577C250.226 41.6901 250.408 41.0888 250.876 40.5538L252.103 41.6285C251.9 41.8606 251.82 42.1258 251.864 42.4243C251.911 42.7251 252.061 42.9872 252.316 43.2103C252.608 43.4656 252.903 43.5888 253.201 43.5797C253.504 43.5703 253.767 43.4382 253.991 43.1835C254.531 42.5664 254.462 41.9604 253.782 41.3654L253.132 40.7964L253.973 39.8368Z" fill="#FF114A"/>
<path d="M284.005 75.673L287.65 73.5795L290.38 77.2891L289.285 78.0953L287.347 75.4631L285.804 76.3465C286.2 76.536 286.528 76.8065 286.787 77.1581C287.251 77.7885 287.419 78.4263 287.291 79.0716C287.163 79.7169 286.747 80.2982 286.044 80.8156C285.617 81.13 285.166 81.3212 284.693 81.3891C284.225 81.4579 283.773 81.3932 283.338 81.195C282.905 80.9946 282.521 80.6656 282.184 80.208C281.889 79.808 281.697 79.3776 281.605 78.9169C281.517 78.4541 281.546 78.0144 281.693 77.5981C281.842 77.1848 282.1 76.8338 282.467 76.5452L283.424 77.8453C283.168 78.0755 283.023 78.3293 282.989 78.6067C282.96 78.8849 283.044 79.1574 283.24 79.4241C283.459 79.7211 283.733 79.8718 284.063 79.8764C284.397 79.8786 284.759 79.736 285.15 79.4483C285.526 79.1717 285.746 78.8675 285.81 78.5354C285.874 78.2033 285.781 77.8676 285.531 77.5282C285.301 77.216 285.033 77.0232 284.727 76.9496L284.515 76.9093L284.005 75.673Z" fill="#FF114A"/>
<path d="M298.964 123.536L298.665 121.932L304.846 120.777L303.895 118.974L305.199 118.73L307.023 121.852L307.055 122.024L298.964 123.536Z" fill="#FF114A"/>
<path d="M308.325 128.422L307.005 128.668L306.976 128.513C306.829 127.79 306.531 127.241 306.082 126.866C305.634 126.494 305.075 126.325 304.408 126.358C304.924 126.705 305.244 127.206 305.366 127.861C305.498 128.563 305.351 129.169 304.925 129.677C304.499 130.186 303.876 130.516 303.055 130.67C302.529 130.768 302.033 130.742 301.564 130.592C301.097 130.446 300.706 130.186 300.391 129.813C300.076 129.443 299.87 128.995 299.772 128.47C299.613 127.619 299.78 126.876 300.274 126.24C300.768 125.608 301.509 125.2 302.497 125.015L303.074 124.907C303.951 124.743 304.755 124.763 305.486 124.967C306.221 125.174 306.83 125.553 307.312 126.102C307.798 126.654 308.119 127.339 308.276 128.155L308.325 128.422ZM303.988 127.613C303.939 127.354 303.827 127.132 303.651 126.947C303.478 126.761 303.272 126.639 303.031 126.58L302.543 126.672C302.006 126.772 301.606 126.956 301.342 127.223C301.082 127.49 300.987 127.814 301.059 128.195C301.123 128.539 301.31 128.791 301.619 128.951C301.933 129.115 302.307 129.156 302.739 129.075C303.18 128.993 303.515 128.819 303.745 128.554C303.975 128.289 304.056 127.976 303.988 127.613Z" fill="#FF114A"/>
<path d="M301.275 176.005L301.512 174.391L307.734 175.307L307.42 173.292L308.732 173.486L309.443 177.03L309.417 177.203L301.275 176.005Z" fill="#FF114A"/>
<path d="M287.691 220.676L288.452 219.233L294.014 222.166L294.388 220.162L295.562 220.781L295.052 224.36L294.971 224.515L287.691 220.676Z" fill="#FF114A"/>
<path d="M287.197 228.243L286.762 229.066L285.599 228.453L286.034 227.629L284.461 226.8L285.222 225.357L286.795 226.186L288.367 223.206L289.31 223.62L292.5 229.175L291.731 230.633L287.197 228.243ZM288.806 225.192L287.958 226.8L290.524 228.153L290.41 227.971L288.806 225.192Z" fill="#FF114A"/>
<path d="M258.301 265.315C258.341 264.72 258.573 264.234 258.997 263.856C259.54 263.373 260.139 263.172 260.795 263.253C261.454 263.336 262.065 263.694 262.628 264.326C262.986 264.728 263.227 265.174 263.351 265.663C263.474 266.158 263.461 266.639 263.311 267.104C263.164 267.573 262.894 267.982 262.5 268.333C262.096 268.693 261.646 268.912 261.151 268.99C260.656 269.068 260.152 268.995 259.64 268.771C259.128 268.546 258.653 268.191 258.214 267.705L257.813 267.253C256.902 266.231 256.44 265.2 256.429 264.163C256.417 263.126 256.86 262.172 257.758 261.302L258.053 261.031L258.958 262.047L258.692 262.291C257.675 263.282 257.545 264.29 258.301 265.315ZM259.528 265.054C259.331 265.229 259.207 265.43 259.157 265.656C259.104 265.885 259.104 266.104 259.159 266.312L259.606 266.814C259.973 267.227 260.337 267.477 260.698 267.564C261.058 267.652 261.37 267.578 261.634 267.343C261.878 267.125 261.979 266.834 261.937 266.469C261.896 266.107 261.726 265.757 261.426 265.42C261.128 265.086 260.807 264.878 260.462 264.796C260.117 264.721 259.806 264.806 259.528 265.054Z" fill="#FF114A"/>
<path d="M218.154 289.268L219.639 288.592L222.245 294.314L223.767 292.958L224.317 294.165L221.724 296.685L221.565 296.757L218.154 289.268Z" fill="#FF114A"/>
<path d="M213.871 297.849C213.705 297.486 213.649 297.122 213.703 296.759C213.757 296.395 213.905 296.057 214.147 295.745C213.704 295.735 213.306 295.625 212.954 295.413C212.602 295.205 212.333 294.894 212.144 294.48C211.841 293.815 211.828 293.187 212.104 292.594C212.381 292.005 212.908 291.533 213.686 291.179C214.463 290.825 215.168 290.738 215.8 290.917C216.431 291.097 216.898 291.517 217.199 292.178C217.388 292.592 217.446 293.002 217.374 293.407C217.302 293.811 217.125 294.181 216.844 294.516C217.239 294.539 217.591 294.65 217.9 294.848C218.206 295.047 218.442 295.329 218.607 295.692C218.897 296.329 218.916 296.932 218.663 297.502C218.411 298.076 217.921 298.529 217.191 298.861C216.465 299.191 215.804 299.265 215.208 299.082C214.61 298.903 214.164 298.492 213.871 297.849ZM213.683 293.909C213.831 294.234 214.044 294.452 214.321 294.561C214.598 294.671 214.896 294.653 215.215 294.508C215.53 294.364 215.737 294.152 215.836 293.871C215.937 293.594 215.913 293.29 215.763 292.962C215.618 292.643 215.409 292.429 215.135 292.318C214.861 292.207 214.56 292.226 214.231 292.376C213.909 292.522 213.7 292.731 213.605 293.002C213.505 293.275 213.531 293.577 213.683 293.909ZM215.323 297.101C215.455 297.392 215.638 297.589 215.872 297.694C216.107 297.802 216.365 297.792 216.646 297.664C216.923 297.538 217.1 297.354 217.176 297.112C217.252 296.871 217.222 296.6 217.085 296.298C216.949 296 216.763 295.796 216.526 295.684C216.289 295.573 216.03 295.581 215.749 295.709C215.469 295.837 215.294 296.026 215.226 296.276C215.155 296.528 215.187 296.803 215.323 297.101Z" fill="#FF114A"/>
<path d="M165.885 310.287L168.418 302.736L170.134 302.586L167.56 309.733L171.631 309.379L171.746 310.695L165.965 311.198L165.885 310.287Z" fill="#FF114A"/>
<path d="M120.386 298.553L121.965 298.965L120.374 305.048L122.411 304.957L122.075 306.24L118.473 306.558L118.304 306.514L120.386 298.553Z" fill="#FF114A"/>
<path d="M112.906 296.597L118.357 298.022L118.074 299.103L114.785 301.172C114.331 301.465 113.982 301.734 113.74 301.978C113.493 302.221 113.336 302.471 113.269 302.73C113.176 303.083 113.193 303.383 113.319 303.63C113.444 303.88 113.673 304.049 114.004 304.135C114.361 304.229 114.675 304.179 114.947 303.985C115.215 303.795 115.401 303.499 115.506 303.099L117.09 303.513C116.963 303.997 116.733 304.409 116.399 304.75C116.061 305.089 115.651 305.317 115.17 305.432C114.688 305.551 114.179 305.54 113.644 305.401C112.825 305.186 112.241 304.824 111.892 304.312C111.54 303.8 111.457 303.186 111.645 302.468C111.748 302.075 111.954 301.702 112.265 301.347C112.575 300.993 113.049 300.609 113.686 300.196L115.992 298.763L112.574 297.869L112.906 296.597Z" fill="#FF114A"/>
<path d="M71.4103 282.032L70.7233 281.5C70.3961 281.246 70.0903 281.14 69.8058 281.181C69.5214 281.223 69.2742 281.379 69.0644 281.649C68.8615 281.911 68.7824 282.176 68.827 282.444C68.8687 282.709 69.0264 282.948 69.3 283.16C69.5469 283.351 69.8066 283.443 70.0792 283.436C70.3495 283.431 70.5689 283.32 70.7372 283.103L72.0265 284.102C71.7637 284.441 71.4378 284.674 71.0488 284.801C70.6546 284.929 70.2351 284.942 69.7903 284.84C69.3426 284.736 68.921 284.53 68.5254 284.224C67.8383 283.691 67.428 283.109 67.2943 282.477C67.1583 281.848 67.3139 281.245 67.7612 280.668C67.9918 280.37 68.2947 280.167 68.6698 280.058C69.0449 279.949 69.4315 279.941 69.8297 280.036C69.5654 279.621 69.4454 279.214 69.4698 278.814C69.4913 278.412 69.6404 278.032 69.9171 277.675C70.3644 277.098 70.9341 276.8 71.6262 276.779C72.3154 276.756 73.0065 277.013 73.6995 277.55C74.3478 278.053 74.7462 278.636 74.8944 279.298C75.0397 279.958 74.8945 280.569 74.4587 281.131L73.1693 280.132C73.3584 279.888 73.4222 279.618 73.3607 279.323C73.2961 279.026 73.1301 278.773 72.8624 278.566C72.556 278.328 72.2543 278.223 71.9573 278.25C71.655 278.277 71.4001 278.425 71.1926 278.693C70.6899 279.341 70.7955 279.942 71.5094 280.495L72.1919 281.024L71.4103 282.032Z" fill="#FF114A"/>
<path d="M22.5571 228.08L22.1408 227.317C21.9425 226.953 21.7048 226.734 21.4276 226.658C21.1503 226.582 20.8614 226.626 20.5608 226.79C20.27 226.948 20.0915 227.159 20.0252 227.423C19.957 227.683 20.0058 227.965 20.1716 228.269C20.3212 228.543 20.5225 228.731 20.7754 228.833C21.025 228.937 21.2703 228.923 21.5115 228.792L22.2928 230.223C21.9162 230.429 21.5243 230.512 21.117 230.473C20.7046 230.432 20.315 230.276 19.9483 230.004C19.5798 229.73 19.2756 229.372 19.0359 228.933C18.6196 228.17 18.4767 227.472 18.6073 226.839C18.7346 226.209 19.1187 225.718 19.7596 225.369C20.09 225.188 20.4489 225.123 20.8364 225.174C21.2238 225.224 21.5811 225.372 21.9082 225.618C21.8319 225.132 21.885 224.711 22.0676 224.354C22.2484 223.994 22.537 223.706 22.9334 223.49C23.5743 223.14 24.216 223.094 24.8585 223.353C25.4991 223.607 26.0294 224.12 26.4494 224.889C26.8423 225.609 26.974 226.303 26.8446 226.969C26.7134 227.632 26.3356 228.134 25.7112 228.475L24.9299 227.043C25.2008 226.895 25.3672 226.673 25.4291 226.378C25.4891 226.08 25.438 225.782 25.2758 225.485C25.0902 225.144 24.8559 224.927 24.573 224.833C24.2849 224.737 23.9922 224.77 23.6949 224.932C22.9747 225.325 22.8309 225.918 23.2634 226.711L23.6771 227.469L22.5571 228.08Z" fill="#FF114A"/>
<path d="M21.9933 216.958L24.6914 221.903L23.7102 222.438L19.9492 221.462C19.4242 221.332 18.9897 221.263 18.6458 221.253C18.3001 221.24 18.01 221.298 17.7754 221.426C17.455 221.601 17.2481 221.818 17.1547 222.079C17.058 222.342 17.0916 222.624 17.2557 222.924C17.4323 223.248 17.6843 223.443 18.0117 223.509C18.3339 223.573 18.6768 223.506 19.0402 223.308L19.8242 224.745C19.3848 224.984 18.9266 225.099 18.4497 225.089C17.9709 225.076 17.5246 224.934 17.1107 224.662C16.6935 224.393 16.3524 224.015 16.0875 223.53C15.682 222.786 15.5459 222.113 15.6792 221.508C15.8107 220.901 16.2019 220.42 16.8527 220.065C17.2095 219.87 17.6233 219.764 18.0943 219.747C18.5652 219.731 19.1694 219.812 19.9067 219.993L22.5311 220.69L20.8387 217.588L21.9933 216.958Z" fill="#FF114A"/>
<path d="M10.3919 176.884L10.5416 178.508L4.27968 179.085L5.05991 180.969L3.73894 181.091L2.21231 177.814L2.19625 177.639L10.3919 176.884Z" fill="#FF114A"/>
<path d="M6.57755 171.298C7.03255 171.683 7.28613 172.158 7.3383 172.724C7.40497 173.447 7.21101 174.049 6.75642 174.529C6.29808 175.01 5.64732 175.289 4.80415 175.366C4.26827 175.416 3.76664 175.345 3.29928 175.154C2.82782 174.959 2.44909 174.663 2.16306 174.267C1.8733 173.87 1.70423 173.409 1.65587 172.885C1.60613 172.345 1.69682 171.853 1.92794 171.409C2.15907 170.964 2.51687 170.603 3.00136 170.324C3.48585 170.045 4.05395 169.873 4.70565 169.809L5.30712 169.754C6.67119 169.628 7.77422 169.869 8.61621 170.475C9.4582 171.081 9.96277 172.004 10.1299 173.243L10.1723 173.642L8.81764 173.767L8.77885 173.407C8.58491 172.001 7.85115 171.297 6.57755 171.298ZM6.05923 172.439C6.03505 172.177 5.94687 171.959 5.79469 171.784C5.64216 171.605 5.46585 171.476 5.26575 171.396L4.59683 171.458C4.04596 171.508 3.62842 171.653 3.34422 171.89C3.06003 172.128 2.93416 172.423 2.96664 172.775C2.99669 173.101 3.17129 173.356 3.49043 173.538C3.80582 173.72 4.18836 173.791 4.63805 173.749C5.084 173.708 5.44192 173.573 5.71182 173.344C5.97763 173.112 6.09343 172.81 6.05923 172.439Z" fill="#FF114A"/>
<path d="M12.5079 124.902L11.1301 130.363L10.0464 130.09L7.94888 126.82C7.65136 126.368 7.37963 126.022 7.13369 125.782C6.88868 125.537 6.63663 125.383 6.37755 125.317C6.02359 125.228 5.72371 125.248 5.47792 125.376C5.22847 125.503 5.06187 125.733 4.97812 126.065C4.88792 126.422 4.94066 126.736 5.13633 127.007C5.32927 127.273 5.62644 127.456 6.02784 127.557L5.62747 129.145C5.14215 129.022 4.72778 128.795 4.38437 128.464C4.04188 128.13 3.8109 127.722 3.69142 127.242C3.5683 126.761 3.57438 126.252 3.70968 125.716C3.91676 124.895 4.27442 124.308 4.78264 123.955C5.29179 123.598 5.90579 123.51 6.62465 123.692C7.01875 123.791 7.39437 123.994 7.75153 124.302C8.10868 124.609 8.49652 125.079 8.91506 125.713L10.3684 128.006L11.2326 124.58L12.5079 124.902Z" fill="#FF114A"/>
<path d="M13.5815 120.646L13.1825 122.228L7.08494 120.69L7.19431 122.726L5.90802 122.401L5.55822 118.803L5.60101 118.634L13.5815 120.646Z" fill="#FF114A"/>
<path d="M30.6959 80.0132L27.9545 84.9342L26.978 84.3904L25.7962 80.6892C25.6253 80.1763 25.4521 79.7719 25.2766 79.476C25.103 79.1769 24.8994 78.9623 24.666 78.8323C24.3471 78.6547 24.0524 78.5961 23.7818 78.6565C23.508 78.715 23.2877 78.8938 23.1211 79.193C22.9416 79.5151 22.9115 79.8321 23.0307 80.144C23.1484 80.4508 23.3881 80.7048 23.7497 80.9063L22.9531 82.3362C22.5159 82.0927 22.1741 81.7667 21.9278 81.3582C21.6834 80.9464 21.5654 80.4931 21.574 79.9982C21.5793 79.5016 21.7166 79.0116 21.9858 78.5284C22.3978 77.7888 22.8949 77.314 23.477 77.1042C24.061 76.891 24.6768 76.9648 25.3245 77.3255C25.6796 77.5232 25.99 77.8167 26.2556 78.2058C26.5213 78.595 26.7746 79.1495 27.0154 79.8694L27.8273 82.46L29.5468 79.3733L30.6959 80.0132Z" fill="#FF114A"/>
<path d="M27.4907 77.462L24.072 75.0154L26.3135 70.9919L27.502 71.6538L25.9116 74.5087L27.3563 75.5458C27.3641 75.1066 27.4742 74.6963 27.6866 74.3149C28.0675 73.6312 28.578 73.2135 29.2183 73.0618C29.8585 72.9101 30.5599 73.0466 31.3227 73.4714C31.7863 73.7296 32.1472 74.0598 32.4056 74.4621C32.6625 74.8593 32.7912 75.2971 32.7918 75.7755C32.789 76.2521 32.6494 76.7385 32.3729 77.2349C32.1312 77.6688 31.8197 78.023 31.4385 78.2974C31.0541 78.57 30.6419 78.7259 30.2022 78.7653C29.7642 78.8014 29.3378 78.7124 28.9228 78.4985L29.7084 77.0883C30.024 77.2254 30.3151 77.2518 30.5817 77.1677C30.8468 77.0784 31.0599 76.8892 31.2211 76.5999C31.4006 76.2778 31.4237 75.9655 31.2907 75.6631C31.1543 75.3589 30.874 75.0887 30.4499 74.8525C30.0423 74.6254 29.6741 74.5518 29.3454 74.6314C29.0167 74.7111 28.7498 74.935 28.5447 75.3032C28.3561 75.6418 28.2919 75.9657 28.3522 76.275L28.4036 76.4844L27.4907 77.462Z" fill="#FF114A"/>
<path d="M56.9097 41.0725L57.5776 40.5163C57.8957 40.2513 58.0651 39.9756 58.0859 39.6889C58.1067 39.4023 58.0075 39.1274 57.7883 38.8643C57.5764 38.6099 57.3347 38.4757 57.0635 38.4616C56.7951 38.4452 56.5279 38.5477 56.2619 38.7693C56.0219 38.9692 55.8763 39.203 55.8251 39.4709C55.7716 39.7359 55.8327 39.9739 56.0086 40.1849L54.7551 41.2289C54.4805 40.8993 54.323 40.5309 54.2826 40.1238C54.2427 39.7114 54.3204 39.299 54.5156 38.8867C54.7138 38.4719 55.0051 38.1044 55.3897 37.7841C56.0577 37.2278 56.7147 36.9524 57.3609 36.9579C58.0046 36.9604 58.5601 37.2421 59.0274 37.803C59.2682 38.0921 59.4016 38.4316 59.4276 38.8213C59.4535 39.2111 59.3775 39.5902 59.1996 39.9587C59.6613 39.7897 60.0848 39.7602 60.4703 39.8701C60.8586 39.9777 61.1973 40.2049 61.4863 40.5518C61.9536 41.1127 62.1228 41.7333 61.994 42.4135C61.8681 43.0913 61.4683 43.7108 60.7945 44.2719C60.1642 44.7969 59.5095 45.0605 58.8306 45.0627C58.1546 45.0626 57.5889 44.7893 57.1337 44.2429L58.3872 43.1989C58.5847 43.436 58.8343 43.5563 59.1359 43.5597C59.4405 43.5607 59.7228 43.4529 59.9831 43.2361C60.2809 42.9881 60.4487 42.7162 60.4863 42.4204C60.5245 42.1193 60.4351 41.8386 60.2184 41.5784C59.6933 40.9482 59.0838 40.922 58.3898 41.5L57.7262 42.0526L56.9097 41.0725Z" fill="#FF114A"/>
<path d="M65.1124 36.5036L65.828 35.9076L66.6698 36.9181L65.9542 37.5141L67.0922 38.8802L65.8387 39.9241L64.7006 38.558L62.1112 40.7146L61.3973 39.9722L60.5654 33.6207L61.8319 32.5659L65.1124 36.5036ZM62.4622 38.7107L63.8588 37.5476L62.0018 35.3185L62.0387 35.5302L62.4622 38.7107Z" fill="#FF114A"/>
<path d="M105.969 17.199L100.794 19.4248L100.353 18.3983L101.675 14.745C101.853 14.2344 101.962 13.8084 102.004 13.4669C102.049 13.124 102.019 12.8298 101.913 12.5844C101.769 12.2491 101.571 12.0228 101.32 11.9056C101.067 11.7849 100.784 11.7922 100.469 11.9275C100.13 12.0732 99.9129 12.306 99.817 12.6258C99.723 12.9406 99.7578 13.2881 99.9214 13.6684L98.4176 14.3152C98.2198 13.8554 98.148 13.3886 98.2022 12.9148C98.2599 12.4394 98.4431 12.0083 98.7519 11.6215C99.0593 11.2313 99.467 10.9269 99.9752 10.7083C100.753 10.3738 101.437 10.3009 102.026 10.4899C102.619 10.6773 103.061 11.1115 103.354 11.7924C103.515 12.1657 103.582 12.5876 103.555 13.058C103.528 13.5283 103.39 14.1222 103.141 14.8394L102.203 17.3871L105.45 15.9909L105.969 17.199Z" fill="#FF114A"/>
<path d="M108.609 8.11327L108.576 16.078L106.994 16.7582L107.193 9.16459L103.438 10.7794L102.916 9.56613L108.247 7.27334L108.609 8.11327Z" fill="#FF114A"/>
<path d="M150.836 4.30165H151.705C152.119 4.30165 152.426 4.19817 152.625 3.99122C152.825 3.78427 152.924 3.50959 152.924 3.16718C152.924 2.83606 152.825 2.57832 152.625 2.39394C152.429 2.20957 152.159 2.11738 151.812 2.11738C151.5 2.11738 151.238 2.20393 151.028 2.37701C150.817 2.54633 150.712 2.76834 150.712 3.04301H149.08C149.08 2.61406 149.195 2.23026 149.424 1.89162C149.658 1.54921 149.981 1.28206 150.395 1.09016C150.813 0.898257 151.272 0.802307 151.773 0.802307C152.642 0.802307 153.323 1.01114 153.816 1.4288C154.309 1.8427 154.556 2.41464 154.556 3.14461C154.556 3.52088 154.441 3.86705 154.211 4.18312C153.982 4.49919 153.681 4.74189 153.308 4.91121C153.771 5.07677 154.115 5.32511 154.341 5.65623C154.571 5.98735 154.686 6.37868 154.686 6.83021C154.686 7.56018 154.418 8.14528 153.884 8.58552C153.353 9.02576 152.65 9.24588 151.773 9.24588C150.952 9.24588 150.281 9.02952 149.758 8.59681C149.238 8.16409 148.979 7.59216 148.979 6.881H150.61C150.61 7.18955 150.725 7.44165 150.954 7.63731C151.188 7.83297 151.474 7.93081 151.812 7.93081C152.2 7.93081 152.503 7.82921 152.721 7.62602C152.943 7.41907 153.054 7.14628 153.054 6.80763C153.054 5.98735 152.603 5.57722 151.699 5.57722H150.836V4.30165Z" fill="#FF114A"/>
<path d="M159.662 0.830528V2.17382H159.504C158.767 2.18511 158.172 2.37701 157.72 2.74952C157.273 3.12203 157.003 3.63941 156.913 4.30165C157.35 3.85765 157.901 3.63565 158.567 3.63565C159.282 3.63565 159.85 3.89151 160.272 4.40324C160.693 4.91497 160.904 5.5885 160.904 6.42383C160.904 6.95814 160.787 7.44165 160.554 7.87436C160.325 8.30708 159.997 8.64384 159.572 8.88466C159.15 9.12547 158.672 9.24588 158.138 9.24588C157.273 9.24588 156.573 8.94486 156.038 8.34282C155.508 7.74079 155.242 6.93744 155.242 5.93279V5.34581C155.242 4.45404 155.41 3.66763 155.745 2.98657C156.083 2.30176 156.567 1.77309 157.195 1.40058C157.828 1.02431 158.56 0.83429 159.391 0.830528H159.662ZM158.07 4.94508C157.807 4.94508 157.568 5.01469 157.353 5.15391C157.139 5.28937 156.981 5.46998 156.879 5.69574V6.19242C156.879 6.73802 156.986 7.16509 157.201 7.47363C157.416 7.77841 157.717 7.93081 158.104 7.93081C158.454 7.93081 158.736 7.79347 158.951 7.51879C159.169 7.24034 159.278 6.881 159.278 6.44076C159.278 5.993 159.169 5.63178 158.951 5.3571C158.733 5.08242 158.439 4.94508 158.07 4.94508Z" fill="#FF114A"/>
<path d="M33.0823 242.32C34.0112 241.665 34.8572 241.356 35.6204 241.394C36.3836 241.431 37.0265 241.821 37.5491 242.562C38.0652 243.294 38.2185 244.024 38.0088 244.751C37.7992 245.479 37.247 246.165 36.3523 246.81L35.1159 247.682C34.1778 248.343 33.3291 248.651 32.5699 248.606C31.8086 248.558 31.1698 248.168 30.6537 247.436C30.1376 246.705 29.9844 245.975 30.194 245.247C30.4006 244.521 30.9512 243.836 31.8459 243.191L33.0823 242.32ZM32.666 244.609C32.1093 245.002 31.7591 245.364 31.6153 245.695C31.4663 246.026 31.5056 246.352 31.7333 246.675C31.9545 246.989 32.2397 247.136 32.5889 247.115C32.9329 247.093 33.365 246.906 33.8852 246.553L35.5184 245.402C36.0658 245.016 36.4213 244.655 36.5848 244.319C36.7431 243.982 36.7062 243.649 36.4741 243.32C36.2443 242.994 35.9507 242.848 35.5935 242.884C35.2363 242.919 34.7926 243.119 34.2623 243.484L32.666 244.609Z" fill="#419E3F"/>
<path d="M197.23 5.0952L194.552 15.0237L193.87 14.8293L196.548 4.90081L197.23 5.0952Z" fill="#323649"/>
<path d="M222.025 14.1429L217.718 23.4487L217.086 23.1768L221.392 13.871L222.025 14.1429Z" fill="#323649"/>
<path d="M244.947 27.3351L239.118 35.7813L238.539 35.391L244.368 26.9448L244.947 27.3351Z" fill="#323649"/>
<path d="M265.302 44.1871L258.14 51.5454L257.651 51.0817L264.813 43.7235L265.302 44.1871Z" fill="#323649"/>
<path d="M282.523 64.1861L274.217 70.228L273.818 69.691L282.124 63.6491L282.523 64.1861Z" fill="#323649"/>
<path d="M296.167 86.8316L286.978 91.419L286.633 90.7636L295.822 86.1762L296.167 86.8316Z" fill="#323649"/>
<path d="M305.769 111.415L295.924 114.364L295.742 113.725L305.588 110.776L305.769 111.415Z" fill="#323649"/>
<path d="M311.104 137.334L300.901 138.552L300.805 137.881L311.008 136.663L311.104 137.334Z" fill="#323649"/>
<path d="M311.969 163.741L301.698 163.217L301.729 162.518L312 163.042L311.969 163.741Z" fill="#323649"/>
<path d="M308.4 189.897L298.383 187.706L298.537 187.02L308.553 189.211L308.4 189.897Z" fill="#323649"/>
<path d="M300.508 215.111L290.996 211.237L291.268 210.604L300.78 214.478L300.508 215.111Z" fill="#323649"/>
<path d="M288.416 238.61L279.686 233.164L280.035 232.581L288.765 238.027L288.416 238.61Z" fill="#323649"/>
<path d="M272.563 259.739L264.884 252.913L265.352 252.383L273.03 259.208L272.563 259.739Z" fill="#323649"/>
<path d="M253.338 277.915L246.939 269.9L247.48 269.46L253.879 277.475L253.338 277.915Z" fill="#323649"/>
<path d="M231.379 292.587L226.401 283.603L227.015 283.253L231.993 292.237L231.379 292.587Z" fill="#323649"/>
<path d="M207.261 303.358L203.843 293.668L204.486 293.445L207.904 303.135L207.261 303.358Z" fill="#323649"/>
<path d="M181.642 309.884L179.922 299.749L180.592 299.653L182.312 309.788L181.642 309.884Z" fill="#323649"/>
<path d="M155.321 312L155.351 301.715L156.054 301.705L156.024 311.99L155.321 312Z" fill="#323649"/>
<path d="M129.011 309.613L130.758 299.506L131.448 299.618L129.702 309.726L129.011 309.613Z" fill="#323649"/>
<path d="M103.476 302.927L106.913 293.242L107.55 293.473L104.113 303.158L103.476 302.927Z" fill="#323649"/>
<path d="M79.4595 291.935L84.4723 282.992L85.0557 283.341L80.0429 292.285L79.4595 291.935Z" fill="#323649"/>
<path d="M57.6183 277.078L64.0628 269.068L64.5969 269.495L58.1524 277.505L57.6183 277.078Z" fill="#323649"/>
<path d="M38.5724 258.75L46.2965 251.946L46.7404 252.446L39.0163 259.25L38.5724 258.75Z" fill="#323649"/>
<path d="M22.9292 237.468L31.6624 232.09L32.0161 232.664L23.2788 238.082L22.9292 237.468Z" fill="#323649"/>
<path d="M11.034 213.887L20.5592 210.037L20.8228 210.684L11.2976 214.534L11.034 213.887Z" fill="#323649"/>
<path d="M3.32248 188.59L13.3776 186.407L13.5144 187.082L3.45924 189.265L3.32248 188.59Z" fill="#323649"/>
<path d="M-5.76604e-07 162.384L10.2456 161.955L10.2555 162.658L0.00993911 163.087L-5.76604e-07 162.384Z" fill="#323649"/>
<path d="M1.1177 135.974L11.3128 137.234L11.241 137.929L1.04591 136.669L1.1177 135.974Z" fill="#323649"/>
<path d="M6.63615 110.144L16.4904 113.103L16.3002 113.744L6.44599 110.785L6.63615 110.144Z" fill="#323649"/>
<path d="M16.4792 85.6269L25.6699 90.2115L25.3572 90.8402L16.1707 86.2147L16.4792 85.6269Z" fill="#323649"/>
<path d="M30.2892 63.0901L38.5797 69.1928L38.1936 69.7312L29.9032 63.6285L30.2892 63.0901Z" fill="#323649"/>
<path d="M47.7448 43.2433L54.8699 50.6311L54.3655 51.1161L47.2403 43.7283L47.7448 43.2433Z" fill="#323649"/>
<path d="M68.2558 26.6043L74.0692 35.096L73.4915 35.4908L67.678 26.9991L68.2558 26.6043Z" fill="#323649"/>
<path d="M91.2808 13.6128L95.5625 22.938L94.9524 23.2468L90.6298 13.9174L91.2808 13.6128Z" fill="#323649"/>
<path d="M116.115 4.69185L118.764 14.6333L118.085 14.8111L115.436 4.8696L116.115 4.69185Z" fill="#323649"/>
<path d="M142.15 0.150051L143.077 10.3682L142.41 10.4233L141.483 0.205162L142.15 0.150051Z" fill="#323649"/>
<path d="M168.59 0.0717498L167.78 10.317L167.085 10.2453L167.896 5.96176e-07L168.59 0.0717498Z" fill="#323649"/>
<g opacity="0.4">
<mask id="mask0" mask-type="alpha" maskUnits="userSpaceOnUse" x="23" y="23" width="266" height="266">
<path d="M285.605 156.044C285.605 227.611 227.579 285.628 156 285.628C84.4209 285.628 26.3953 227.611 26.3953 156.044C26.3953 84.477 84.4209 26.4599 156 26.4599C227.579 26.4599 285.605 84.477 285.605 156.044Z" stroke="white" stroke-width="5"/>
</mask>
<g mask="url(#mask0)">
<path fill-rule="evenodd" clip-rule="evenodd" d="M65.458 77.482C62.5786 80.6489 57.6768 80.8823 54.5095 78.0033L48.9281 72.9302C45.7608 70.0512 45.5274 65.1502 48.4068 61.9834C51.2862 58.8165 56.188 58.5832 59.3553 61.4621L64.9367 66.5352C68.104 69.4142 68.3374 74.3152 65.458 77.482Z" fill="#4B5D86"/>
<path fill-rule="evenodd" clip-rule="evenodd" d="M53.5943 93.8522C51.4228 97.5404 46.6721 98.7703 42.9832 96.5992L36.4829 92.7734C32.7941 90.6022 31.564 85.8523 33.7354 82.164C35.9069 78.4758 40.6576 77.2459 44.3464 79.417L50.8468 83.2428C54.5356 85.4139 55.7657 90.1639 53.5943 93.8522Z" fill="#FF114A"/>
<path fill-rule="evenodd" clip-rule="evenodd" d="M44.4634 111.648C42.9565 115.654 38.487 117.68 34.4805 116.173L27.4204 113.518C23.4138 112.011 21.3875 107.543 22.8944 103.537C24.4013 99.5308 28.8708 97.5048 32.8773 99.0115L39.9374 101.666C43.9439 103.173 45.9702 107.642 44.4634 111.648Z" fill="#4B5D86"/>
<path fill-rule="evenodd" clip-rule="evenodd" d="M38.5188 130.941C37.6727 135.136 33.5853 137.851 29.3892 137.005L21.9951 135.515C17.799 134.669 15.0832 130.582 15.9293 126.387C16.7753 122.191 20.8627 119.476 25.0588 120.322L32.453 121.812C36.649 122.658 39.3648 126.745 38.5188 130.941Z" fill="#FF114A"/>
<path fill-rule="evenodd" clip-rule="evenodd" d="M36.1133 151.14C35.9798 155.418 32.4032 158.778 28.1248 158.644L20.5855 158.409C16.3071 158.275 12.9469 154.699 13.0804 150.422C13.2139 146.144 16.7904 142.784 21.0689 142.918L28.6082 143.153C32.8866 143.286 36.2467 146.862 36.1133 151.14Z" fill="#4B5D86"/>
<path fill-rule="evenodd" clip-rule="evenodd" d="M36.727 171.311C37.3025 175.552 34.3305 179.456 30.0889 180.031L22.6144 181.045C18.3728 181.621 14.4677 178.649 13.8922 174.408C13.3167 170.167 16.2887 166.263 20.5303 165.687L28.0048 164.673C32.2465 164.098 36.1515 167.07 36.727 171.311Z" fill="#FF114A"/>
<path fill-rule="evenodd" clip-rule="evenodd" d="M41.2935 191.518C42.6362 195.582 40.4299 199.964 36.3655 201.307L29.2032 203.673C25.1388 205.015 20.7554 202.809 19.4126 198.746C18.0698 194.682 20.2761 190.299 24.3406 188.956L31.5028 186.591C35.5672 185.248 39.9507 187.454 41.2935 191.518Z" fill="#4B5D86"/>
<path fill-rule="evenodd" clip-rule="evenodd" d="M48.7374 210.168C50.6999 213.972 49.2069 218.646 45.4027 220.608L38.6992 224.065C34.895 226.028 30.2203 224.535 28.2578 220.731C26.2954 216.928 27.7884 212.254 31.5925 210.292L38.296 206.834C42.1002 204.872 46.775 206.365 48.7374 210.168Z" fill="#FF114A"/>
<path fill-rule="evenodd" clip-rule="evenodd" d="M59.0241 226.838C61.5461 230.296 60.7868 235.143 57.3281 237.665L51.2335 242.108C47.7748 244.63 42.9265 243.871 40.4045 240.413C37.8825 236.955 38.6418 232.107 42.1004 229.586L48.1951 225.142C51.6538 222.62 56.502 223.38 59.0241 226.838Z" fill="#419E3F"/>
<path fill-rule="evenodd" clip-rule="evenodd" d="M72.6645 242.647C75.7649 245.598 75.8857 250.503 72.9344 253.603L67.7337 259.065C64.7824 262.165 59.8765 262.286 56.7761 259.335C53.6757 256.384 53.5548 251.479 56.5062 248.379L61.7069 242.917C64.6582 239.817 69.5641 239.696 72.6645 242.647Z" fill="#4B5D86"/>
<path fill-rule="evenodd" clip-rule="evenodd" d="M88.431 255.36C91.965 257.775 92.8719 262.597 90.4567 266.13L86.2006 272.357C83.7854 275.89 78.9626 276.797 75.4285 274.382C71.8945 271.967 70.9875 267.145 73.4028 263.612L77.6588 257.385C80.0741 253.852 84.8969 252.945 88.431 255.36Z" fill="#FF114A"/>
<path fill-rule="evenodd" clip-rule="evenodd" d="M106.15 265.101C110.087 266.782 111.915 271.336 110.234 275.272L107.271 282.207C105.589 286.143 101.035 287.971 97.0987 286.29C93.1622 284.609 91.3341 280.055 93.0155 276.119L95.9784 269.184C97.6597 265.248 102.214 263.42 106.15 265.101Z" fill="#4B5D86"/>
<path fill-rule="evenodd" clip-rule="evenodd" d="M125.157 272.206C129.298 273.287 131.779 277.521 130.697 281.662L128.791 288.959C127.709 293.1 123.475 295.58 119.333 294.499C115.192 293.417 112.711 289.183 113.793 285.042L115.699 277.746C116.781 273.605 121.015 271.124 125.157 272.206Z" fill="#FF114A"/>
<path fill-rule="evenodd" clip-rule="evenodd" d="M145.247 275.676C149.517 275.971 152.74 279.671 152.445 283.941L151.925 291.465C151.631 295.734 147.93 298.956 143.659 298.662C139.389 298.367 136.166 294.667 136.461 290.397L136.981 282.873C137.275 278.604 140.976 275.381 145.247 275.676Z" fill="#4B5D86"/>
<path fill-rule="evenodd" clip-rule="evenodd" d="M165.925 276.049C170.192 275.707 173.928 278.888 174.27 283.154L174.873 290.672C175.215 294.938 172.033 298.674 167.767 299.016C163.5 299.358 159.764 296.176 159.422 291.91L158.819 284.393C158.477 280.126 161.658 276.391 165.925 276.049Z" fill="#FF114A"/>
<path fill-rule="evenodd" clip-rule="evenodd" d="M185.802 272.798C189.943 271.715 194.179 274.193 195.263 278.333L197.173 285.629C198.257 289.769 195.778 294.004 191.637 295.088C187.496 296.172 183.261 293.694 182.177 289.553L180.267 282.257C179.183 278.117 181.661 273.882 185.802 272.798Z" fill="#4B5D86"/>
<path fill-rule="evenodd" clip-rule="evenodd" d="M205.288 265.686C209.194 263.936 213.78 265.683 215.53 269.588L218.615 276.471C220.366 280.376 218.618 284.961 214.712 286.712C210.806 288.462 206.22 286.715 204.47 282.809L201.385 275.927C199.634 272.021 201.382 267.436 205.288 265.686Z" fill="#FF114A"/>
<path fill-rule="evenodd" clip-rule="evenodd" d="M222.267 256.085C225.821 253.699 230.636 254.644 233.023 258.197L237.229 264.458C239.615 268.011 238.669 272.825 235.116 275.212C231.563 277.598 226.747 276.652 224.361 273.099L220.155 266.839C217.768 263.286 218.714 258.471 222.267 256.085Z" fill="#4B5D86"/>
<path fill-rule="evenodd" clip-rule="evenodd" d="M238.358 242.911C241.449 239.951 246.355 240.057 249.316 243.148L254.533 248.595C257.494 251.686 257.388 256.591 254.297 259.551C251.205 262.512 246.299 262.406 243.338 259.315L238.121 253.868C235.16 250.777 235.266 245.871 238.358 242.911Z" fill="#FF114A"/>
<path fill-rule="evenodd" clip-rule="evenodd" d="M252.116 228.081C254.684 224.657 259.542 223.962 262.967 226.53L269.002 231.053C272.427 233.621 273.122 238.478 270.554 241.902C267.986 245.327 263.128 246.021 259.703 243.454L253.668 238.93C250.243 236.363 249.548 231.506 252.116 228.081Z" fill="#4B5D86"/>
<path fill-rule="evenodd" clip-rule="evenodd" d="M262.752 210.538C264.688 206.72 269.352 205.195 273.17 207.131L279.897 210.542C283.715 212.478 285.241 217.141 283.305 220.958C281.369 224.775 276.704 226.3 272.887 224.365L266.159 220.954C262.342 219.018 260.816 214.355 262.752 210.538Z" fill="#FF114A"/>
<path fill-rule="evenodd" clip-rule="evenodd" d="M269.999 192.174C271.323 188.103 275.695 185.876 279.766 187.199L286.94 189.531C291.01 190.854 293.238 195.226 291.914 199.296C290.591 203.367 286.218 205.594 282.147 204.27L274.974 201.939C270.903 200.616 268.676 196.244 269.999 192.174Z" fill="#4B5D86"/>
<path fill-rule="evenodd" clip-rule="evenodd" d="M274.932 171.884C275.53 167.647 279.451 164.696 283.69 165.295L291.159 166.349C295.397 166.947 298.348 170.868 297.75 175.106C297.151 179.343 293.23 182.294 288.991 181.695L281.523 180.641C277.284 180.043 274.333 176.122 274.932 171.884Z" fill="#FF114A"/>
<path fill-rule="evenodd" clip-rule="evenodd" d="M275.854 152.151C275.806 147.872 279.237 144.363 283.517 144.315L291.059 144.23C295.34 144.182 298.849 147.612 298.897 151.891C298.945 156.171 295.514 159.679 291.234 159.728L283.692 159.813C279.412 159.861 275.903 156.431 275.854 152.151Z" fill="#4B5D86"/>
<path fill-rule="evenodd" clip-rule="evenodd" d="M273.136 131.353C272.226 127.171 274.879 123.043 279.062 122.133L286.432 120.53C290.615 119.62 294.743 122.273 295.653 126.455C296.563 130.637 293.91 134.765 289.728 135.674L282.357 137.278C278.174 138.187 274.046 135.535 273.136 131.353Z" fill="#FF114A"/>
<path fill-rule="evenodd" clip-rule="evenodd" d="M267.584 112.265C265.992 108.292 267.922 103.781 271.895 102.189L278.897 99.3838C282.871 97.792 287.382 99.7221 288.974 103.695C290.567 107.668 288.636 112.179 284.663 113.771L277.661 116.576C273.687 118.167 269.176 116.237 267.584 112.265Z" fill="#4B5D86"/>
<path fill-rule="evenodd" clip-rule="evenodd" d="M259.054 94.1192C256.8 90.4811 257.922 85.7044 261.56 83.4503L267.972 79.4782C271.611 77.224 276.388 78.346 278.643 81.9841C280.897 85.6222 279.775 90.3988 276.137 92.653L269.725 96.6251C266.086 98.8792 261.309 97.7573 259.054 94.1192Z" fill="#FF114A"/>
<path fill-rule="evenodd" clip-rule="evenodd" d="M246.609 77.333C243.869 74.0454 244.312 69.1589 247.6 66.4187L253.395 61.5899C256.683 58.8497 261.57 59.2933 264.311 62.5809C267.051 65.8685 266.607 70.755 263.319 73.4952L257.525 78.324C254.237 81.0642 249.35 80.6205 246.609 77.333Z" fill="#4B5D86"/>
<path fill-rule="evenodd" clip-rule="evenodd" d="M232.241 63.2382C228.948 60.5039 228.496 55.6182 231.231 52.3256L236.05 46.5237C238.784 43.2312 243.671 42.7787 246.964 45.513C250.257 48.2473 250.709 53.133 247.975 56.4255L243.156 62.2274C240.421 65.5199 235.534 65.9725 232.241 63.2382Z" fill="#FF114A"/>
<path fill-rule="evenodd" clip-rule="evenodd" d="M215.069 51.6272C211.362 49.4871 210.093 44.7476 212.233 41.0412L216.005 34.5101C218.145 30.8038 222.886 29.5341 226.593 31.6743C230.3 33.8144 231.569 38.5539 229.429 42.2603L225.657 48.7914C223.517 52.4977 218.776 53.7673 215.069 51.6272Z" fill="#4B5D86"/>
<path fill-rule="evenodd" clip-rule="evenodd" d="M197.607 43.332C193.6 41.8284 191.57 37.3612 193.074 33.3542L195.724 26.2931C197.227 22.2861 201.695 20.2566 205.703 21.7601C209.711 23.2637 211.741 27.7309 210.237 31.7379L207.587 38.799C206.083 42.806 201.615 44.8355 197.607 43.332Z" fill="#FF114A"/>
<path fill-rule="evenodd" clip-rule="evenodd" d="M177.111 37.8771C172.892 37.1502 170.062 33.1418 170.789 28.9241L172.07 21.492C172.797 17.2743 176.806 14.4445 181.024 15.1714C185.243 15.8983 188.073 19.9067 187.346 24.1243L186.065 31.5565C185.338 35.7742 181.329 38.604 177.111 37.8771Z" fill="#4B5D86"/>
<path fill-rule="evenodd" clip-rule="evenodd" d="M155.165 35.9991C150.885 36.0494 147.375 32.6209 147.324 28.3414L147.236 20.8002C147.185 16.5206 150.614 13.0106 154.894 12.9602C159.175 12.9099 162.685 16.3384 162.736 20.6179L162.824 28.1592C162.875 32.4387 159.446 35.9488 155.165 35.9991Z" fill="#FF114A"/>
<path fill-rule="evenodd" clip-rule="evenodd" d="M134.959 37.5883C130.749 38.3635 126.708 35.5798 125.933 31.3707L124.567 23.9537C123.792 19.7446 126.576 15.7041 130.785 14.929C134.995 14.1538 139.036 16.9375 139.812 21.1466L141.178 28.5636C141.953 32.7727 139.169 36.8132 134.959 37.5883Z" fill="#4B5D86"/>
<path fill-rule="evenodd" clip-rule="evenodd" d="M114.915 42.5538C110.889 44.0074 106.447 41.9225 104.993 37.8971L102.431 30.8037C100.977 26.7783 103.062 22.3366 107.088 20.883C111.114 19.4294 115.557 21.5143 117.01 25.5397L119.572 32.6331C121.026 36.6586 118.941 41.1002 114.915 42.5538Z" fill="#FF114A"/>
<path fill-rule="evenodd" clip-rule="evenodd" d="M96.5737 51.4137C92.8589 53.54 88.1234 52.2526 85.9967 48.5384L82.2493 41.9932C80.1226 38.2789 81.4102 33.5442 85.125 31.4179C88.8399 29.2916 93.5754 30.5789 95.702 34.2932L99.4495 40.8384C101.576 44.5526 100.289 49.2874 96.5737 51.4137Z" fill="#4B5D86"/>
<path fill-rule="evenodd" clip-rule="evenodd" d="M80.2436 62.8383C76.9843 65.6127 72.0926 65.2201 69.3178 61.9613L64.428 56.2188C61.6532 52.96 62.0459 48.0691 65.3052 45.2947C68.5645 42.5203 73.4561 42.913 76.231 46.1717L81.1207 51.9142C83.8956 55.173 83.5028 60.0639 80.2436 62.8383Z" fill="#FF114A"/>
</g>
</g>
<mask id="mask1" mask-type="alpha" maskUnits="userSpaceOnUse" x="19" y="19" width="274" height="274">
<path d="M289.575 156.002C289.575 229.761 229.772 289.555 156 289.555C82.2282 289.555 22.4252 229.761 22.4252 156.002C22.4252 82.2425 82.2282 22.4484 156 22.4484C229.772 22.4484 289.575 82.2425 289.575 156.002Z" stroke="white" stroke-width="5"/>
</mask>
<g mask="url(#mask1)">
<path fill-rule="evenodd" clip-rule="evenodd" d="M65.4438 77.4695C62.564 80.6368 57.6614 80.8702 54.4935 77.9909L48.9113 72.9169C45.7435 70.0375 45.51 65.1357 48.3899 61.9684C51.2697 58.801 56.1723 58.5676 59.3402 61.447L64.9224 66.5209C68.0902 69.4003 68.3237 74.3022 65.4438 77.4695Z" fill="#4B5D86"/>
<path fill-rule="evenodd" clip-rule="evenodd" d="M53.5782 93.8415C51.4064 97.5304 46.6549 98.7605 42.9655 96.589L36.4641 92.7626C32.7746 90.5911 31.5444 85.8404 33.7162 82.1515C35.888 78.4627 40.6394 77.2326 44.3289 79.4041L50.8302 83.2305C54.5197 85.402 55.75 90.1527 53.5782 93.8415Z" fill="#FF114A"/>
<path fill-rule="evenodd" clip-rule="evenodd" d="M44.4573 111.645C42.951 115.65 38.4801 117.674 34.4711 116.166L27.4067 113.509C23.3978 112.001 21.3689 107.533 22.8752 103.528C24.3814 99.5233 28.8524 97.4991 32.8613 99.0069L39.9257 101.664C43.9347 103.172 45.9635 107.64 44.4573 111.645Z" fill="#4B5D86"/>
<path fill-rule="evenodd" clip-rule="evenodd" d="M38.4996 130.936C37.6535 135.133 33.5654 137.848 29.3687 137.002L21.9733 135.511C17.7766 134.665 15.0604 130.578 15.9066 126.382C16.7527 122.186 20.8408 119.47 25.0375 120.316L32.4329 121.807C36.6296 122.653 39.3458 126.74 38.4996 130.936Z" fill="#FF114A"/>
<path fill-rule="evenodd" clip-rule="evenodd" d="M36.0942 151.138C35.9607 155.417 32.3836 158.777 28.1045 158.644L20.564 158.408C16.2849 158.275 12.9242 154.698 13.0577 150.42C13.1912 146.141 16.7683 142.781 21.0475 142.915L28.5879 143.15C32.8671 143.283 36.2277 146.86 36.0942 151.138Z" fill="#4B5D86"/>
<path fill-rule="evenodd" clip-rule="evenodd" d="M36.7087 171.313C37.2843 175.555 34.3119 179.46 30.0695 180.036L22.5939 181.05C18.3515 181.625 14.4458 178.653 13.8702 174.412C13.2946 170.17 16.2671 166.265 20.5094 165.689L27.9851 164.675C32.2274 164.1 36.1331 167.072 36.7087 171.313Z" fill="#FF114A"/>
<path fill-rule="evenodd" clip-rule="evenodd" d="M41.2752 191.524C42.6182 195.589 40.4115 199.972 36.3464 201.315L29.1831 203.681C25.118 205.024 20.7339 202.818 19.3909 198.753C18.0479 194.689 20.2546 190.305 24.3197 188.962L31.483 186.596C35.5481 185.253 39.9322 187.46 41.2752 191.524Z" fill="#4B5D86"/>
<path fill-rule="evenodd" clip-rule="evenodd" d="M48.7203 210.176C50.683 213.98 49.1898 218.655 45.3851 220.617L38.6805 224.076C34.8757 226.038 30.2002 224.545 28.2374 220.741C26.2747 216.937 27.7679 212.262 31.5727 210.299L38.2773 206.841C42.082 204.879 46.7575 206.372 48.7203 210.176Z" fill="#FF114A"/>
<path fill-rule="evenodd" clip-rule="evenodd" d="M59.0098 226.849C61.5322 230.308 60.7728 235.156 57.3136 237.678L51.2179 242.122C47.7587 244.644 42.9097 243.885 40.3873 240.426C37.8648 236.968 38.6243 232.119 42.0835 229.597L48.1791 225.153C51.6383 222.631 56.4874 223.39 59.0098 226.849Z" fill="#419E3F"/>
<path fill-rule="evenodd" clip-rule="evenodd" d="M72.6509 242.661C75.7518 245.613 75.8727 250.519 72.9209 253.619L67.7194 259.082C64.7676 262.183 59.8609 262.304 56.76 259.352C53.6591 256.401 53.5383 251.495 56.49 248.395L61.6916 242.931C64.6434 239.831 69.55 239.71 72.6509 242.661Z" fill="#4B5D86"/>
<path fill-rule="evenodd" clip-rule="evenodd" d="M88.4209 255.375C91.9555 257.79 92.8626 262.613 90.447 266.147L86.1903 272.374C83.7746 275.908 78.951 276.815 75.4164 274.4C71.8818 271.985 70.9747 267.162 73.3904 263.628L77.6471 257.4C80.0627 253.866 84.8863 252.959 88.4209 255.375Z" fill="#FF114A"/>
<path fill-rule="evenodd" clip-rule="evenodd" d="M106.142 265.119C110.08 266.8 111.908 271.355 110.226 275.291L107.263 282.228C105.581 286.164 101.026 287.992 97.0893 286.311C93.1522 284.63 91.3238 280.075 93.0055 276.139L95.9688 269.202C97.6505 265.266 102.205 263.438 106.142 265.119Z" fill="#4B5D86"/>
<path fill-rule="evenodd" clip-rule="evenodd" d="M125.152 272.224C129.294 273.306 131.775 277.54 130.693 281.682L128.787 288.98C127.705 293.122 123.47 295.602 119.327 294.521C115.185 293.439 112.704 289.205 113.786 285.063L115.692 277.765C116.774 273.623 121.009 271.143 125.152 272.224Z" fill="#FF114A"/>
<path fill-rule="evenodd" clip-rule="evenodd" d="M145.245 275.694C149.516 275.989 152.739 279.69 152.445 283.96L151.925 291.485C151.63 295.756 147.929 298.979 143.658 298.684C139.387 298.389 136.163 294.688 136.458 290.418L136.978 282.893C137.273 278.622 140.974 275.4 145.245 275.694Z" fill="#4B5D86"/>
<path fill-rule="evenodd" clip-rule="evenodd" d="M165.927 276.068C170.194 275.726 173.931 278.907 174.273 283.174L174.876 290.693C175.218 294.96 172.036 298.696 167.768 299.038C163.501 299.38 159.764 296.199 159.422 291.932L158.819 284.413C158.477 280.146 161.659 276.41 165.927 276.068Z" fill="#FF114A"/>
<path fill-rule="evenodd" clip-rule="evenodd" d="M185.807 272.816C189.949 271.732 194.185 274.211 195.269 278.352L197.179 285.649C198.264 289.79 195.785 294.025 191.643 295.109C187.501 296.193 183.265 293.715 182.181 289.574L180.271 282.277C179.187 278.136 181.666 273.9 185.807 272.816Z" fill="#4B5D86"/>
<path fill-rule="evenodd" clip-rule="evenodd" d="M205.295 265.703C209.202 263.953 213.788 265.7 215.539 269.606L218.625 276.49C220.375 280.396 218.628 284.982 214.721 286.732C210.814 288.483 206.228 286.735 204.477 282.829L201.391 275.946C199.641 272.04 201.388 267.454 205.295 265.703Z" fill="#FF114A"/>
<path fill-rule="evenodd" clip-rule="evenodd" d="M222.278 256.101C225.832 253.714 230.649 254.66 233.036 258.213L237.242 264.475C239.629 268.028 238.683 272.844 235.129 275.23C231.575 277.617 226.759 276.671 224.372 273.118L220.166 266.856C217.779 263.303 218.725 258.487 222.278 256.101Z" fill="#4B5D86"/>
<path fill-rule="evenodd" clip-rule="evenodd" d="M238.371 242.925C241.463 239.964 246.37 240.07 249.331 243.162L254.549 248.61C257.51 251.701 257.404 256.607 254.312 259.568C251.22 262.529 246.313 262.423 243.352 259.331L238.134 253.884C235.173 250.792 235.279 245.886 238.371 242.925Z" fill="#FF114A"/>
<path fill-rule="evenodd" clip-rule="evenodd" d="M252.132 228.093C254.7 224.668 259.558 223.973 262.984 226.54L269.02 231.065C272.445 233.633 273.14 238.491 270.572 241.916C268.004 245.341 263.146 246.035 259.72 243.468L253.684 238.943C250.258 236.375 249.563 231.517 252.132 228.093Z" fill="#4B5D86"/>
<path fill-rule="evenodd" clip-rule="evenodd" d="M262.769 210.547C264.706 206.729 269.371 205.204 273.189 207.14L279.918 210.551C283.736 212.487 285.262 217.152 283.325 220.969C281.389 224.787 276.724 226.312 272.906 224.376L266.177 220.965C262.359 219.029 260.833 214.365 262.769 210.547Z" fill="#FF114A"/>
<path fill-rule="evenodd" clip-rule="evenodd" d="M270.018 192.179C271.341 188.108 275.715 185.881 279.786 187.204L286.961 189.536C291.033 190.86 293.26 195.232 291.937 199.303C290.613 203.374 286.24 205.601 282.168 204.278L274.994 201.946C270.922 200.623 268.694 196.25 270.018 192.179Z" fill="#4B5D86"/>
<path fill-rule="evenodd" clip-rule="evenodd" d="M274.95 171.887C275.549 167.648 279.471 164.698 283.71 165.296L291.18 166.351C295.419 166.949 298.37 170.87 297.772 175.109C297.173 179.347 293.251 182.298 289.012 181.7L281.542 180.645C277.303 180.047 274.352 176.125 274.95 171.887Z" fill="#FF114A"/>
<path fill-rule="evenodd" clip-rule="evenodd" d="M275.874 152.151C275.825 147.87 279.257 144.361 283.538 144.313L291.081 144.228C295.362 144.18 298.872 147.61 298.92 151.891C298.968 156.171 295.537 159.68 291.256 159.728L283.713 159.813C279.432 159.862 275.922 156.431 275.874 152.151Z" fill="#4B5D86"/>
<path fill-rule="evenodd" clip-rule="evenodd" d="M273.155 131.349C272.245 127.167 274.899 123.038 279.082 122.128L286.454 120.525C290.637 119.615 294.766 122.268 295.676 126.451C296.586 130.633 293.933 134.762 289.749 135.672L282.378 137.275C278.194 138.185 274.065 135.532 273.155 131.349Z" fill="#FF114A"/>
<path fill-rule="evenodd" clip-rule="evenodd" d="M267.601 112.257C266.009 108.284 267.94 103.772 271.914 102.18L278.917 99.3744C282.891 97.7823 287.403 99.7127 288.996 103.686C290.588 107.66 288.657 112.171 284.683 113.763L277.68 116.569C273.706 118.161 269.194 116.231 267.601 112.257Z" fill="#4B5D86"/>
<path fill-rule="evenodd" clip-rule="evenodd" d="M259.071 94.1084C256.816 90.4697 257.938 85.6923 261.577 83.4378L267.99 79.4651C271.63 77.2106 276.408 78.3327 278.663 81.9714C280.917 85.6101 279.795 90.3875 276.156 92.642L269.743 96.6147C266.104 98.8692 261.325 97.7471 259.071 94.1084Z" fill="#FF114A"/>
<path fill-rule="evenodd" clip-rule="evenodd" d="M246.623 77.3205C243.882 74.0324 244.326 69.1451 247.614 66.4044L253.409 61.5749C256.698 58.8342 261.586 59.2779 264.327 62.566C267.068 65.8541 266.624 70.7414 263.336 73.4821L257.541 78.3116C254.252 81.0523 249.364 80.6085 246.623 77.3205Z" fill="#4B5D86"/>
<path fill-rule="evenodd" clip-rule="evenodd" d="M232.254 63.2233C228.96 60.4886 228.508 55.6021 231.243 52.3091L236.062 46.5062C238.798 43.2132 243.685 42.7606 246.978 45.4953C250.272 48.23 250.725 53.1165 247.99 56.4096L243.17 62.2124C240.435 65.5054 235.547 65.958 232.254 63.2233Z" fill="#FF114A"/>
<path fill-rule="evenodd" clip-rule="evenodd" d="M215.079 51.61C211.371 49.4695 210.101 44.7292 212.242 41.0223L216.014 34.4901C218.155 30.7832 222.896 29.5134 226.604 31.6539C230.311 33.7944 231.581 38.5346 229.44 42.2415L225.668 48.7737C223.527 52.4806 218.786 53.7504 215.079 51.61Z" fill="#4B5D86"/>
<path fill-rule="evenodd" clip-rule="evenodd" d="M197.614 43.3145C193.605 41.8107 191.575 37.3428 193.079 33.3351L195.73 26.2729C197.234 22.2652 201.702 20.2354 205.711 21.7392C209.719 23.243 211.749 27.7109 210.245 31.7186L207.595 38.7808C206.091 42.7885 201.622 44.8183 197.614 43.3145Z" fill="#FF114A"/>
<path fill-rule="evenodd" clip-rule="evenodd" d="M177.115 37.8586C172.896 37.1316 170.065 33.1226 170.792 28.9043L172.073 21.4709C172.8 17.2526 176.81 14.4223 181.029 15.1493C185.248 15.8764 188.079 19.8854 187.352 24.1037L186.07 31.5371C185.343 35.7554 181.334 38.5857 177.115 37.8586Z" fill="#4B5D86"/>
<path fill-rule="evenodd" clip-rule="evenodd" d="M155.166 35.9802C150.885 36.0305 147.374 32.6015 147.324 28.3213L147.235 20.7788C147.185 16.4986 150.614 12.988 154.895 12.9377C159.176 12.8873 162.687 16.3163 162.737 20.5966L162.826 28.139C162.876 32.4192 159.447 35.9298 155.166 35.9802Z" fill="#FF114A"/>
<path fill-rule="evenodd" clip-rule="evenodd" d="M134.956 37.5697C130.746 38.345 126.704 35.5608 125.928 31.3511L124.562 23.9329C123.787 19.7231 126.571 15.682 130.782 14.9067C134.992 14.1314 139.034 16.9156 139.809 21.1253L141.176 28.5435C141.951 32.7533 139.166 36.7944 134.956 37.5697Z" fill="#4B5D86"/>
<path fill-rule="evenodd" clip-rule="evenodd" d="M114.909 42.5353C110.882 43.9891 106.439 41.9039 104.985 37.8779L102.423 30.7833C100.969 26.7572 103.054 22.3149 107.081 20.8611C111.108 19.4072 115.551 21.4924 117.005 25.5185L119.567 32.6131C121.021 36.6391 118.936 41.0815 114.909 42.5353Z" fill="#FF114A"/>
<path fill-rule="evenodd" clip-rule="evenodd" d="M96.5644 51.3976C92.8489 53.5242 88.1127 52.2367 85.9857 48.5218L82.2376 41.9756C80.1107 38.2607 81.3984 33.5252 85.1139 31.3986C88.8293 29.272 93.5655 30.5595 95.6925 34.2744L99.4406 40.8206C101.568 44.5354 100.28 49.2709 96.5644 51.3976Z" fill="#4B5D86"/>
<path fill-rule="evenodd" clip-rule="evenodd" d="M80.2318 62.8227C76.972 65.5975 72.0796 65.2048 69.3043 61.9455L64.4138 56.2021C61.6385 52.9428 62.0312 48.0512 65.2911 45.2763C68.5509 42.5014 73.4433 42.8942 76.2186 46.1535L81.1091 51.8969C83.8844 55.1562 83.4916 60.0478 80.2318 62.8227Z" fill="#FF114A"/>
</g>
<defs>
<linearGradient id="paint0_linear" x1="156" y1="25.0804" x2="156" y2="286.92" gradientUnits="userSpaceOnUse">
<stop stop-color="#1B1C21"/>
<stop offset="1" stop-color="#242632" stop-opacity="0"/>
</linearGradient>
</defs>
</svg>
